<svg width="339" height="339" viewBox="0 0 339 339" fill="none" xmlns="http://www.w3.org/2000/svg">
    <path d="M305.032 270.176H282.577V270.346H305.032V270.176Z" fill="#EBEBEB" />
    <path d="M224.567 272.02H218.675V272.19H224.567V272.02Z" fill="#EBEBEB" />
    <path d="M281.899 263.884H268.888V264.054H281.899V263.884Z" fill="#EBEBEB" />
    <path d="M64.8507 265.023H35.5679V265.193H64.8507V265.023Z" fill="#EBEBEB" />
    <path d="M75.1833 265.023H70.8916V265.193H75.1833V265.023Z" fill="#EBEBEB" />
    <path d="M152.652 267.885H89.1367V268.054H152.652V267.885Z" fill="#EBEBEB" />
    <path
        d="M161.635 229.028H30.7132C29.6864 229.028 28.7017 228.62 27.9757 227.894C27.2497 227.168 26.8418 226.184 26.8418 225.157V41.1275C26.8507 40.1066 27.2626 39.1306 27.9876 38.4119C28.7127 37.6932 29.6923 37.2899 30.7132 37.29H161.635C162.143 37.29 162.647 37.3901 163.116 37.5847C163.586 37.7792 164.013 38.0644 164.372 38.4239C164.732 38.7834 165.017 39.2101 165.212 39.6798C165.406 40.1495 165.506 40.653 165.506 41.1614V225.157C165.506 225.665 165.406 226.169 165.212 226.639C165.017 227.108 164.732 227.535 164.372 227.894C164.013 228.254 163.586 228.539 163.116 228.734C162.647 228.928 162.143 229.028 161.635 229.028ZM30.7132 37.4256C29.7319 37.4274 28.7914 37.818 28.0975 38.5118C27.4037 39.2057 27.0131 40.1462 27.0113 41.1275V225.157C27.0131 226.138 27.4037 227.079 28.0975 227.773C28.7914 228.466 29.7319 228.857 30.7132 228.859H161.635C162.616 228.857 163.557 228.466 164.251 227.773C164.944 227.079 165.335 226.138 165.337 225.157V41.1275C165.335 40.1462 164.944 39.2057 164.251 38.5118C163.557 37.818 162.616 37.4274 161.635 37.4256H30.7132Z"
        fill="#EBEBEB" />
    <path
        d="M308.287 229.028H177.365C176.338 229.028 175.354 228.62 174.628 227.894C173.902 227.168 173.494 226.184 173.494 225.157V41.1275C173.503 40.1066 173.914 39.1306 174.639 38.4119C175.365 37.6932 176.344 37.2899 177.365 37.29H308.287C309.314 37.29 310.298 37.6979 311.024 38.4239C311.75 39.1499 312.158 40.1346 312.158 41.1614V225.157C312.158 226.184 311.75 227.168 311.024 227.894C310.298 228.62 309.314 229.028 308.287 229.028ZM177.365 37.4256C176.384 37.4274 175.443 37.818 174.749 38.5118C174.056 39.2057 173.665 40.1462 173.663 41.1275V225.157C173.665 226.138 174.056 227.079 174.749 227.773C175.443 228.466 176.384 228.857 177.365 228.859H308.287C309.268 228.857 310.209 228.466 310.902 227.773C311.596 227.079 311.987 226.138 311.989 225.157V41.1275C311.987 40.1462 311.596 39.2057 310.902 38.5118C310.209 37.818 309.268 37.4274 308.287 37.4256H177.365Z"
        fill="#EBEBEB" />
    <path d="M339 259.267H0V259.437H339V259.267Z" fill="#EBEBEB" />
    <path d="M301.14 54.4773H184.172V183.243H301.14V54.4773Z" fill="#E9E9E9" />
    <path d="M299.107 56.5587H186.43V180.965H299.107V56.5587Z" fill="#F9F9F9" />
    <path d="M230.188 127.111H215.794V181.29H230.188V127.111Z" fill="#F0F0F0" />
    <path d="M216.831 122.948H203.868V181.29H216.831V122.948Z" fill="#F0F0F0" />
    <path d="M206.146 151.16H193.183V181.297H206.146V151.16Z" fill="#EBEBEB" />
    <path d="M242.412 143.607H228.018V181.29H242.412V143.607Z" fill="#F0F0F0" />
    <path d="M207.475 128.671H206.146V130.006H207.475V128.671Z" fill="white" />
    <path d="M214.553 128.671H213.224V130.006H214.553V128.671Z" fill="white" />
    <path d="M207.475 133.01H206.146V134.346H207.475V133.01Z" fill="white" />
    <path d="M211.014 133.01H209.685V134.346H211.014V133.01Z" fill="white" />
    <path d="M214.553 137.342H213.224V138.678H214.553V137.342Z" fill="white" />
    <path d="M207.475 141.675H206.146V143.011H207.475V141.675Z" fill="white" />
    <path d="M211.014 141.675H209.685V143.011H211.014V141.675Z" fill="white" />
    <path d="M211.014 146.014H209.685V147.35H211.014V146.014Z" fill="white" />
    <path d="M214.553 146.014H213.224V147.35H214.553V146.014Z" fill="white" />
    <path d="M211.014 150.346H209.685V151.682H211.014V150.346Z" fill="white" />
    <path d="M214.553 150.346H213.224V151.682H214.553V150.346Z" fill="white" />
    <path d="M214.553 154.679H213.224V156.015H214.553V154.679Z" fill="white" />
    <path d="M211.014 159.018H209.685V160.354H211.014V159.018Z" fill="white" />
    <path d="M238.087 147.35H239.416V146.014H238.087V147.35Z" fill="white" />
    <path d="M231.008 147.35H232.337V146.014H231.008V147.35Z" fill="white" />
    <path d="M238.087 151.682H239.416V150.346H238.087V151.682Z" fill="white" />
    <path d="M234.547 151.682H235.876V150.346H234.547V151.682Z" fill="white" />
    <path d="M231.008 156.021H232.337V154.686H231.008V156.021Z" fill="white" />
    <path d="M238.087 160.347H239.416V159.011H238.087V160.347Z" fill="white" />
    <path d="M234.547 160.347H235.876V159.011H234.547V160.347Z" fill="white" />
    <path d="M234.547 164.686H235.876V163.35H234.547V164.686Z" fill="white" />
    <path d="M231.008 164.686H232.337V163.35H231.008V164.686Z" fill="white" />
    <path d="M234.547 169.025H235.876V167.69H234.547V169.025Z" fill="white" />
    <path d="M231.008 169.025H232.337V167.69H231.008V169.025Z" fill="white" />
    <path d="M231.008 173.358H232.337V172.022H231.008V173.358Z" fill="white" />
    <path d="M234.547 177.69H235.876V176.355H234.547V177.69Z" fill="white" />
    <path d="M259.328 182.226H273.451V115.172H259.328V182.226Z" fill="#F0F0F0" />
    <path d="M272.427 182.226H285.146V110.019H272.427V182.226Z" fill="#F5F5F5" />
    <path d="M282.916 182.233H295.635V144.943H282.916V182.233Z" fill="#EBEBEB" />
    <path d="M247.334 182.226H261.457V135.593H247.334V182.226Z" fill="#F5F5F5" />
    <path d="M281.614 118.772H282.916V117.118H281.614V118.772Z" fill="white" />
    <path d="M274.671 118.772H275.973V117.118H274.671V118.772Z" fill="white" />
    <path d="M281.614 124.135H282.916V122.481H281.614V124.135Z" fill="white" />
    <path d="M278.136 124.135H279.438V122.481H278.136V124.135Z" fill="white" />
    <path d="M274.671 129.491H275.973V127.837H274.671V129.491Z" fill="white" />
    <path d="M281.614 134.861H282.916V133.207H281.614V134.861Z" fill="white" />
    <path d="M278.136 134.861H279.438V133.207H278.136V134.861Z" fill="white" />
    <path d="M278.136 140.224H279.438V138.57H278.136V140.224Z" fill="white" />
    <path d="M274.671 140.224H275.973V138.57H274.671V140.224Z" fill="white" />
    <path d="M278.136 145.594H279.438V143.939H278.136V145.594Z" fill="white" />
    <path d="M274.671 145.594H275.973V143.939H274.671V145.594Z" fill="white" />
    <path d="M274.671 150.957H275.973V149.302H274.671V150.957Z" fill="white" />
    <path d="M278.136 156.313H279.438V154.659H278.136V156.313Z" fill="white" />
    <path d="M251.572 138.57H250.27V140.224H251.572V138.57Z" fill="white" />
    <path d="M258.515 138.57H257.213V140.224H258.515V138.57Z" fill="white" />
    <path d="M251.572 143.933H250.27V145.587H251.572V143.933Z" fill="white" />
    <path d="M255.043 143.933H253.742V145.587H255.043V143.933Z" fill="white" />
    <path d="M258.515 149.296H257.213V150.95H258.515V149.296Z" fill="white" />
    <path d="M251.572 154.665H250.27V156.32H251.572V154.665Z" fill="white" />
    <path d="M255.043 154.665H253.742V156.32H255.043V154.665Z" fill="white" />
    <path d="M255.043 160.028H253.742V161.683H255.043V160.028Z" fill="white" />
    <path d="M258.515 160.028H257.213V161.683H258.515V160.028Z" fill="white" />
    <path d="M255.043 165.391H253.742V167.046H255.043V165.391Z" fill="white" />
    <path d="M258.515 165.391H257.213V167.046H258.515V165.391Z" fill="white" />
    <path d="M258.515 170.754H257.213V172.409H258.515V170.754Z" fill="white" />
    <path d="M255.043 176.117H253.742V177.772H255.043V176.117Z" fill="white" />
    <path
        d="M222.289 83.394C222.289 83.394 186.585 88.4655 190.287 77.6175C193.989 66.7695 201.515 77.6175 201.515 77.6175C201.515 77.6175 205.386 70.8375 209.61 72.7969C210.852 73.4102 211.926 74.3176 212.738 75.44C213.549 76.5625 214.075 77.8662 214.268 79.2379C214.268 79.2379 215.522 75.597 218.906 79.4955C222.289 83.394 221.963 78.648 222.289 83.394Z"
        fill="#F0F0F0" />
    <path
        d="M252.318 95.7607C252.318 95.7607 223.509 99.8287 226.493 91.096C229.476 82.3634 235.551 91.096 235.551 91.096C235.551 91.096 238.676 85.5975 242.087 87.2043C243.089 87.7001 243.956 88.4327 244.611 89.3389C245.267 90.245 245.692 91.2972 245.849 92.4046C245.849 92.4046 246.86 89.4688 249.592 92.6148C252.324 95.7607 252.06 91.9164 252.318 95.7607Z"
        fill="#F0F0F0" />
    <path
        d="M289.275 82.221C289.275 82.221 253.809 87.2586 257.484 76.4852C261.159 65.7117 268.637 76.4852 268.637 76.4852C268.637 76.4852 272.481 69.7052 276.678 71.6917C277.912 72.3012 278.978 73.2029 279.784 74.3184C280.59 75.4338 281.111 76.7293 281.302 78.092C281.302 78.092 282.55 74.4783 285.912 78.3497C289.275 82.221 288.95 77.4954 289.275 82.221Z"
        fill="#F0F0F0" />
    <path d="M224.269 54.7688H222.289V183.243H224.269V54.7688Z" fill="#E9E9E9" />
    <path d="M261.505 54.7688H259.525V183.243H261.505V54.7688Z" fill="#E9E9E9" />
    <path d="M73.3123 131.349H44.3481V259.416H73.3123V131.349Z" fill="#E6E6E6" />
    <path d="M146.496 131.349H64.7627V259.416H146.496V131.349Z" fill="#F5F5F5" />
    <path d="M142.61 135.349H108.046V255.409H142.61V135.349Z" fill="#EBEBEB" />
    <path d="M104.019 135.349H69.4541V255.409H104.019V135.349Z" fill="#EBEBEB" />
    <path d="M108.046 180.301H138.434V174.043H108.046V180.301Z" fill="#F5F5F5" />
    <path d="M69.4543 180.301H99.8423V174.043H69.4543V180.301Z" fill="#F5F5F5" />
    <path d="M108.046 217.652H138.434V211.394H108.046V217.652Z" fill="#F5F5F5" />
    <path d="M69.4543 217.652H99.8423V211.394H69.4543V217.652Z" fill="#F5F5F5" />
    <path d="M127.579 255.409H130.881V221.15H127.579V255.409Z" fill="#FAFAFA" />
    <path d="M124.277 255.409H127.579V224.113H124.277V255.409Z" fill="#E0E0E0" />
    <path d="M130.881 255.409H134.183V224.113H130.881V255.409Z" fill="#E0E0E0" />
    <path d="M111.728 255.409H114.297V224.113H111.728V255.409Z" fill="#E0E0E0" />
    <path d="M108.039 255.409H111.728V221.692H108.039V255.409Z" fill="#F0F0F0" />
    <path d="M119.287 255.409H124.271V224.113H119.287V255.409Z" fill="#F5F5F5" />
    <path d="M114.304 255.409H119.287V222.147H114.304V255.409Z" fill="#E6E6E6" />
    <path d="M88.9809 255.409H92.2827V221.15H88.9809V255.409Z" fill="#E0E0E0" />
    <path d="M85.6854 255.409H88.9873V224.113H85.6854V255.409Z" fill="#E0E0E0" />
    <path d="M92.2894 255.409H95.5913V224.113H92.2894V255.409Z" fill="#FAFAFA" />
    <path d="M73.1359 255.409H75.7056V224.113H73.1359V255.409Z" fill="#E0E0E0" />
    <path d="M69.4474 255.409H73.1357V221.692H69.4474V255.409Z" fill="#F0F0F0" />
    <path d="M80.6954 255.409H85.6787V224.113H80.6954V255.409Z" fill="#F5F5F5" />
    <path d="M75.712 255.409H80.6953V222.147H75.712V255.409Z" fill="#E6E6E6" />
    <path d="M111.348 183.019H108.046V211.597H111.348V183.019Z" fill="#FAFAFA" />
    <path d="M114.65 185.487H111.348V211.597H114.65V185.487Z" fill="#E0E0E0" />
    <path d="M127.193 185.487H124.623V211.597H127.193V185.487Z" fill="#E0E0E0" />
    <path d="M133.817 185.487H130.881V211.597H133.817V185.487Z" fill="#E0E0E0" />
    <path d="M130.881 183.474H127.193V211.597H130.881V183.474Z" fill="#F0F0F0" />
    <path d="M119.633 185.487H114.65V211.597H119.633V185.487Z" fill="#F5F5F5" />
    <path d="M124.623 183.853H119.64V211.597H124.623V183.853Z" fill="#E6E6E6" />
    <path d="M72.5797 183.019H69.2778V211.597H72.5797V183.019Z" fill="#E0E0E0" />
    <path d="M75.8819 185.487H72.5801V211.597H75.8819V185.487Z" fill="#E6E6E6" />
    <path d="M88.4246 185.487H85.855V211.597H88.4246V185.487Z" fill="#E0E0E0" />
    <path d="M92.1131 183.474H88.4248V211.597H92.1131V183.474Z" fill="#F0F0F0" />
    <path d="M95.7879 183.474H92.0996V211.597H95.7879V183.474Z" fill="#F5F5F5" />
    <path d="M80.8651 185.487H75.8818V211.597H80.8651V185.487Z" fill="#F5F5F5" />
    <path d="M85.8554 183.853H80.8721V211.597H85.8554V183.853Z" fill="#E6E6E6" />
    <path d="M111.348 150.455H108.046V174.036H111.348V150.455Z" fill="#FAFAFA" />
    <path d="M114.65 147.933H111.348V174.043H114.65V147.933Z" fill="#E0E0E0" />
    <path d="M134.183 147.933H130.881V174.043H134.183V147.933Z" fill="#E0E0E0" />
    <path d="M127.193 147.933H124.623V174.043H127.193V147.933Z" fill="#E0E0E0" />
    <path d="M130.881 145.912H127.193V174.036H130.881V145.912Z" fill="#F0F0F0" />
    <path d="M119.633 147.933H114.65V174.043H119.633V147.933Z" fill="#F5F5F5" />
    <path d="M124.623 146.292H119.64V174.036H124.623V146.292Z" fill="#E6E6E6" />
    <path d="M88.9809 174.043H92.2827V150.462H88.9809V174.043Z" fill="#FAFAFA" />
    <path d="M85.6854 174.036H88.9873V147.926H85.6854V174.036Z" fill="#E0E0E0" />
    <path d="M92.2894 174.036H95.5913V147.926H92.2894V174.036Z" fill="#E0E0E0" />
    <path d="M73.1359 174.036H75.7056V147.926H73.1359V174.036Z" fill="#E0E0E0" />
    <path d="M69.4474 174.043H73.1357V152.631H69.4474V174.043Z" fill="#E0E0E0" />
    <path d="M80.6954 174.036H85.6787V147.926H80.6954V174.036Z" fill="#F5F5F5" />
    <path d="M75.712 174.043H80.6953V146.299H75.712V174.043Z" fill="#E6E6E6" />
    <path
        d="M108.826 119.504C108.826 119.504 112.528 121.26 113.463 118.277C114.399 115.294 118.311 118.392 119.091 114.887C119.87 111.382 123.071 113.701 124.169 111.26C125.267 108.819 128.962 108.758 128.732 106.256C128.501 103.754 124.216 106.426 122.264 105.707C120.311 104.988 119.064 109.158 116.487 109.165C113.911 109.172 113.056 114.087 111.368 113.504C109.68 112.921 108.351 117.118 108.826 119.504Z"
        fill="#EBEBEB" />
    <path
        d="M108.032 120.718C108.032 120.718 115.49 112.141 125.254 106.954C125.254 106.954 120.135 107.687 107.341 120.426L108.032 120.718Z"
        fill="#E0E0E0" />
    <path
        d="M95.3538 118.284C95.3538 118.284 89.3331 116.575 91.2858 112.182C93.2384 107.788 85.6041 107.436 88.2483 102.615C90.8925 97.7947 84.8583 97.2455 86.0652 93.3402C87.272 89.4349 83.082 85.6381 85.8618 82.9939C88.6416 80.3497 90.879 87.7399 93.8418 88.8722C96.8047 90.0045 94.0385 96.059 96.9945 98.6625C99.9506 101.266 95.9911 107.768 98.5133 108.792C101.035 109.816 98.3099 116.019 95.3538 118.284Z"
        fill="#E0E0E0" />
    <path
        d="M95.0418 120.474C95.0418 120.474 95.0418 103.09 89.1025 87.34C89.1025 87.34 94.2486 93.3267 96.1266 120.84L95.0418 120.474Z"
        fill="#FAFAFA" />
    <path
        d="M104.466 118.853C104.466 118.853 109.518 119.952 109.829 115.965C110.141 111.978 115.823 114.697 115.782 110.087C115.742 105.476 120.345 107.449 120.996 104.093C121.647 100.737 126.19 99.5779 125.193 96.5336C124.196 93.4894 119.688 98.0659 117.057 97.7405C114.426 97.415 114.094 102.975 110.955 103.734C107.816 104.493 108.128 110.86 105.883 110.629C103.639 110.399 103.205 116.026 104.466 118.853Z"
        fill="#E0E0E0" />
    <path
        d="M103.829 120.596C103.829 120.596 110.609 107.714 121.111 98.4388C121.111 98.4388 115.009 100.839 102.9 120.433L103.829 120.596Z"
        fill="#F5F5F5" />
    <path
        d="M80.9531 119.857C80.9531 119.857 77.4275 121.07 76.7767 117.897C76.1258 114.724 72.3222 117.28 71.8612 113.585C71.4001 109.89 68.2949 111.768 67.4677 109.124C66.6406 106.48 63.2438 105.849 63.637 103.348C64.0303 100.846 67.7728 104.209 69.617 103.775C71.4611 103.341 72.329 107.775 74.6749 108.168C77.0207 108.561 77.4682 113.694 79.0547 113.355C80.6413 113.016 81.5633 117.504 80.9531 119.857Z"
        fill="#F0F0F0" />
    <path
        d="M81.5907 121.206C81.5907 121.206 75.3396 111.355 66.7832 104.602C66.7832 104.602 71.4275 106.121 82.2484 121.016L81.5907 121.206Z"
        fill="#E0E0E0" />
    <path
        d="M85.5634 117.904C85.5634 117.904 83.2243 119.64 79.5495 112.975C75.8748 106.31 72.5254 98.4117 68.0913 96.0251C68.0913 96.0251 74.1933 94.9064 80.0106 102.995C85.8278 111.083 86.7838 117.213 85.5634 117.904Z"
        fill="#E0E0E0" />
    <path
        d="M87.1432 120.521C85.3058 116.318 83.6243 112.907 82.1192 110.148C81.8171 109.128 81.7983 108.045 82.0649 107.015C81.6412 107.692 81.4909 108.504 81.6446 109.287C80.3971 107.056 79.2851 105.28 78.3088 103.863C77.8749 102.351 78.3766 101.829 78.3766 101.829C77.8139 102.053 77.7935 102.703 77.8885 103.239C75.2307 99.5168 73.7391 98.6693 73.7391 98.6693C74.3696 99.4083 74.9731 100.161 75.5629 100.927C74.8288 100.487 73.9844 100.266 73.1289 100.29C74.2025 100.455 75.2131 100.902 76.0579 101.585C77.2308 103.158 78.302 104.765 79.2784 106.331C78.3572 105.455 77.2276 104.83 75.9968 104.514C76.2545 104.581 77.8613 105.104 79.9225 107.388C81.0344 109.239 81.9971 111.029 82.8243 112.663C81.7959 111.882 80.5196 111.499 79.2309 111.585C80.6769 111.754 82.0393 112.351 83.143 113.301C84.3143 115.643 85.3643 118.044 86.2889 120.494L87.1432 120.521Z"
        fill="#F5F5F5" />
    <path
        d="M89.7267 117.558C89.7267 117.558 87.0147 118.684 85.0553 111.334C83.0958 103.985 81.6653 95.5166 77.9634 92.1537C77.9634 92.1537 84.1739 92.5267 87.8757 101.754C91.5776 110.982 91.0623 117.172 89.7267 117.558Z"
        fill="#F5F5F5" />
    <path
        d="M90.6352 120.474C89.8487 115.952 89.0284 112.243 88.2216 109.199C88.1674 108.139 88.4017 107.085 88.8996 106.148C88.3297 106.707 87.9909 107.459 87.9504 108.256C87.2724 105.795 86.5944 103.802 85.9977 102.202C85.9367 100.636 86.5469 100.276 86.5469 100.276C85.9435 100.358 85.7672 100.954 85.7333 101.524C84.0383 97.2727 82.7976 96.0997 82.7976 96.0997C83.2315 96.9676 83.6383 97.8422 84.0247 98.7236C83.4172 98.1214 82.6504 97.7051 81.8145 97.5235C82.8182 97.9408 83.6932 98.617 84.3502 99.4829C85.1163 101.293 85.774 103.103 86.3842 104.866C85.697 103.795 84.747 102.917 83.6247 102.317C83.8552 102.446 85.2926 103.334 86.7571 106.046C87.3876 108.08 87.9029 110.114 88.3165 111.863C87.5044 110.858 86.3554 110.181 85.0824 109.958C86.4461 110.466 87.6267 111.37 88.4724 112.555C89.0565 115.109 89.5091 117.691 89.8284 120.291L90.6352 120.474Z"
        fill="#E0E0E0" />
    <path
        d="M100.344 117.341C100.344 117.341 103.883 118.697 106.215 109.09C108.548 99.4829 110.06 88.3976 114.812 83.8957C114.812 83.8957 106.744 84.5737 102.229 96.7235C97.7132 108.873 98.5674 116.887 100.344 117.341Z"
        fill="#F5F5F5" />
    <path
        d="M99.2251 121.165C100.1 115.26 101.042 110.405 101.991 106.419C102.019 105.034 101.67 103.668 100.981 102.466C101.744 103.173 102.211 104.141 102.29 105.178C103.09 101.951 103.89 99.3405 104.629 97.2387C104.629 95.2047 103.856 94.7505 103.856 94.7505C104.642 94.8318 104.886 95.6386 104.947 96.3505C107.022 90.757 108.595 89.1909 108.595 89.1909C108.059 90.3299 107.558 91.4893 107.083 92.6487C107.855 91.8477 108.837 91.2812 109.917 91.0147C108.627 91.592 107.511 92.4994 106.683 93.6453C105.754 96.0251 104.954 98.3913 104.263 100.717C105.12 99.3044 106.328 98.1368 107.768 97.3269C107.47 97.5031 105.625 98.6829 103.815 102.276C103.056 104.988 102.459 107.565 101.978 109.897C103.002 108.564 104.473 107.647 106.12 107.314C103.564 108.5 102.364 109.877 101.795 110.805C101.136 114.143 100.651 117.513 100.344 120.901L99.2251 121.165Z"
        fill="#E0E0E0" />
    <path
        d="M120.338 122.718L118.982 127.993C118.715 128.999 118.124 129.889 117.3 130.526C116.477 131.163 115.467 131.512 114.426 131.518H77.8344C76.7934 131.512 75.7835 131.163 74.9602 130.526C74.1369 129.889 73.5459 128.999 73.2782 127.993L71.9222 122.718C71.8292 122.358 71.8198 121.981 71.8947 121.616C71.9697 121.252 72.127 120.909 72.3547 120.615C72.5824 120.32 72.8744 120.082 73.2084 119.917C73.5424 119.753 73.9095 119.668 74.2817 119.667H117.972C118.345 119.665 118.714 119.749 119.049 119.913C119.385 120.076 119.678 120.314 119.907 120.609C120.136 120.904 120.294 121.248 120.368 121.613C120.443 121.979 120.433 122.357 120.338 122.718Z"
        fill="#E6E6E6" />
    <path
        d="M169.5 289.513C242.102 289.513 300.957 286.077 300.957 281.838C300.957 277.599 242.102 274.163 169.5 274.163C96.898 274.163 38.0425 277.599 38.0425 281.838C38.0425 286.077 96.898 289.513 169.5 289.513Z"
        fill="#F5F5F5" />
    <path
        d="M240.086 273.37L224.818 239.517H189.121L194.586 271.2C194.65 271.57 194.641 271.948 194.559 272.314C194.477 272.68 194.323 273.026 194.107 273.333C193.891 273.64 193.617 273.901 193.3 274.101C192.983 274.302 192.63 274.438 192.26 274.502C192.108 274.529 191.954 274.543 191.799 274.543H176.144C175.741 274.543 175.355 274.703 175.07 274.987C174.786 275.272 174.625 275.659 174.625 276.061V277.743C174.625 278.146 174.786 278.532 175.07 278.817C175.355 279.101 175.741 279.261 176.144 279.261H238.981C239.418 279.261 239.837 279.088 240.146 278.779C240.455 278.47 240.629 278.051 240.629 277.614V275.865C240.624 275.004 240.44 274.154 240.086 273.37ZM223.557 269.166H206.417C205.877 269.164 205.354 268.973 204.941 268.624C204.529 268.276 204.252 267.793 204.159 267.261L201.576 252.345C201.524 252.048 201.532 251.745 201.597 251.451C201.663 251.157 201.786 250.879 201.959 250.633C202.132 250.387 202.352 250.177 202.606 250.016C202.861 249.855 203.144 249.746 203.44 249.694C203.574 249.684 203.707 249.684 203.841 249.694H216.797C217.24 249.694 217.673 249.822 218.045 250.063C218.416 250.303 218.711 250.646 218.892 251.05L225.672 265.966C225.827 266.315 225.893 266.698 225.864 267.079C225.834 267.461 225.71 267.829 225.503 268.15C225.296 268.472 225.012 268.737 224.677 268.921C224.342 269.105 223.966 269.204 223.584 269.207L223.557 269.166Z"
        fill="#263238" />
    <path opacity="0.5"
        d="M240.086 273.37L224.818 239.517H189.121L194.586 271.2C194.65 271.57 194.641 271.948 194.559 272.314C194.477 272.68 194.323 273.026 194.107 273.333C193.891 273.64 193.617 273.901 193.3 274.101C192.983 274.302 192.63 274.438 192.26 274.502C192.108 274.529 191.954 274.543 191.799 274.543H176.144C175.741 274.543 175.355 274.703 175.07 274.987C174.786 275.272 174.625 275.659 174.625 276.061V277.743C174.625 278.146 174.786 278.532 175.07 278.817C175.355 279.101 175.741 279.261 176.144 279.261H238.981C239.418 279.261 239.837 279.088 240.146 278.779C240.455 278.47 240.629 278.051 240.629 277.614V275.865C240.624 275.004 240.44 274.154 240.086 273.37ZM223.557 269.166H206.417C205.877 269.164 205.354 268.973 204.941 268.624C204.529 268.276 204.252 267.793 204.159 267.261L201.576 252.345C201.524 252.048 201.532 251.745 201.597 251.451C201.663 251.157 201.786 250.879 201.959 250.633C202.132 250.387 202.352 250.177 202.606 250.016C202.861 249.855 203.144 249.746 203.44 249.694C203.574 249.684 203.707 249.684 203.841 249.694H216.797C217.24 249.694 217.673 249.822 218.045 250.063C218.416 250.303 218.711 250.646 218.892 251.05L225.672 265.966C225.827 266.315 225.893 266.698 225.864 267.079C225.834 267.461 225.71 267.829 225.503 268.15C225.296 268.472 225.012 268.737 224.677 268.921C224.342 269.105 223.966 269.204 223.584 269.207L223.557 269.166Z"
        fill="white" />
    <path opacity="0.2"
        d="M223.557 269.166H206.417C205.877 269.164 205.354 268.973 204.941 268.624C204.529 268.276 204.252 267.793 204.159 267.261L201.576 252.345C201.524 252.048 201.532 251.745 201.597 251.451C201.663 251.157 201.786 250.879 201.959 250.633C202.132 250.387 202.352 250.177 202.606 250.016C202.861 249.855 203.144 249.745 203.44 249.694C203.574 249.684 203.707 249.684 203.841 249.694H216.797C217.24 249.694 217.673 249.822 218.045 250.063C218.416 250.303 218.711 250.646 218.892 251.05L225.672 265.966C225.827 266.315 225.893 266.698 225.864 267.079C225.834 267.461 225.71 267.829 225.503 268.15C225.296 268.472 225.012 268.737 224.677 268.921C224.342 269.105 223.966 269.204 223.584 269.207L223.557 269.166Z"
        fill="white" />
    <path
        d="M205.854 249.619H203.82C203.519 249.618 203.22 249.677 202.941 249.792C202.662 249.907 202.409 250.075 202.195 250.288C201.982 250.501 201.812 250.754 201.697 251.032C201.581 251.311 201.522 251.609 201.522 251.911C201.52 252.043 201.531 252.175 201.556 252.304L204.139 267.22C204.231 267.752 204.508 268.235 204.921 268.583C205.334 268.932 205.856 269.124 206.397 269.125H208.431C207.889 269.125 207.365 268.934 206.951 268.586C206.537 268.237 206.259 267.754 206.166 267.22L203.583 252.304C203.481 251.705 203.62 251.089 203.971 250.592C204.322 250.095 204.855 249.758 205.454 249.653C205.586 249.631 205.72 249.62 205.854 249.619Z"
        fill="#263238" />
    <path
        d="M242.107 273.37L226.825 239.551H224.791L240.06 273.37C240.418 274.16 240.603 275.017 240.602 275.885V277.634C240.602 278.071 240.428 278.49 240.119 278.799C239.81 279.108 239.391 279.282 238.954 279.282H240.988C241.204 279.282 241.418 279.239 241.618 279.156C241.817 279.073 241.999 278.952 242.151 278.799C242.303 278.646 242.424 278.464 242.506 278.264C242.588 278.064 242.63 277.85 242.629 277.634V275.885C242.637 275.019 242.459 274.161 242.107 273.37Z"
        fill="#263238" />
    <path opacity="0.2" d="M224.805 239.517H189.108L190.511 247.599H228.459L224.805 239.517Z"
        fill="black" />
    <path
        d="M276.007 243.07H123.728C123.07 243.082 122.416 242.965 121.803 242.725C121.191 242.485 120.631 242.126 120.157 241.67C119.683 241.213 119.304 240.668 119.04 240.065C118.777 239.461 118.635 238.812 118.623 238.154C118.609 237.928 118.609 237.702 118.623 237.476L128.271 127.464C128.425 125.954 129.126 124.552 130.243 123.524C131.36 122.496 132.814 121.913 134.332 121.884H286.618C287.947 121.86 289.232 122.366 290.189 123.289C291.146 124.212 291.698 125.477 291.723 126.806C291.737 127.032 291.737 127.259 291.723 127.484L282.048 237.497C281.897 239.004 281.199 240.403 280.086 241.43C278.973 242.458 277.521 243.041 276.007 243.07Z"
        fill="#263238" />
    <path opacity="0.3"
        d="M276.007 243.07H123.728C123.07 243.082 122.416 242.965 121.803 242.725C121.191 242.485 120.631 242.126 120.157 241.67C119.683 241.213 119.304 240.668 119.04 240.065C118.777 239.461 118.635 238.812 118.623 238.154C118.609 237.928 118.609 237.702 118.623 237.476L128.271 127.464C128.425 125.954 129.126 124.552 130.243 123.524C131.36 122.496 132.814 121.913 134.332 121.884H286.618C287.947 121.86 289.232 122.366 290.189 123.289C291.146 124.212 291.698 125.477 291.723 126.806C291.737 127.032 291.737 127.259 291.723 127.484L282.048 237.497C281.897 239.004 281.199 240.403 280.086 241.43C278.973 242.458 277.521 243.041 276.007 243.07Z"
        fill="white" />
    <path
        d="M119.687 225.604L118.65 237.497C118.501 238.818 118.884 240.145 119.712 241.185C120.541 242.224 121.749 242.893 123.071 243.043C123.296 243.057 123.523 243.057 123.749 243.043H276.007C277.525 243.017 278.98 242.434 280.097 241.405C281.213 240.376 281.912 238.973 282.062 237.463L283.106 225.571L119.687 225.604Z"
        fill="#219BBA" />
    <path opacity="0.7"
        d="M119.687 225.604L118.65 237.497C118.501 238.818 118.884 240.145 119.712 241.185C120.541 242.224 121.749 242.893 123.071 243.043C123.296 243.057 123.523 243.057 123.749 243.043H276.007C277.525 243.017 278.98 242.434 280.097 241.405C281.213 240.376 281.912 238.973 282.062 237.463L283.106 225.571L119.687 225.604Z"
        fill="white" />
    <path
        d="M277.729 222.235H125.647C125.29 222.243 124.935 222.18 124.602 222.051C124.269 221.921 123.964 221.727 123.707 221.479C123.449 221.231 123.243 220.935 123.1 220.608C122.957 220.28 122.88 219.928 122.874 219.57C122.867 219.453 122.867 219.335 122.874 219.218L130.854 128.271C130.944 127.456 131.326 126.702 131.929 126.147C132.533 125.592 133.317 125.275 134.136 125.254H286.218C286.575 125.247 286.93 125.31 287.263 125.441C287.596 125.571 287.899 125.766 288.156 126.014C288.413 126.263 288.619 126.559 288.761 126.887C288.903 127.215 288.979 127.568 288.984 127.925C288.994 128.04 288.994 128.156 288.984 128.271L281.018 219.218C280.928 220.033 280.545 220.789 279.94 221.344C279.335 221.899 278.55 222.215 277.729 222.235Z"
        fill="#219BBA" />
    <path opacity="0.8"
        d="M277.729 222.235H125.647C125.29 222.243 124.935 222.18 124.602 222.051C124.269 221.921 123.964 221.727 123.707 221.479C123.449 221.231 123.243 220.935 123.1 220.608C122.957 220.28 122.88 219.928 122.874 219.57C122.867 219.453 122.867 219.335 122.874 219.218L130.854 128.271C130.944 127.456 131.326 126.702 131.929 126.147C132.533 125.592 133.317 125.275 134.136 125.254H286.218C286.575 125.247 286.93 125.31 287.263 125.441C287.596 125.571 287.899 125.766 288.156 126.014C288.413 126.263 288.619 126.559 288.761 126.887C288.903 127.215 288.979 127.568 288.984 127.925C288.994 128.04 288.994 128.156 288.984 128.271L281.018 219.218C280.928 220.033 280.545 220.789 279.94 221.344C279.335 221.899 278.55 222.215 277.729 222.235Z"
        fill="#219BBA" />
    <path opacity="0.8"
        d="M277.729 222.235H125.647C125.29 222.243 124.935 222.18 124.602 222.051C124.269 221.921 123.964 221.727 123.707 221.479C123.449 221.231 123.243 220.935 123.1 220.608C122.957 220.28 122.88 219.928 122.874 219.57C122.867 219.453 122.867 219.335 122.874 219.218L130.854 128.271C130.944 127.456 131.326 126.702 131.929 126.147C132.533 125.592 133.317 125.275 134.136 125.254H286.218C286.575 125.247 286.93 125.31 287.263 125.441C287.596 125.571 287.899 125.766 288.156 126.014C288.413 126.263 288.619 126.559 288.761 126.887C288.903 127.215 288.979 127.568 288.984 127.925C288.994 128.04 288.994 128.156 288.984 128.271L281.018 219.218C280.928 220.033 280.545 220.789 279.94 221.344C279.335 221.899 278.55 222.215 277.729 222.235Z"
        fill="white" />
    <g opacity="0.5">
        <path d="M168.266 222.242H154.374L174.992 125.254H188.877L168.266 222.242Z" fill="white" />
        <path d="M177.053 222.242H173.5L194.118 125.254H197.671L177.053 222.242Z" fill="white" />
        <path d="M228.784 222.242H226.452L247.07 125.254H249.396L228.784 222.242Z" fill="white" />
        <path d="M237.578 222.242H234.025L254.637 125.254H258.189L237.578 222.242Z" fill="white" />
    </g>
    <path
        d="M289.981 121.898H286.591C287.249 121.885 287.903 122.002 288.516 122.242C289.128 122.483 289.688 122.841 290.162 123.298C290.636 123.754 291.015 124.3 291.279 124.903C291.542 125.506 291.684 126.155 291.696 126.813C291.71 127.039 291.71 127.265 291.696 127.491L282.048 237.497C281.899 239.007 281.199 240.41 280.083 241.439C278.967 242.468 277.511 243.051 275.994 243.077H279.384C280.901 243.049 282.356 242.466 283.472 241.437C284.588 240.409 285.287 239.007 285.438 237.497L295.059 127.464C295.132 126.809 295.074 126.147 294.891 125.515C294.707 124.882 294.401 124.292 293.989 123.779C293.577 123.265 293.068 122.837 292.491 122.52C291.913 122.203 291.279 122.003 290.625 121.931C290.411 121.903 290.196 121.892 289.981 121.898Z"
        fill="#263238" />
    <path opacity="0.6"
        d="M289.981 121.898H286.591C287.249 121.885 287.903 122.002 288.516 122.242C289.128 122.483 289.688 122.841 290.162 123.298C290.636 123.754 291.015 124.3 291.279 124.903C291.542 125.506 291.684 126.155 291.696 126.813C291.71 127.039 291.71 127.265 291.696 127.491L282.048 237.497C281.899 239.007 281.199 240.41 280.083 241.439C278.967 242.468 277.511 243.051 275.994 243.077H279.384C280.901 243.049 282.356 242.466 283.472 241.437C284.588 240.409 285.287 239.007 285.438 237.497L295.059 127.464C295.132 126.809 295.074 126.147 294.891 125.515C294.707 124.882 294.401 124.292 293.989 123.779C293.577 123.265 293.068 122.837 292.491 122.52C291.913 122.203 291.279 122.003 290.625 121.931C290.411 121.903 290.196 121.892 289.981 121.898Z"
        fill="white" />
    <path
        d="M209.258 188.281C208.942 191.37 207.505 194.237 205.219 196.34C202.933 198.442 199.956 199.635 196.851 199.691C195.39 199.715 193.942 199.428 192.601 198.85C191.26 198.271 190.058 197.413 189.074 196.334C188.091 195.254 187.348 193.978 186.895 192.59C186.443 191.201 186.291 189.732 186.45 188.281C186.766 185.191 188.203 182.324 190.489 180.221C192.775 178.119 195.752 176.927 198.857 176.87L199.373 171.039C189.847 171.039 181.453 178.755 180.619 188.281C179.785 197.807 186.83 205.522 196.356 205.522C205.882 205.522 214.248 197.8 215.089 188.281H209.258Z"
        fill="#219BBA" />
    <path
        d="M217.136 185.772C217.97 176.246 210.926 168.53 201.4 168.53L200.892 174.361C202.353 174.334 203.804 174.619 205.147 175.197C206.49 175.774 207.694 176.632 208.679 177.711C209.665 178.791 210.409 180.069 210.862 181.458C211.315 182.848 211.466 184.319 211.306 185.772H217.136Z"
        fill="#219BBA" />
    <path opacity="0.3"
        d="M217.136 185.772C217.97 176.246 210.926 168.53 201.4 168.53L200.892 174.361C202.353 174.334 203.804 174.619 205.147 175.197C206.49 175.774 207.694 176.632 208.679 177.711C209.665 178.791 210.409 180.069 210.862 181.458C211.315 182.848 211.466 184.319 211.306 185.772H217.136Z"
        fill="black" />
    <path
        d="M202.851 188.281C202.707 189.687 202.053 190.992 201.012 191.949C199.972 192.906 198.617 193.448 197.203 193.474C196.538 193.487 195.877 193.357 195.265 193.095C194.654 192.832 194.105 192.442 193.656 191.95C193.207 191.459 192.868 190.877 192.661 190.245C192.454 189.612 192.385 188.942 192.457 188.281C192.595 186.868 193.247 185.556 194.29 184.593C195.333 183.631 196.693 183.085 198.112 183.06L198.342 180.402C196.208 180.451 194.165 181.28 192.599 182.731C191.033 184.182 190.051 186.156 189.84 188.281C189.731 189.28 189.836 190.291 190.148 191.246C190.461 192.202 190.973 193.08 191.651 193.822C192.329 194.564 193.157 195.153 194.081 195.551C195.004 195.948 196.001 196.143 197.007 196.125C199.136 196.078 201.174 195.255 202.739 193.81C204.303 192.366 205.286 190.399 205.502 188.281H202.851Z"
        fill="#219BBA" />
    <path opacity="0.3"
        d="M202.851 188.281C202.707 189.687 202.053 190.992 201.012 191.949C199.972 192.906 198.617 193.448 197.203 193.474C196.538 193.487 195.877 193.357 195.265 193.095C194.654 192.832 194.105 192.442 193.656 191.95C193.207 191.459 192.868 190.877 192.661 190.245C192.454 189.612 192.385 188.942 192.457 188.281C192.595 186.868 193.247 185.556 194.29 184.593C195.333 183.631 196.693 183.085 198.112 183.06L198.342 180.402C196.208 180.451 194.165 181.28 192.599 182.731C191.033 184.182 190.051 186.156 189.84 188.281C189.731 189.28 189.836 190.291 190.148 191.246C190.461 192.202 190.973 193.08 191.651 193.822C192.329 194.564 193.157 195.153 194.081 195.551C195.004 195.948 196.001 196.143 197.007 196.125C199.136 196.078 201.174 195.255 202.739 193.81C204.303 192.366 205.286 190.399 205.502 188.281H202.851Z"
        fill="black" />
    <path
        d="M206.438 187.128C206.546 186.129 206.441 185.118 206.129 184.162C205.817 183.207 205.305 182.329 204.627 181.586C203.949 180.844 203.12 180.255 202.197 179.858C201.274 179.461 200.276 179.265 199.271 179.284L199.041 181.935C199.706 181.922 200.367 182.051 200.978 182.314C201.59 182.577 202.139 182.967 202.588 183.458C203.037 183.95 203.376 184.531 203.583 185.164C203.789 185.797 203.859 186.466 203.787 187.128H206.438Z"
        fill="#219BBA" />
    <path
        d="M240.012 197.257H226.316C226.197 197.259 226.078 197.235 225.968 197.188C225.858 197.14 225.76 197.07 225.679 196.981C225.598 196.893 225.537 196.788 225.5 196.675C225.463 196.561 225.45 196.441 225.462 196.322C225.489 196.069 225.606 195.834 225.794 195.662C225.981 195.489 226.225 195.391 226.479 195.386H240.202C240.321 195.384 240.44 195.408 240.549 195.456C240.659 195.503 240.757 195.574 240.837 195.662C240.917 195.751 240.978 195.855 241.014 195.969C241.051 196.083 241.063 196.203 241.049 196.322C241.024 196.579 240.904 196.817 240.712 196.99C240.52 197.163 240.27 197.259 240.012 197.257Z"
        fill="#263238" />
    <path
        d="M236.263 200.939H225.991C225.872 200.941 225.753 200.917 225.644 200.869C225.534 200.822 225.436 200.751 225.356 200.663C225.276 200.574 225.215 200.469 225.179 200.356C225.142 200.242 225.13 200.122 225.144 200.003C225.169 199.75 225.286 199.514 225.474 199.341C225.661 199.169 225.906 199.071 226.161 199.068H236.425C236.548 199.062 236.67 199.083 236.783 199.129C236.897 199.175 236.999 199.246 237.082 199.335C237.165 199.425 237.228 199.532 237.266 199.649C237.303 199.765 237.315 199.888 237.3 200.01C237.273 200.266 237.152 200.503 236.96 200.674C236.769 200.846 236.52 200.94 236.263 200.939Z"
        fill="#263238" />
    <path
        d="M156.422 198.803H170.137C170.391 198.8 170.635 198.703 170.822 198.532C171.01 198.361 171.128 198.127 171.154 197.874C171.169 197.755 171.158 197.635 171.122 197.521C171.086 197.406 171.025 197.301 170.945 197.212C170.864 197.124 170.766 197.053 170.656 197.006C170.546 196.959 170.427 196.936 170.307 196.939H156.618C156.363 196.942 156.119 197.04 155.931 197.212C155.744 197.385 155.626 197.621 155.601 197.874C155.588 197.99 155.599 198.108 155.634 198.219C155.669 198.331 155.727 198.434 155.805 198.521C155.882 198.609 155.977 198.679 156.083 198.728C156.189 198.776 156.305 198.802 156.422 198.803Z"
        fill="#263238" />
    <path
        d="M159.54 202.485H169.812C170.066 202.479 170.31 202.381 170.497 202.209C170.684 202.037 170.802 201.802 170.829 201.549C170.842 201.43 170.83 201.309 170.793 201.195C170.756 201.081 170.695 200.976 170.614 200.887C170.533 200.798 170.434 200.728 170.324 200.681C170.214 200.634 170.094 200.611 169.974 200.613H159.71C159.454 200.617 159.209 200.714 159.02 200.887C158.831 201.059 158.712 201.295 158.686 201.549C158.673 201.668 158.686 201.788 158.724 201.902C158.761 202.016 158.822 202.12 158.903 202.209C158.983 202.297 159.082 202.367 159.192 202.415C159.302 202.463 159.42 202.486 159.54 202.485Z"
        fill="#263238" />
    <path
        d="M222.893 196.857H218.221L207.624 185.25H204.214L204.302 184.267H208.119L218.709 195.881H222.981L222.893 196.857Z"
        fill="#263238" />
    <path
        d="M172.829 198.898H177.5L188.097 187.284H191.508L191.426 186.308H187.602L177.012 197.915H172.741L172.829 198.898Z"
        fill="#263238" />
    <path opacity="0.1" d="M167.147 139.349H142.339L142.753 134.617H167.561L167.147 139.349Z"
        fill="black" />
    <path opacity="0.1" d="M166.32 148.807H141.512L141.926 144.075H166.734L166.32 148.807Z"
        fill="black" />
    <path opacity="0.1" d="M165.493 158.266H140.685L141.099 153.533H165.907L165.493 158.266Z"
        fill="black" />
    <path opacity="0.2" d="M166.734 144.075H141.926L142.339 139.349H167.147L166.734 144.075Z"
        fill="white" />
    <path opacity="0.2" d="M165.907 153.533H141.099L141.512 148.807H166.32L165.907 153.533Z"
        fill="white" />
    <path
        d="M156.388 157.723C153.066 157.723 152.51 152.136 151.926 146.197C151.384 140.773 150.821 135.098 147.913 135.098C145.533 135.098 142.807 143.112 141.96 146.197L141.479 146.109C142.026 144.179 142.678 142.28 143.431 140.421C145.024 136.556 146.55 134.597 147.96 134.597C151.282 134.597 151.838 140.19 152.421 146.123C152.964 151.547 153.527 157.221 156.435 157.221C158.754 157.221 161.398 149.607 162.32 146.373C162.339 146.31 162.38 146.255 162.436 146.218C162.492 146.182 162.559 146.168 162.625 146.177C162.657 146.183 162.687 146.196 162.713 146.214C162.739 146.233 162.761 146.256 162.778 146.284C162.794 146.311 162.805 146.342 162.809 146.373C162.813 146.405 162.811 146.438 162.802 146.468C162.268 148.308 161.638 150.118 160.917 151.892C159.33 155.764 157.798 157.723 156.388 157.723Z"
        fill="#219BBA" />
    <path
        d="M144.943 155.147C142.421 155.147 141.553 147.187 141.465 146.278L141.967 146.19C142.197 148.543 143.201 154.645 144.984 154.645C146.767 154.645 147.804 151.004 148.767 147.485C149.838 143.594 150.848 139.919 153.079 139.919C154.957 139.919 155.262 142.963 155.581 146.19C155.866 149.072 156.164 152.048 157.615 152.048C159.066 152.048 159.893 149.072 160.686 146.19C161.568 142.963 162.401 139.919 164.28 139.919C165.107 139.919 165.758 140.97 166.266 143.126C166.477 144.055 166.64 144.994 166.754 145.939C166.76 146.007 166.741 146.075 166.699 146.129C166.658 146.183 166.598 146.219 166.531 146.231C166.5 146.238 166.468 146.238 166.437 146.232C166.406 146.225 166.376 146.212 166.351 146.194C166.325 146.175 166.304 146.151 166.288 146.124C166.272 146.096 166.262 146.066 166.259 146.034C166.002 143.77 165.263 140.421 164.225 140.421C162.761 140.421 161.947 143.397 161.154 146.278C160.273 149.506 159.432 152.55 157.554 152.55C155.676 152.55 155.377 149.506 155.059 146.278C154.767 143.397 154.476 140.421 153.025 140.421C151.201 140.421 150.204 144.061 149.242 147.58C148.184 151.472 147.174 155.147 144.943 155.147Z"
        fill="#219BBA" />
    <g opacity="0.5">
        <path
            d="M144.943 155.147C142.421 155.147 141.553 147.187 141.465 146.278L141.967 146.19C142.197 148.543 143.201 154.645 144.984 154.645C146.767 154.645 147.804 151.004 148.767 147.485C149.838 143.594 150.848 139.919 153.079 139.919C154.957 139.919 155.262 142.963 155.581 146.19C155.866 149.072 156.164 152.048 157.615 152.048C159.066 152.048 159.893 149.072 160.686 146.19C161.568 142.963 162.401 139.919 164.28 139.919C165.107 139.919 165.758 140.97 166.266 143.126C166.477 144.055 166.64 144.994 166.754 145.939C166.76 146.007 166.741 146.075 166.699 146.129C166.658 146.183 166.598 146.219 166.531 146.231C166.5 146.238 166.468 146.238 166.437 146.232C166.406 146.225 166.376 146.212 166.351 146.194C166.325 146.175 166.304 146.151 166.288 146.124C166.272 146.096 166.262 146.066 166.259 146.034C166.002 143.77 165.263 140.421 164.225 140.421C162.761 140.421 161.947 143.397 161.154 146.278C160.273 149.506 159.432 152.55 157.554 152.55C155.676 152.55 155.377 149.506 155.059 146.278C154.767 143.397 154.476 140.421 153.025 140.421C151.201 140.421 150.204 144.061 149.242 147.58C148.184 151.472 147.174 155.147 144.943 155.147Z"
            fill="black" />
    </g>
    <path
        d="M165.656 158.74H140.346L142.455 134.922C142.461 134.847 142.496 134.777 142.551 134.726C142.606 134.675 142.678 134.645 142.753 134.644C142.789 134.643 142.824 134.649 142.857 134.663C142.89 134.677 142.92 134.698 142.943 134.724C142.967 134.751 142.985 134.782 142.996 134.816C143.006 134.851 143.009 134.887 143.004 134.922L140.97 158.218H165.703C165.739 158.218 165.774 158.225 165.806 158.239C165.838 158.254 165.867 158.275 165.891 158.301C165.915 158.327 165.933 158.358 165.944 158.392C165.954 158.425 165.958 158.461 165.954 158.496C165.94 158.565 165.903 158.627 165.849 158.671C165.794 158.716 165.726 158.74 165.656 158.74Z"
        fill="#263238" />
    <path
        d="M222.621 135.647H182.619L181.941 143.519L181.88 144.197L181.25 151.418L181.196 152.096L180.518 159.967H228.391L229.069 152.096L229.123 151.418L229.761 144.197L229.815 143.519L230.493 135.647H222.621ZM214.689 136.325H221.909L221.279 143.546H214.058L214.689 136.325ZM220.587 151.418H213.373L214.004 144.197H221.225L220.587 151.418ZM190.389 144.197H197.61L196.979 151.418H189.759L190.389 144.197ZM198.261 144.197H205.482L204.851 151.418H197.63L198.261 144.197ZM206.132 144.197H213.353L212.723 151.418H205.502L206.132 144.197ZM206.81 136.325H214.024L213.394 143.546H206.193L206.81 136.325ZM198.939 136.325H206.16L205.522 143.546H198.322L198.939 136.325ZM191.067 136.325H198.288L197.657 143.546H190.45L191.067 136.325ZM183.196 136.325H190.416L189.786 143.546H182.579L183.196 136.325ZM182.518 144.197H189.732L189.101 151.418H181.887L182.518 144.197ZM188.416 159.289H181.202L181.833 152.069H189.054L188.416 159.289ZM196.281 159.289H189.074L189.704 152.069H196.925L196.281 159.289ZM204.153 159.289H196.946L197.576 152.069H204.79L204.153 159.289ZM212.024 159.289H204.81L205.448 152.069H212.662L212.024 159.289ZM219.896 159.289H212.682L213.312 152.069H220.533L219.896 159.289ZM227.767 159.289H220.553L221.184 152.069H228.405L227.767 159.289ZM228.445 151.418H221.245L221.876 144.197H229.09L228.445 151.418ZM221.916 143.546L222.547 136.325H229.768L229.164 143.519L221.916 143.546Z"
        fill="#219BBA" />
    <path d="M190.457 159.588H185.338L186.151 150.319H191.264L190.457 159.588Z" fill="#219BBA" />
    <path d="M198.328 159.588H193.209L194.24 147.784H199.359L198.328 159.588Z" fill="#263238" />
    <path d="M206.58 159.588H201.468L202.498 147.784H207.617L206.58 159.588Z" fill="#219BBA" />
    <path d="M214.065 159.588H208.946L210.553 141.282H215.672L214.065 159.588Z" fill="#263238" />
    <path d="M221.937 159.588H216.818L218.54 139.912H223.659L221.937 159.588Z" fill="#219BBA" />
    <path opacity="0.2" d="M190.457 159.588H185.338L186.151 150.319H191.264L190.457 159.588Z"
        fill="black" />
    <path opacity="0.2" d="M206.58 159.588H201.468L202.498 147.784H207.617L206.58 159.588Z"
        fill="black" />
    <path opacity="0.2" d="M221.937 159.588H216.818L218.54 139.912H223.659L221.937 159.588Z"
        fill="black" />
    <path
        d="M261.206 222.242C263.668 203.102 266.102 182.558 266.102 182.558L246.44 182.436C246.44 182.436 244.622 203.861 243.192 222.242H261.206Z"
        fill="#263238" />
    <path opacity="0.6"
        d="M261.898 222.242C262.765 215.123 263.627 207.807 264.372 201.42C264.549 198.756 264.711 196.166 264.874 193.711C263.376 190.247 260.44 188.335 258.386 196.335C256.341 204.84 256.255 213.699 258.135 222.242H261.898Z"
        fill="black" />
    <path
        d="M277.614 222.242C276.712 203.427 275.735 182.158 275.735 182.158H256.751C256.751 182.158 258.399 204.112 260.141 222.242H277.614Z"
        fill="#263238" />
    <path
        d="M244.581 137.39C243.225 140.495 241.714 143.736 240.107 146.733C239.307 148.251 238.446 149.709 237.551 151.072C236.765 152.307 235.837 153.445 234.784 154.462C234.604 154.63 234.411 154.784 234.208 154.923C234.117 154.972 234.031 155.029 233.95 155.092C233.95 155.092 234.045 155.133 233.95 155.147C233.813 155.148 233.677 155.12 233.55 155.065C233.002 154.835 232.492 154.522 232.038 154.136C231.443 153.654 230.879 153.133 230.35 152.577C228.054 150.034 225.961 147.313 224.092 144.441L220.607 146.062C221.789 149.729 223.49 153.209 225.659 156.394C226.258 157.255 226.922 158.068 227.645 158.828C228.481 159.716 229.443 160.477 230.499 161.086C231.171 161.466 231.896 161.745 232.649 161.913C233.541 162.109 234.463 162.123 235.361 161.954C236.794 161.635 238.135 160.99 239.28 160.069C240.944 158.704 242.417 157.122 243.659 155.364C244.812 153.806 245.881 152.188 246.86 150.516C247.802 148.862 248.69 147.201 249.49 145.499C250.29 143.797 251.063 142.109 251.775 140.305L244.581 137.39Z"
        fill="#CE7A63" />
    <path
        d="M235.476 150.584L244.175 157.072C244.175 157.072 244.507 156.706 245.056 156.069C245.463 155.601 245.978 154.984 246.582 154.252C249.972 150.136 254.901 142.624 254.941 138.943C255.002 133.458 249.3 132.651 242.914 138.265C240.154 140.685 238.717 144.699 237.313 147.194C236.846 148.014 236.459 148.733 236.154 149.289C235.72 150.102 235.476 150.584 235.476 150.584Z"
        fill="#219BBA" />
    <path opacity="0.3"
        d="M254.996 139.58C253.029 138.278 251.606 141.614 247.714 144.482C245.985 145.75 242.188 154.008 242.5 155.825L244.175 157.072C244.175 157.072 255.043 145.045 254.996 139.58Z"
        fill="black" />
    <path
        d="M221.577 147.384L216.601 143.444L221.726 140.149C221.726 140.149 225.794 144.583 224.689 146.109L221.577 147.384Z"
        fill="#CE7A63" />
    <path d="M235.476 149.736L244.982 156.848L243.795 158.082L234.75 151.404L235.476 149.736Z"
        fill="#219BBA" />
    <path opacity="0.2"
        d="M235.476 149.736L244.982 156.848L243.795 158.082L234.75 151.404L235.476 149.736Z"
        fill="black" />
    <path
        d="M246.337 182.436H275.769C275.973 179.812 275.369 171.256 275.817 160.367C276.097 152.297 277.077 144.267 278.746 136.366C278.875 135.769 279.01 135.186 279.153 134.59C279.153 134.59 277.661 134.285 275.525 133.973C273.749 133.715 271.518 133.451 269.342 133.342C265.176 133.108 260.999 133.108 256.833 133.342C254.907 133.525 253.029 133.844 251.531 134.129C249.619 134.515 248.487 134.847 248.487 134.847C248.487 134.847 241.239 151.492 246.337 182.436Z"
        fill="#219BBA" />
    <path d="M216.295 137.783L220.452 136.414L221.726 140.149L216.601 143.444L216.295 137.783Z"
        fill="#CE7A63" />
    <path
        d="M282.475 141.438C283.302 143.139 283.967 144.76 284.645 146.448C285.323 148.136 285.919 149.838 286.475 151.587C287.042 153.369 287.515 155.18 287.892 157.011C288.32 159 288.52 161.031 288.489 163.066C288.449 164.356 288.192 165.63 287.73 166.835C287.411 167.632 286.952 168.365 286.374 168.998C285.719 169.704 284.912 170.251 284.014 170.598C282.59 171.096 281.051 171.166 279.587 170.802C278.509 170.553 277.466 170.173 276.482 169.669C274.766 168.797 273.15 167.743 271.661 166.524C270.936 165.947 270.244 165.344 269.58 164.713C268.915 164.083 268.271 163.466 267.62 162.754L270.081 159.805C272.846 161.492 275.774 162.896 278.821 163.995C279.431 164.189 280.061 164.318 280.699 164.381C281.228 164.429 281.553 164.279 281.411 164.259C281.32 164.272 281.234 164.307 281.16 164.361C281.092 164.401 281.099 164.395 281.126 164.286C281.212 163.84 281.244 163.384 281.221 162.93C281.153 161.484 280.925 160.049 280.543 158.652C280.17 157.126 279.682 155.567 279.139 154.014C278.075 150.916 276.787 147.729 275.478 144.753L282.475 141.438Z"
        fill="#CE7A63" />
    <path
        d="M271.308 160.761L266.664 156.448L264.183 162.042C264.183 162.042 269.193 165.391 270.529 164.076L271.308 160.761Z"
        fill="#CE7A63" />
    <path d="M261.017 157.004L260.298 161.323L264.183 162.015L266.664 156.448L261.017 157.004Z"
        fill="#CE7A63" />
    <path opacity="0.3"
        d="M275.817 160.374C276.097 152.302 277.077 144.269 278.746 136.366C276.78 136.197 273.417 136.366 272.861 139.566C272.258 142.983 273.017 151.011 275.817 160.374Z"
        fill="black" />
    <path
        d="M272.129 144.041C273.329 147.786 274.751 151.456 276.387 155.031C276.739 155.838 277.065 156.55 277.336 157.133C277.804 158.15 278.102 158.767 278.102 158.767L289.113 153.153C289.113 153.153 288.991 152.692 288.774 151.919C288.611 151.336 288.387 150.563 288.096 149.696C286.475 144.502 283.112 135.22 279.526 134.569C274.183 133.6 270.169 137.498 272.129 144.041Z"
        fill="#219BBA" />
    <path
        d="M262.135 137.478C269.396 137.281 270.488 133.729 270.535 133.573L270.583 133.417L269.342 133.342C265.176 133.108 260.999 133.108 256.833 133.342L256.155 133.417C255.851 133.67 255.616 133.996 255.474 134.365C255.331 134.734 255.286 135.134 255.341 135.525C255.66 136.766 257.375 137.18 258.847 137.356L262.135 137.478Z"
        fill="white" />
    <path d="M288.855 151.174L276.82 157.33L278.183 158.998L289.37 153.187L288.855 151.174Z"
        fill="#219BBA" />
    <path opacity="0.2"
        d="M288.855 151.174L276.82 157.33L278.183 158.998L289.37 153.187L288.855 151.174Z"
        fill="black" />
    <path
        d="M263.932 141.234L260.352 138L256.006 141.024C256.006 141.024 251.477 136.732 254.84 133.566C255.518 133.478 256.155 133.396 256.833 133.329C260.999 133.095 265.176 133.095 269.342 133.329C270.196 133.369 271.051 133.444 271.891 133.525C271.64 134.752 270.359 138.746 263.932 141.234Z"
        fill="#219BBA" />
    <path opacity="0.2"
        d="M263.932 141.234L260.352 138L256.006 141.024C256.006 141.024 251.477 136.732 254.84 133.566C255.518 133.478 256.155 133.396 256.833 133.329C260.999 133.095 265.176 133.095 269.342 133.329C270.196 133.369 271.051 133.444 271.891 133.525C271.64 134.752 270.359 138.746 263.932 141.234Z"
        fill="black" />
    <path
        d="M261.897 136.746C268.894 136.617 269.823 133.356 269.823 133.356C267.111 130.644 268.142 123.328 269.071 119.294L265.721 122.074L261.165 125.857C261.301 126.465 261.398 127.081 261.457 127.701C261.701 130.169 261.064 132.447 257.429 133.281C257.429 133.281 253.111 136.136 259.518 136.671L261.897 136.746Z"
        fill="#CE7A63" />
    <path opacity="0.2"
        d="M261.166 125.877C261.301 126.485 261.399 127.101 261.457 127.722C263.159 127.376 265.43 125.566 265.667 123.83C265.751 123.255 265.769 122.673 265.722 122.094L261.166 125.877Z"
        fill="black" />
    <path
        d="M270.454 113.518C269.288 118.867 268.881 122.054 265.708 124.494C264.689 125.302 263.469 125.814 262.18 125.978C260.891 126.141 259.581 125.948 258.394 125.42C257.206 124.892 256.186 124.049 255.443 122.982C254.701 121.915 254.265 120.666 254.182 119.369C253.768 114.385 255.741 106.487 261.369 104.961C262.58 104.596 263.867 104.556 265.098 104.846C266.33 105.136 267.464 105.745 268.385 106.613C269.306 107.481 269.982 108.576 270.345 109.788C270.709 111 270.746 112.286 270.454 113.518Z"
        fill="#CE7A63" />
    <path
        d="M262.013 114.053C261.945 114.487 261.654 114.819 261.369 114.785C261.084 114.751 260.901 114.365 260.969 113.924C261.037 113.484 261.321 113.158 261.613 113.192C261.904 113.226 262.081 113.612 262.013 114.053Z"
        fill="#263238" />
    <path
        d="M257.03 113.456C256.962 113.897 256.67 114.223 256.352 114.189C256.033 114.155 255.884 113.775 255.952 113.334C256.019 112.894 256.304 112.568 256.596 112.602C256.887 112.636 257.097 113.016 257.03 113.456Z"
        fill="#263238" />
    <path
        d="M258.575 113.863C257.833 115.148 256.921 116.327 255.863 117.369C256.541 118.182 257.897 118.013 257.897 118.013L258.575 113.863Z"
        fill="#BA4D3C" />
    <path
        d="M263.796 112.629C263.841 112.632 263.886 112.62 263.925 112.595C263.984 112.561 264.028 112.505 264.047 112.44C264.066 112.374 264.058 112.303 264.026 112.243C263.838 111.873 263.561 111.556 263.22 111.32C262.88 111.083 262.486 110.934 262.074 110.887C262.005 110.885 261.938 110.91 261.887 110.957C261.836 111.004 261.806 111.069 261.803 111.138C261.801 111.172 261.806 111.207 261.818 111.239C261.829 111.271 261.847 111.301 261.871 111.326C261.894 111.352 261.922 111.372 261.954 111.386C261.985 111.4 262.019 111.408 262.053 111.409C262.372 111.452 262.675 111.569 262.939 111.752C263.203 111.935 263.42 112.177 263.572 112.46C263.589 112.507 263.619 112.548 263.659 112.578C263.699 112.608 263.746 112.626 263.796 112.629Z"
        fill="#263238" />
    <path
        d="M255.151 111.497C255.194 111.496 255.236 111.485 255.274 111.465C255.311 111.445 255.344 111.417 255.368 111.382C255.548 111.102 255.79 110.867 256.074 110.694C256.358 110.521 256.678 110.416 257.009 110.385C257.044 110.386 257.079 110.38 257.111 110.367C257.144 110.354 257.174 110.335 257.198 110.31C257.223 110.285 257.242 110.256 257.255 110.223C257.268 110.191 257.275 110.156 257.274 110.121C257.272 110.052 257.243 109.986 257.194 109.938C257.144 109.89 257.078 109.863 257.009 109.863C256.592 109.894 256.188 110.021 255.828 110.234C255.468 110.446 255.162 110.74 254.935 111.09C254.915 111.118 254.902 111.15 254.895 111.183C254.888 111.216 254.887 111.251 254.894 111.284C254.9 111.317 254.913 111.349 254.931 111.378C254.95 111.406 254.974 111.431 255.002 111.45C255.045 111.481 255.098 111.498 255.151 111.497Z"
        fill="#263238" />
    <path
        d="M256.447 119.464C256.447 119.464 258.081 119.043 262.684 118.921C262.183 120.318 261.206 121.477 258.847 121.518C258.552 121.553 258.253 121.526 257.969 121.44C257.685 121.354 257.422 121.209 257.197 121.016C256.971 120.823 256.788 120.586 256.659 120.319C256.53 120.051 256.458 119.76 256.447 119.464Z"
        fill="#263238" />
    <path
        d="M259.911 120.399C259.005 120.37 258.112 120.628 257.362 121.138C257.806 121.414 258.325 121.545 258.847 121.511C259.751 121.544 260.643 121.285 261.389 120.772C260.948 120.496 260.431 120.366 259.911 120.399Z"
        fill="#A02724" />
    <path
        d="M256.657 119.423C256.705 119.593 256.8 119.747 256.93 119.867C257.061 119.986 257.222 120.067 257.396 120.101C258.762 120.064 260.123 119.912 261.464 119.647C261.677 119.627 261.882 119.554 262.061 119.436C262.239 119.318 262.386 119.157 262.488 118.969C260.535 118.967 258.585 119.118 256.657 119.423Z"
        fill="white" />
    <path
        d="M267.396 109.517C266.407 108.5 266.122 107.266 262.027 107.632C257.932 107.999 253.613 111.151 253.694 107.632C253.694 106.819 254.413 107.768 255.762 106.005C255.762 106.005 252.06 107.68 253.219 105.327C254.148 103.429 255.199 106.344 259.938 102.683C264.678 99.0219 270.915 102.324 272.712 107.246C273.644 107.547 274.437 108.174 274.944 109.012C275.451 109.851 275.638 110.844 275.471 111.809C275.051 114.955 270.637 117.274 270.183 121.104C270.115 121.647 270.793 122.528 270.251 122.84C269.939 123.016 269.173 121.877 269.173 121.877C269.065 122.092 268.988 122.32 268.942 122.555C268.834 123.064 269.946 124.379 268.99 124.955C268.447 125.281 268.21 124.311 267.885 122.664C267.747 121.933 267.708 121.188 267.769 120.447C268 117.138 266.413 118.657 266.474 116.555C266.515 115.097 267.681 112.656 268.393 111.3C268.51 111.088 268.539 110.838 268.473 110.604C268.407 110.371 268.252 110.173 268.041 110.053C267.797 109.912 267.579 109.731 267.396 109.517Z"
        fill="#263238" />
    <path
        d="M271.688 119.104C270.823 120.149 269.627 120.867 268.298 121.138C266.61 121.423 266.264 119.864 267.084 118.352C267.857 116.996 269.667 115.206 271.152 115.64C272.637 116.074 272.779 117.789 271.688 119.104Z"
        fill="#CE7A63" />
    <path
        d="M90.8481 225.153L71.4325 222.893C71.3122 222.879 71.1959 222.842 71.0901 222.783C70.9844 222.724 70.8913 222.644 70.8161 222.549C70.741 222.455 70.6853 222.346 70.6522 222.229C70.6191 222.113 70.6092 221.991 70.6232 221.871L70.7079 221.143L91.0394 223.51L90.8481 225.153Z"
        fill="#263238" />
    <path opacity="0.2"
        d="M90.8481 225.153L71.4325 222.893C71.3122 222.879 71.1959 222.842 71.0901 222.783C70.9844 222.724 70.8913 222.644 70.8161 222.549C70.741 222.455 70.6853 222.346 70.6522 222.229C70.6191 222.113 70.6092 221.991 70.6232 221.871L70.7079 221.143L91.0394 223.51L90.8481 225.153Z"
        fill="white" />
    <path
        d="M102.941 226.596L87.0879 224.75C86.8449 224.722 86.6232 224.599 86.4714 224.407C86.3197 224.215 86.2503 223.971 86.2786 223.728L86.3633 223.001L103.132 224.953L102.941 226.596Z"
        fill="#263238" />
    <path opacity="0.5"
        d="M102.941 226.596L87.0879 224.75C86.8449 224.722 86.6232 224.599 86.4714 224.407C86.3197 224.215 86.2503 223.971 86.2786 223.728L86.3633 223.001L103.132 224.953L102.941 226.596Z"
        fill="white" />
    <path d="M99.2977 225.635L100.941 225.827L101.009 225.241L99.3659 225.049L99.2977 225.635Z"
        fill="#263238" />
    <path d="M96.7303 225.339L98.3735 225.53L98.4417 224.944L96.7985 224.753L96.7303 225.339Z"
        fill="#263238" />
    <path d="M102.032 224.825L103.124 224.947L105.978 210.234L104.887 210.105L102.032 224.825Z"
        fill="#263238" />
    <path opacity="0.3"
        d="M102.032 224.825L103.124 224.947L105.978 210.234L104.887 210.105L102.032 224.825Z"
        fill="white" />
    <path d="M102.432 224.872L83.2314 222.635L86.0926 207.916L105.294 210.153L102.432 224.872Z"
        fill="#219BBA" />
    <path opacity="0.5"
        d="M102.432 224.872L83.2314 222.635L86.0926 207.916L105.294 210.153L102.432 224.872Z"
        fill="white" />
    <path
        d="M63.2373 192.647C62.7085 193.698 62.1254 194.837 61.6033 195.949C61.0813 197.061 60.5524 198.186 60.0778 199.339C59.6032 200.491 59.1354 201.583 58.7218 202.688C58.3438 203.71 58.0556 204.762 57.8608 205.834C57.7919 206.196 57.7601 206.564 57.7658 206.932V207.027V206.973C57.6709 206.837 58.2472 207.509 58.6608 207.8C59.0744 208.092 59.5693 208.39 60.0778 208.675C62.1118 209.827 64.478 210.851 66.7493 211.902L65.9832 215.075C64.6349 214.971 63.2944 214.783 61.9695 214.512C60.6132 214.253 59.2766 213.899 57.9693 213.455C57.2738 213.219 56.5943 212.938 55.9353 212.614C55.1369 212.239 54.3914 211.76 53.7182 211.19C53.2275 210.763 52.8146 210.254 52.4978 209.685C52.4503 209.597 52.4029 209.502 52.3622 209.414L52.2605 209.183C52.1983 209.035 52.144 208.883 52.0978 208.729C52.0086 208.452 51.9384 208.169 51.8876 207.882C51.7344 206.97 51.7025 206.042 51.7927 205.122C51.954 203.639 52.249 202.173 52.6741 200.742C53.0741 199.386 53.5351 198.098 54.0301 196.83C54.525 195.562 55.0606 194.335 55.6437 193.128C56.2268 191.921 56.7963 190.742 57.4947 189.521L63.2373 192.647Z"
        fill="#FFB573" />
    <path
        d="M65.237 212.004L70.1186 210.75L70.5254 215.143C70.5254 215.143 67.2303 216.499 65.2031 214.377L65.237 212.004Z"
        fill="#FFB573" />
    <path d="M72.0916 211.394L73.129 214.933L70.5255 215.143L70.1187 210.75L72.0916 211.394Z"
        fill="#FFB573" />
    <path
        d="M52.8843 197.82L59.8541 201.271C59.8541 201.271 61.644 201.841 64.9391 196.573C68.7563 190.471 66.668 186.999 62.0644 186.837C57.4608 186.674 55.6573 192.484 52.8843 197.82Z"
        fill="#219BBA" />
    <path opacity="0.5"
        d="M52.8843 197.82L59.8541 201.271C59.8541 201.271 61.644 201.841 64.9391 196.573C68.7563 190.471 66.668 186.999 62.0644 186.837C57.4608 186.674 55.6573 192.484 52.8843 197.82Z"
        fill="white" />
    <path opacity="0.2"
        d="M55.4468 199.108L59.4334 201.081L61.4606 198.688L59.2097 192.688L58.5859 191.996L57.0197 191.772L55.4468 199.108Z"
        fill="black" />
    <path d="M52.8296 197.312L60.5452 201.258L59.5147 202.478L52.416 198.857L52.8296 197.312Z"
        fill="#219BBA" />
    <path
        d="M73.6985 171.236C73.929 171.181 74.207 171.385 74.329 171.731C74.4511 172.076 74.3629 172.409 74.1324 172.483C73.9019 172.558 73.6239 172.327 73.5019 171.988C73.3798 171.649 73.4748 171.29 73.6985 171.236Z"
        fill="#2E353A" />
    <path
        d="M74.9327 174.924C75.1899 174.897 75.438 174.814 75.6595 174.68C75.8809 174.547 76.0703 174.366 76.2141 174.151C75.3328 173.615 74.5259 172.965 73.814 172.219L74.9327 174.924Z"
        fill="#ED893E" />
    <path
        d="M72.1732 170.707C72.2151 170.446 72.318 170.199 72.4735 169.986C72.6291 169.773 72.8328 169.599 73.0681 169.48C73.1132 169.458 73.1488 169.42 73.1687 169.374C73.1886 169.328 73.1914 169.277 73.1766 169.229C73.1594 169.176 73.1223 169.131 73.073 169.104C73.0238 169.078 72.9661 169.071 72.9122 169.086C72.6072 169.229 72.3422 169.444 72.1411 169.714C71.9399 169.984 71.8088 170.299 71.7596 170.632C71.7548 170.659 71.7553 170.686 71.7613 170.713C71.7672 170.74 71.7784 170.765 71.7942 170.787C71.81 170.809 71.8301 170.828 71.8533 170.842C71.8764 170.856 71.9022 170.865 71.9291 170.87H72.0376C72.0722 170.856 72.1028 170.834 72.1266 170.806C72.1503 170.777 72.1664 170.743 72.1732 170.707Z"
        fill="#2E353A" />
    <path
        d="M63.6778 187.399C63.4405 188.437 63.2845 188.931 64.2202 189.386C66.1442 190.391 68.3395 190.755 70.4849 190.423C72.702 190.043 73.102 189.25 73.0071 188.613C72.931 188.368 72.7989 188.144 72.6211 187.959C72.4434 187.775 72.225 187.634 71.9833 187.548C71.4915 187.335 71.0739 186.982 70.7831 186.532C70.4923 186.081 70.3413 185.555 70.3493 185.019C70.2415 184.45 70.2415 183.866 70.3493 183.297L66.444 180.673L63.4473 177.338C64.1835 180.644 64.2619 184.063 63.6778 187.399Z"
        fill="#FFB573" />
    <path
        d="M76.16 189.718C76.16 189.718 74.6888 185.65 72.3158 184.742C69.9428 183.833 62.8238 184.328 62.8238 184.328C62.4779 185.788 62.0247 187.22 61.4678 188.613L76.16 189.718Z"
        fill="#219BBA" />
    <path
        d="M61.5897 172.89C61.6393 171.289 62.3228 169.773 63.49 168.676C64.6572 167.578 66.2125 166.99 67.8137 167.039C72.4038 167.202 75.0886 173.1 75.5022 177.121C75.9565 181.589 71.563 185.325 67.3662 183.291C64.5661 181.935 63.7864 179.507 62.0982 175.48C61.7417 174.664 61.5682 173.78 61.5897 172.89Z"
        fill="#FFB573" />
    <path opacity="0.2"
        d="M62.3288 186.091C62.0711 186.945 61.7864 187.786 61.4609 188.613L75.0209 189.637C74.6888 188.831 74.2681 188.065 73.7666 187.352C70.5122 186.03 64.7696 186.023 62.3288 186.091Z"
        fill="black" />
    <path d="M107.131 262.962L111.273 261.172L114.46 271.146L110.317 272.942L107.131 262.962Z"
        fill="#FFB573" />
    <path opacity="0.2"
        d="M107.131 262.962L111.273 261.172L112.867 266.156L108.677 267.803L107.131 262.962Z"
        fill="black" />
    <path
        d="M114.921 269.397C116.162 270.434 118.691 271.186 120.63 271.295C122.122 271.376 122.25 273.085 120.379 273.403C118.508 273.722 115.247 273.566 113.877 273.627C111.653 273.709 110.901 274.075 109.131 274.048C108.921 274.037 108.723 273.945 108.58 273.79C108.436 273.635 108.359 273.431 108.365 273.22L108.738 269.227C108.745 269.142 108.785 269.063 108.85 269.007C108.914 268.951 108.998 268.923 109.084 268.929L114.142 269.091C114.429 269.101 114.704 269.209 114.921 269.397Z"
        fill="#219BBA" />
    <path
        d="M69.2916 221.794C69.2916 221.794 65.8135 225.916 68.6136 232.446C71.7799 239.843 88.5807 236.595 97.7676 238.954C99.0761 252.019 106.704 265.396 106.704 265.396L113.077 262.901C113.077 262.901 110.317 252.494 108.243 234.059C107.226 224.988 84.2076 223.998 84.2076 223.998L69.2916 221.794Z"
        fill="#219BBA" />
    <path d="M105.429 264.244L113.552 261.41L114.04 264.379L106.643 267.064L105.429 264.244Z"
        fill="#219BBA" />
    <path d="M87.5165 267.24L91.9913 267.03L91.259 277.58L86.791 277.797L87.5165 267.24Z"
        fill="#FFB573" />
    <path
        d="M92.479 276.475C93.7198 277.505 95.808 278.943 97.7268 279.221C98.9607 279.397 99.8896 281.255 97.5776 281.255C95.2656 281.255 92.8316 281.038 91.4282 280.99C89.2043 280.923 88.4653 281.119 86.6821 281.119C86.4711 281.11 86.2721 281.018 86.1286 280.863C85.9851 280.708 85.9087 280.503 85.916 280.292L86.2821 276.299C86.2907 276.214 86.3313 276.136 86.3956 276.081C86.4599 276.025 86.5431 275.996 86.6279 276L91.6858 276.156C91.9792 276.167 92.2598 276.279 92.479 276.475Z"
        fill="#219BBA" />
    <path opacity="0.2"
        d="M87.1162 273.064L91.5639 273.071L91.991 267.03L87.5162 267.247L87.1162 273.064Z"
        fill="black" />
    <path
        d="M58.1183 222.513C58.1183 222.513 54.4503 229.971 58.0166 234.717C61.2439 239.049 77.7193 239.334 86.1061 239.334C85.2722 249.552 86.1943 270.522 86.1943 270.522L92.8997 270.427C92.8997 270.427 97.6457 250.25 98.6017 236.134C99.1441 228.289 71.224 223.089 71.224 223.089L58.1183 222.513Z"
        fill="#219BBA" />
    <path d="M85.2651 269.152L94.4792 268.881L94.0791 271.634L85.6177 271.756L85.2651 269.152Z"
        fill="#219BBA" />
    <path
        d="M57.9824 223.577L81.4683 224.052L82.2616 193.142C82.1143 191.456 81.342 189.886 80.0962 188.741C78.8504 187.595 77.2213 186.957 75.529 186.952H61.7995C61.1671 186.947 60.5401 187.069 59.9555 187.31C59.3708 187.551 58.8402 187.907 58.3949 188.356C57.9496 188.805 57.5986 189.339 57.3624 189.925C57.1262 190.512 57.0097 191.14 57.0196 191.772L57.9824 223.577Z"
        fill="#219BBA" />
    <path opacity="0.6"
        d="M57.9824 223.577L81.4683 224.052L82.2616 193.142C82.1143 191.456 81.342 189.886 80.0962 188.741C78.8504 187.595 77.2213 186.957 75.529 186.952H61.7995C61.1671 186.947 60.5401 187.069 59.9555 187.31C59.3708 187.551 58.8402 187.907 58.3949 188.356C57.9496 188.805 57.5986 189.339 57.3624 189.925C57.1262 190.512 57.0097 191.14 57.0196 191.772L57.9824 223.577Z"
        fill="white" />
    <path
        d="M81.9159 192.423L82.3566 194.159C82.5125 194.756 82.6752 195.352 82.8515 195.949C83.2041 197.135 83.5295 198.322 83.9567 199.481C84.3838 200.641 84.7635 201.786 85.2245 202.871C85.667 203.959 86.1718 205.021 86.7365 206.051C86.9989 206.547 87.2862 207.029 87.5975 207.495C87.6768 207.576 87.7742 207.636 87.8815 207.671C87.9887 207.707 88.1029 207.716 88.2145 207.699C88.7257 207.666 89.2335 207.594 89.7332 207.482C92.0973 206.883 94.4152 206.115 96.6692 205.183L98.4116 207.943C97.3653 208.842 96.2575 209.666 95.0962 210.411C93.9033 211.191 92.6414 211.86 91.3265 212.411C90.5957 212.722 89.8376 212.965 89.062 213.136C88.0675 213.367 87.0367 213.395 86.0313 213.217C85.2962 213.079 84.6014 212.777 83.9973 212.336C83.6647 212.095 83.366 211.81 83.1092 211.489L82.7498 211.048C82.2978 210.451 81.8639 209.848 81.4481 209.238C79.9492 206.853 78.7061 204.317 77.7394 201.671C77.2648 200.383 76.8241 199.088 76.4512 197.773C76.2614 197.095 76.0851 196.464 75.9156 195.8C75.7461 195.135 75.5969 194.498 75.4478 193.766L81.9159 192.423Z"
        fill="#FFB573" />
    <path
        d="M97.6318 208.234L102.174 206.044L99.6658 202.43C99.6658 202.43 96.2758 203.508 96.0928 206.444L97.6318 208.234Z"
        fill="#FFB573" />
    <path d="M103.246 204.281L101.754 200.905L99.6323 202.43L102.154 206.044L103.246 204.281Z"
        fill="#FFB573" />
    <path
        d="M77.6379 202.912L84.6416 200.424C84.6416 200.424 85.6383 199.468 83.828 193.542C81.7194 186.633 77.726 185.948 74.6004 189.304C71.4749 192.661 75.4479 197.298 77.6379 202.912Z"
        fill="#219BBA" />
    <path opacity="0.5"
        d="M77.6379 202.912L84.6416 200.424C84.6416 200.424 85.6383 199.468 83.828 193.542C81.7194 186.633 77.726 185.948 74.6004 189.304C71.4749 192.661 75.4479 197.298 77.6379 202.912Z"
        fill="white" />
    <path d="M76.8921 202.302L85.0688 199.427L85.2451 201.013L77.726 203.664L76.8921 202.302Z"
        fill="#219BBA" />
    <path
        d="M64.2881 181.06C65.3711 180.895 66.4775 180.981 67.5221 181.311C67.7133 181.376 67.9214 181.371 68.1091 181.296C68.2968 181.222 68.4517 181.083 68.5459 180.904C69.1493 179.758 70.3494 177.439 70.8104 176.395C70.8104 176.395 72.9326 175.358 71.8749 172.49C70.8172 169.622 70.8104 168.714 70.8104 168.714C70.8104 168.714 74.1055 165.832 70.9799 164.137C67.8544 162.442 69.2849 165.547 65.8407 166.225C62.3965 166.903 58.4912 170.293 59.9082 174.422C60.9523 177.467 62.8507 179.697 63.4202 180.653C63.5069 180.801 63.6362 180.918 63.7911 180.991C63.946 181.064 64.1193 181.088 64.2881 181.06Z"
        fill="#263238" />
    <path
        d="M69.3457 173.324C70.4983 173.148 71.739 174.314 72.1458 175.358C72.6001 176.538 72.0102 177.88 70.7898 177.555C69.8526 177.287 69.0451 176.687 68.5185 175.866C67.8812 174.822 68.1931 173.493 69.3457 173.324Z"
        fill="#FFB573" />
    <path
        d="M67.6714 266.922V241.368H63.6034V266.983L53.2436 269.695C52.3765 269.925 51.6098 270.436 51.0629 271.147C50.516 271.858 50.2196 272.73 50.2197 273.627V274.461C50.2197 274.866 50.3804 275.254 50.6665 275.54C50.9526 275.826 51.3406 275.987 51.7452 275.987C52.1498 275.987 52.5378 275.826 52.8239 275.54C53.11 275.254 53.2707 274.866 53.2707 274.461C53.2688 273.986 53.4249 273.523 53.7146 273.147C54.0043 272.77 54.411 272.5 54.8708 272.38L63.6034 270.075V274.461C63.6034 274.866 63.7642 275.254 64.0503 275.54C64.3363 275.826 64.7244 275.987 65.1289 275.987H66.1392C66.5438 275.987 66.9318 275.826 67.2179 275.54C67.5039 275.254 67.6647 274.866 67.6647 274.461V270.047L76.3566 272.454C76.8269 272.576 77.2421 272.854 77.535 273.241C77.8279 273.629 77.9813 274.104 77.9703 274.59C77.9666 274.994 78.1228 275.383 78.4047 275.673C78.6866 275.962 79.0714 276.129 79.4754 276.136C79.6763 276.139 79.8758 276.102 80.0623 276.027C80.2489 275.952 80.4189 275.842 80.5625 275.701C80.7061 275.561 80.8206 275.393 80.8993 275.208C80.9781 275.023 81.0195 274.825 81.0213 274.624V273.79C81.0313 272.892 80.7442 272.017 80.2046 271.299C79.665 270.582 78.9033 270.063 78.0381 269.824L67.6714 266.922Z"
        fill="#263238" />
    <path
        d="M49.2295 278.828C49.2282 278.338 49.3722 277.859 49.6433 277.451C49.9144 277.043 50.3004 276.725 50.7525 276.536C51.2045 276.348 51.7023 276.298 52.1828 276.393C52.6633 276.488 53.1049 276.723 53.4517 277.068C53.7984 277.414 54.0348 277.855 54.1308 278.335C54.2269 278.816 54.1783 279.314 53.9912 279.766C53.8041 280.219 53.4869 280.606 53.0798 280.878C52.6727 281.15 52.1939 281.295 51.7042 281.295C51.049 281.295 50.4206 281.036 49.9567 280.573C49.4928 280.11 49.2313 279.483 49.2295 278.828Z"
        fill="#219BBA" />
    <path
        d="M77.0547 278.828C77.0534 278.338 77.1974 277.859 77.4685 277.451C77.7396 277.043 78.1256 276.725 78.5777 276.536C79.0297 276.348 79.5275 276.298 80.008 276.393C80.4885 276.488 80.9301 276.723 81.2769 277.068C81.6236 277.414 81.86 277.855 81.956 278.335C82.0521 278.816 82.0035 279.314 81.8164 279.766C81.6293 280.219 81.3121 280.606 80.905 280.878C80.4979 281.15 80.0191 281.295 79.5294 281.295C78.8742 281.295 78.2458 281.036 77.7819 280.573C77.318 280.11 77.0565 279.483 77.0547 278.828Z"
        fill="#219BBA" />
    <path
        d="M63.1421 278.828C63.1408 278.338 63.2848 277.859 63.5559 277.451C63.827 277.043 64.213 276.725 64.6651 276.536C65.1171 276.348 65.6149 276.298 66.0954 276.393C66.5759 276.488 67.0175 276.723 67.3643 277.068C67.711 277.414 67.9474 277.855 68.0434 278.335C68.1395 278.816 68.0909 279.314 67.9038 279.766C67.7167 280.219 67.3995 280.606 66.9924 280.878C66.5853 281.15 66.1065 281.295 65.6168 281.295C64.9616 281.295 64.3332 281.036 63.8693 280.573C63.4054 280.11 63.1439 279.483 63.1421 278.828Z"
        fill="#219BBA" />
    <path opacity="0.6" d="M67.6711 241.388H63.6099V247.158H67.6711V241.388Z" fill="black" />
    <path opacity="0.6" d="M60.5796 270.915L63.1424 270.237V267.125L60.5796 267.803V270.915Z"
        fill="black" />
    <path opacity="0.6" d="M70.6546 267.749L68.085 267.037V270.163L70.6546 270.875V267.749Z"
        fill="black" />
    <path
        d="M68.9526 239.673H93.6251C94.3767 239.673 95.0975 239.972 95.629 240.503C96.1605 241.035 96.4591 241.755 96.4591 242.507H68.9526V239.673Z"
        fill="#219BBA" />
    <path opacity="0.5"
        d="M68.9526 239.673H93.6251C94.3767 239.673 95.0975 239.972 95.629 240.503C96.1605 241.035 96.4591 241.755 96.4591 242.507H68.9526V239.673Z"
        fill="black" />
    <path
        d="M51.4399 203.4C42.7683 203.4 36.5917 209.868 37.046 218.479L38.0358 237.3C38.1105 238.699 38.7188 240.016 39.7355 240.979C40.7521 241.943 42.0997 242.48 43.5005 242.48H78.3497L71.1494 218.479C68.5662 209.895 60.1115 203.4 51.4399 203.4Z"
        fill="#219BBA" />
    <path opacity="0.1"
        d="M51.4399 203.4C42.7683 203.4 36.5917 209.868 37.046 218.479L38.0358 237.3C38.1105 238.699 38.7188 240.016 39.7355 240.979C40.7521 241.943 42.0997 242.48 43.5005 242.48H78.3497L71.1494 218.479C68.5662 209.895 60.1115 203.4 51.4399 203.4Z"
        fill="black" />
    <path opacity="0.3"
        d="M49.6841 203.522C41.9481 204.336 36.6258 210.485 37.0462 218.506L38.0361 237.3C38.1107 238.699 38.719 240.016 39.7357 240.98C40.7524 241.943 42.0999 242.48 43.5008 242.48H74.8379L67.6376 218.479C65.2307 210.478 57.7184 204.322 49.6841 203.522Z"
        fill="black" />
    <path
        d="M82.2687 241.694C82.0161 241.439 81.8744 241.096 81.8744 240.738C81.8744 240.379 82.0161 240.036 82.2687 239.782L89.6521 232.398C89.7595 232.291 89.8327 232.154 89.8624 232.006C89.892 231.857 89.8769 231.703 89.8188 231.562C89.7607 231.422 89.6623 231.302 89.5361 231.218C89.4098 231.134 89.2614 231.089 89.1097 231.09H73.2852C72.9256 231.09 72.5807 230.947 72.3264 230.692C72.0721 230.438 71.9292 230.093 71.9292 229.734C71.9292 229.374 72.0721 229.029 72.3264 228.775C72.5807 228.52 72.9256 228.378 73.2852 228.378H88.9673C89.6164 228.365 90.2568 228.528 90.8211 228.849C91.3854 229.17 91.8528 229.637 92.1743 230.201C92.5316 230.861 92.666 231.618 92.5572 232.36C92.4484 233.101 92.1024 233.788 91.5709 234.317L84.1874 241.694C84.0615 241.82 83.912 241.92 83.7473 241.988C83.5827 242.056 83.4063 242.091 83.2281 242.091C83.0499 242.091 82.8734 242.056 82.7088 241.988C82.5442 241.92 82.3946 241.82 82.2687 241.694Z"
        fill="#263238" />
    <path opacity="0.2"
        d="M92.2082 230.201C91.8867 229.637 91.4193 229.17 90.855 228.849C90.2907 228.528 89.6503 228.365 89.0012 228.378H73.2852C72.9256 228.378 72.5807 228.52 72.3264 228.775C72.0721 229.029 71.9292 229.374 71.9292 229.734C71.9292 230.093 72.0721 230.438 72.3264 230.692C72.5807 230.947 72.9256 231.09 73.2852 231.09H89.1097C89.2331 231.086 89.355 231.117 89.4623 231.178H92.5201C92.4626 230.839 92.3576 230.511 92.2082 230.201Z"
        fill="white" />
    <path
        d="M144.068 222.086H124.522C124.401 222.086 124.281 222.062 124.169 222.016C124.057 221.969 123.955 221.901 123.87 221.816C123.784 221.73 123.716 221.628 123.67 221.516C123.623 221.405 123.6 221.285 123.6 221.164V220.431H144.068V222.086Z"
        fill="#263238" />
    <path opacity="0.2"
        d="M144.068 222.086H124.522C124.401 222.086 124.281 222.062 124.169 222.016C124.057 221.969 123.955 221.901 123.87 221.816C123.784 221.73 123.716 221.628 123.67 221.516C123.623 221.405 123.6 221.285 123.6 221.164V220.431H144.068V222.086Z"
        fill="white" />
    <path
        d="M156.266 222.086H140.306C140.061 222.086 139.826 221.989 139.653 221.816C139.481 221.643 139.383 221.408 139.383 221.164V220.431H156.266V222.086Z"
        fill="#263238" />
    <path opacity="0.5"
        d="M156.266 222.086H140.306C140.061 222.086 139.826 221.989 139.653 221.816C139.481 221.643 139.383 221.408 139.383 221.164V220.431H156.266V222.086Z"
        fill="white" />
    <path d="M152.53 221.55H154.184V220.96H152.53V221.55Z" fill="#263238" />
    <path d="M149.953 221.55H151.607V220.96H149.953V221.55Z" fill="#263238" />
    <path d="M155.147 220.431H156.245L157.384 205.481H156.279L155.147 220.431Z" fill="#263238" />
    <path opacity="0.3" d="M155.147 220.431H156.245L157.384 205.481H156.279L155.147 220.431Z"
        fill="white" />
    <path d="M155.547 220.431H136.217L137.356 205.481H156.686L155.547 220.431Z" fill="#219BBA" />
    <path opacity="0.4" d="M155.547 220.431H136.217L137.356 205.481H156.686L155.547 220.431Z"
        fill="white" />
    <path
        d="M122.813 189.454C122.216 191.576 122.067 193.854 125.118 194.681C125.118 194.681 127.966 198.695 124.549 201.386C122.384 198.537 119.653 196.166 116.528 194.423C118.514 192.647 118.128 187.582 117.667 184.809L122.813 189.454Z"
        fill="#CE7A63" />
    <path
        d="M126.603 178.429C126.834 178.368 127.119 178.585 127.234 178.938C127.349 179.29 127.234 179.663 127.017 179.717C126.8 179.772 126.502 179.568 126.386 179.209C126.271 178.85 126.366 178.483 126.603 178.429Z"
        fill="#2E353A" />
    <path d="M127.281 177.955L126.501 178.477C127.057 178.768 127.281 177.955 127.281 177.955Z"
        fill="#2E353A" />
    <path
        d="M127.464 182.267C127.702 182.25 127.933 182.18 128.141 182.063C128.348 181.946 128.527 181.784 128.664 181.589C127.903 181.065 127.218 180.438 126.63 179.724L127.464 182.267Z"
        fill="#BA4D3C" />
    <path
        d="M125.755 176.09C125.527 176.247 125.34 176.456 125.209 176.7C125.078 176.945 125.007 177.217 125.003 177.494C125.004 177.522 124.999 177.55 124.989 177.577C124.979 177.604 124.964 177.628 124.944 177.649C124.925 177.67 124.901 177.687 124.875 177.698C124.849 177.71 124.821 177.716 124.793 177.717C124.764 177.718 124.736 177.713 124.71 177.703C124.684 177.693 124.66 177.678 124.64 177.658C124.619 177.639 124.603 177.615 124.592 177.589C124.581 177.563 124.576 177.535 124.576 177.507C124.576 177.157 124.661 176.813 124.823 176.502C124.984 176.192 125.218 175.925 125.505 175.724C125.552 175.691 125.61 175.678 125.667 175.687C125.723 175.696 125.775 175.726 125.81 175.771C125.829 175.804 125.84 175.842 125.84 175.88C125.84 175.918 125.829 175.956 125.81 175.988C125.803 176.027 125.784 176.063 125.755 176.09Z"
        fill="#2E353A" />
    <path
        d="M113.314 178.653C113.457 176.998 114.252 175.467 115.524 174.398C116.795 173.329 118.439 172.808 120.094 172.951C124.949 173.31 127.641 179.623 127.966 183.86C128.332 188.572 123.43 191.576 119.01 189.284C116.047 187.752 115.477 185.894 113.769 181.602C113.385 180.669 113.23 179.658 113.314 178.653Z"
        fill="#CE7A63" />
    <path opacity="0.21"
        d="M110.948 184.226C104.588 176.192 112.399 173.88 112.399 173.88C114.846 170.49 118.881 169.812 122.569 171.215C126.257 172.619 125.172 175.114 123.823 175.358C126.345 178.694 124.901 180.355 124.067 180.592C125.389 188.986 117.294 192.26 110.948 184.226Z"
        fill="#263238" />
    <path
        d="M116.541 219.706C115.292 219.546 114.057 219.292 112.846 218.947C112.666 218.886 112.49 218.816 112.317 218.736L112.263 217.848C112.121 215.19 112.067 212.478 112.006 209.76L111.87 201.624H107.178C107.178 204.397 107.232 207.143 107.354 209.902C107.477 212.661 107.639 215.421 107.951 218.214L108.114 219.272L108.195 219.801C108.21 219.965 108.235 220.128 108.27 220.289C108.321 220.444 108.382 220.596 108.453 220.743C108.58 220.989 108.74 221.217 108.927 221.421C109.187 221.691 109.487 221.92 109.816 222.099C110.052 222.233 110.296 222.351 110.548 222.452C110.959 222.608 111.38 222.735 111.809 222.831C113.264 223.128 114.744 223.287 116.23 223.306C119.031 223.371 121.834 223.235 124.616 222.899L124.569 220.601C121.877 220.35 119.158 220.106 116.541 219.706Z"
        fill="#CE7A63" />
    <path
        d="M115.884 200.105C115.884 202.946 114.175 208.241 114.175 208.241L107.124 203.929C106.805 200.288 107.558 195.61 111.05 194.471C113.429 193.705 115.857 197.081 115.884 200.105Z"
        fill="#263238" />
    <path opacity="0.6"
        d="M110.819 198.064L109.199 199.664L108.887 205.014L114.175 208.261C114.175 208.261 115.884 202.946 115.884 200.125C115.867 199.388 115.732 198.657 115.484 197.962L113.05 197.23L110.819 198.064Z"
        fill="black" />
    <path
        d="M131.037 221.862C131.084 221.753 131.109 221.636 131.111 221.517C131.112 221.398 131.09 221.28 131.046 221.17C131.002 221.06 130.937 220.959 130.854 220.875C130.771 220.79 130.672 220.722 130.562 220.675L128.562 219.828C128.132 219.651 127.657 219.618 127.206 219.733L122.853 220.906L122.318 222.377C122.996 224.065 125.877 223.733 125.877 223.733L127.945 224.371C128.207 224.451 128.487 224.451 128.748 224.37C129.009 224.289 129.24 224.131 129.41 223.916L130.922 222.052C130.969 221.995 131.008 221.931 131.037 221.862Z"
        fill="#CE7A63" />
    <path
        d="M127.864 194.403C126.962 194.247 126.013 194.105 125.091 193.996C122.253 193.707 119.398 193.621 116.548 193.739C115.145 193.739 113.768 193.867 112.562 193.996H112.467C111.418 194.136 110.467 194.687 109.824 195.527C109.181 196.367 108.897 197.429 109.036 198.478C110.744 210.682 111.49 215.855 110.995 222.818L129.857 223.387C132.054 212.024 132.949 205.251 133.247 201.264C133.366 199.656 132.88 198.06 131.884 196.791C130.888 195.522 129.455 194.671 127.864 194.403Z"
        fill="#263238" />
    <path d="M149.757 264.339L154.211 263.918L157.215 274.888L152.76 275.309L149.757 264.339Z"
        fill="#CE7A63" />
    <path
        d="M117.389 222.811C110.223 232.303 110.792 240.392 118.196 240.392C124.793 240.392 133.017 240.785 141.926 240.215C143.885 254.582 151.37 271.322 151.37 271.322L156.313 270.861C156.313 270.861 151.804 249.843 151.459 235.164C151.242 226.289 126.183 227.028 126.183 227.028C126.183 227.028 121.789 222.838 117.389 222.811Z"
        fill="#263238" />
    <path opacity="0.3"
        d="M117.389 222.811C110.223 232.303 110.792 240.392 118.196 240.392C124.793 240.392 133.017 240.785 141.926 240.215C143.885 254.582 151.37 271.322 151.37 271.322L156.313 270.861C156.313 270.861 151.804 249.843 151.459 235.164C151.242 226.289 126.183 227.028 126.183 227.028C126.183 227.028 121.789 222.838 117.389 222.811Z"
        fill="white" />
    <path opacity="0.2"
        d="M152.048 243.755C151.757 240.792 151.547 237.87 151.486 235.164C151.269 226.289 126.21 227.028 126.21 227.028C125.656 226.526 125.074 226.055 124.467 225.618C123.498 225.74 122.942 225.821 122.942 225.821C122.942 225.821 119.159 225.76 115.389 225.733C110.419 233.869 111.572 240.378 118.196 240.378C122.115 240.378 126.623 240.514 131.505 240.507C138.136 238.697 144.997 236.439 148.109 235.449C149.14 238.343 150.459 241.126 152.048 243.755Z"
        fill="black" />
    <path
        d="M111.056 221.557L130.162 222.126C130.346 222.126 130.474 222.235 130.474 222.35L130.257 224.059C130.257 224.16 130.095 224.235 129.925 224.235L110.514 223.665C110.297 223.665 110.148 223.523 110.216 223.394L110.751 221.72C110.781 221.666 110.826 221.622 110.88 221.593C110.934 221.564 110.995 221.552 111.056 221.557Z"
        fill="#263238" />
    <path
        d="M142.584 215.848C140.55 216.113 138.434 216.37 136.407 216.526C135.434 216.62 134.456 216.656 133.478 216.635C133.212 216.628 132.947 216.6 132.685 216.553C132.511 215.797 132.391 215.028 132.326 214.255C132.251 213.299 132.231 212.336 132.251 211.373C132.271 210.411 132.359 209.394 132.461 208.417C132.509 207.922 132.57 207.407 132.644 206.939C132.719 206.471 132.793 205.936 132.868 205.536L128.291 204.559C128.156 205.183 128.061 205.705 127.98 206.268C127.898 206.831 127.837 207.366 127.776 207.949C127.663 209.076 127.611 210.207 127.62 211.339C127.602 213.712 127.982 216.07 128.746 218.316L128.82 218.533L128.881 218.682L128.963 218.872C129.024 218.989 129.092 219.102 129.166 219.211C129.416 219.57 129.742 219.869 130.122 220.086C130.569 220.335 131.059 220.499 131.566 220.567C132.24 220.662 132.923 220.678 133.6 220.614C134.742 220.517 135.875 220.335 136.99 220.072C139.112 219.574 141.195 218.922 143.221 218.119L142.584 215.848Z"
        fill="#CE7A63" />
    <path
        d="M125.376 199.522C123.884 201.61 126.867 207.305 126.867 207.305L132.766 206.932C132.766 206.932 134.305 199.61 131.593 196.437C130.128 194.742 126.949 197.345 125.376 199.522Z"
        fill="#263238" />
    <path
        d="M147.425 212.133C147.551 212.146 147.674 212.185 147.786 212.246C147.898 212.307 147.996 212.39 148.076 212.49C148.155 212.589 148.214 212.704 148.249 212.826C148.284 212.949 148.294 213.077 148.279 213.204L148.048 215.767C148.031 215.959 147.957 216.142 147.837 216.293C147.716 216.443 147.554 216.555 147.37 216.614L145.038 217.292C145.038 217.292 140.733 220.004 139.343 218.831L140.95 216.607L143.885 213.258C144.216 212.877 144.665 212.616 145.16 212.519L147.126 212.126C147.225 212.113 147.326 212.115 147.425 212.133Z"
        fill="#CE7A63" />
    <path
        d="M157.587 274.59C158.645 275.668 160.449 277.194 162.211 277.627C163.337 277.905 164.028 279.729 161.886 279.512C159.743 279.295 157.459 278.834 156.197 278.699C154.163 278.427 153.431 278.543 151.79 278.38C151.596 278.351 151.42 278.247 151.302 278.09C151.184 277.932 151.133 277.734 151.16 277.539L151.872 273.912C151.887 273.835 151.931 273.766 151.996 273.72C152.06 273.675 152.14 273.656 152.218 273.668L156.903 274.285C157.158 274.308 157.399 274.415 157.587 274.59Z"
        fill="#263238" />
    <path
        d="M123.789 175.365C123.789 175.365 126.108 177.995 124.569 180.836C124.569 180.836 123.152 182.613 123.789 186.342C124.426 190.071 127.281 193.074 120.867 193.04C114.833 193.006 107.26 194.227 108.107 188.335C108.107 188.335 105.354 185.752 108.453 182.992C108.453 182.992 106.114 179.751 109.002 177.189C109.002 177.189 107.51 171.893 112.677 172.158C112.677 172.158 113.829 166.89 119.335 169.846C119.335 169.846 121.667 166.13 125.199 169.846C125.199 169.846 130.949 170.314 126.894 173.656C126.894 173.67 127.091 176.382 123.789 175.365Z"
        fill="#263238" />
    <path
        d="M128.142 180.829C128.005 180.828 127.872 180.778 127.769 180.687C127.254 180.253 127.044 178.85 126.983 178.267L124.271 179.548L124.128 179.236L127.891 177.48C127.983 177.431 128.086 177.406 128.19 177.406C128.294 177.406 128.396 177.431 128.488 177.48C128.58 177.528 128.659 177.596 128.72 177.68C128.781 177.763 128.822 177.86 128.841 177.961C128.99 178.863 129.078 180.036 128.685 180.551C128.628 180.626 128.557 180.688 128.475 180.733C128.393 180.779 128.303 180.807 128.21 180.816L128.142 180.829ZM127.308 178.117C127.369 178.741 127.579 180.084 127.986 180.429C128.033 180.471 128.094 180.492 128.156 180.49C128.204 180.487 128.251 180.473 128.293 180.449C128.335 180.426 128.371 180.394 128.4 180.355C128.644 180.036 128.678 179.189 128.481 178.029C128.475 177.979 128.456 177.93 128.427 177.889C128.397 177.848 128.357 177.814 128.312 177.792C128.265 177.769 128.214 177.757 128.163 177.757C128.111 177.757 128.06 177.769 128.013 177.792L127.308 178.117Z"
        fill="#219BBA" />
    <path
        d="M122.04 180.843C122.014 180.632 122.031 180.418 122.088 180.213C122.146 180.008 122.243 179.817 122.375 179.65C122.507 179.483 122.67 179.344 122.856 179.24C123.041 179.137 123.246 179.071 123.457 179.046C124.691 178.917 125.64 180.402 125.911 181.426C126.21 182.592 125.559 183.663 124.352 183.284C123.441 182.984 122.685 182.335 122.25 181.48C122.134 181.286 122.062 181.068 122.04 180.843Z"
        fill="#CE7A63" />
    <path d="M163.527 254.48L167.303 250.901L172.354 258.576L169.331 261.193L163.527 254.48Z"
        fill="#CE7A63" />
    <path
        d="M112.778 222.967C112.331 222.963 111.896 223.109 111.541 223.382C111.187 223.655 110.935 224.039 110.826 224.472C108.276 234.412 111.151 240.419 118.196 240.419C124.793 240.419 142.793 234.527 148.448 232.696C153.194 246.378 166.856 258.63 166.856 258.63L170.442 255.342C170.442 255.342 162.483 240.012 156.977 226.377C153.818 218.547 123.281 223.069 123.281 223.069C123.281 223.069 117.206 222.967 112.778 222.967Z"
        fill="#263238" />
    <path opacity="0.3"
        d="M112.778 222.967C112.331 222.963 111.896 223.109 111.541 223.382C111.187 223.655 110.935 224.039 110.826 224.472C108.276 234.412 111.151 240.419 118.196 240.419C124.793 240.419 142.793 234.527 148.448 232.696C153.194 246.378 166.856 258.63 166.856 258.63L170.442 255.342C170.442 255.342 162.483 240.012 156.977 226.377C153.818 218.547 123.281 223.069 123.281 223.069C123.281 223.069 117.206 222.967 112.778 222.967Z"
        fill="white" />
    <path
        d="M172.409 256.874C173.914 256.759 176.09 255.613 177.46 254.419C178.504 253.497 179.711 254.555 178.667 255.986C177.623 257.416 175.351 259.45 174.477 260.379C173.046 261.891 172.782 262.623 171.595 263.769C171.448 263.899 171.255 263.966 171.059 263.956C170.862 263.946 170.678 263.859 170.544 263.715L168.185 260.806C168.158 260.776 168.138 260.741 168.126 260.703C168.113 260.665 168.108 260.625 168.111 260.585C168.114 260.546 168.126 260.507 168.144 260.471C168.162 260.436 168.188 260.405 168.219 260.379L171.704 257.186C171.897 257.006 172.145 256.896 172.409 256.874Z"
        fill="#263238" />
    <path
        d="M118.101 266.922V241.368H114.033V266.983L103.68 269.695C102.812 269.924 102.044 270.434 101.495 271.145C100.947 271.856 100.65 272.729 100.649 273.627V274.461C100.649 274.866 100.81 275.254 101.096 275.54C101.382 275.826 101.77 275.987 102.175 275.987C102.58 275.987 102.968 275.826 103.254 275.54C103.54 275.254 103.7 274.866 103.7 274.461C103.698 273.986 103.855 273.523 104.144 273.147C104.434 272.77 104.841 272.5 105.3 272.38L114.033 270.075V274.461C114.033 274.866 114.194 275.254 114.48 275.54C114.766 275.826 115.154 275.987 115.559 275.987H116.569C116.973 275.987 117.361 275.826 117.648 275.54C117.934 275.254 118.094 274.866 118.094 274.461V270.047L126.786 272.454C127.244 272.582 127.646 272.857 127.931 273.237C128.216 273.617 128.366 274.081 128.359 274.556C128.356 274.961 128.513 275.352 128.796 275.641C129.079 275.931 129.466 276.097 129.871 276.102C130.072 276.104 130.27 276.066 130.456 275.991C130.642 275.916 130.811 275.805 130.954 275.665C131.097 275.524 131.211 275.357 131.289 275.173C131.367 274.988 131.409 274.79 131.41 274.59V273.756C131.42 272.858 131.133 271.983 130.594 271.265C130.054 270.548 129.292 270.029 128.427 269.79L118.101 266.922Z"
        fill="#263238" />
    <path
        d="M99.666 278.828C99.6647 278.338 99.8088 277.858 100.08 277.45C100.352 277.042 100.738 276.724 101.191 276.536C101.643 276.348 102.141 276.298 102.622 276.393C103.103 276.489 103.544 276.724 103.891 277.071C104.237 277.417 104.473 277.859 104.568 278.34C104.663 278.82 104.614 279.318 104.426 279.771C104.238 280.223 103.919 280.61 103.511 280.881C103.103 281.153 102.624 281.297 102.134 281.295C101.48 281.294 100.853 281.033 100.391 280.571C99.9284 280.108 99.6678 279.482 99.666 278.828Z"
        fill="#219BBA" />
    <path
        d="M127.464 278.828C127.463 278.338 127.607 277.859 127.878 277.451C128.149 277.043 128.535 276.725 128.987 276.536C129.439 276.348 129.937 276.298 130.417 276.393C130.898 276.488 131.339 276.723 131.686 277.068C132.033 277.414 132.269 277.855 132.365 278.335C132.461 278.816 132.413 279.314 132.226 279.766C132.038 280.219 131.721 280.606 131.314 280.878C130.907 281.15 130.428 281.295 129.939 281.295C129.283 281.295 128.655 281.036 128.191 280.573C127.727 280.11 127.466 279.483 127.464 278.828Z"
        fill="#219BBA" />
    <path
        d="M113.572 278.828C113.57 278.338 113.714 277.859 113.986 277.451C114.257 277.043 114.643 276.725 115.095 276.536C115.547 276.348 116.045 276.298 116.525 276.393C117.006 276.488 117.447 276.723 117.794 277.068C118.141 277.414 118.377 277.855 118.473 278.335C118.569 278.816 118.521 279.314 118.333 279.766C118.146 280.219 117.829 280.606 117.422 280.878C117.015 281.15 116.536 281.295 116.046 281.295C115.392 281.294 114.764 281.033 114.301 280.571C113.837 280.109 113.575 279.482 113.572 278.828Z"
        fill="#219BBA" />
    <path opacity="0.6" d="M118.101 241.388H114.04V247.158H118.101V241.388Z" fill="black" />
    <path opacity="0.6" d="M111.009 270.915L113.572 270.237V267.125L111.009 267.803V270.915Z"
        fill="black" />
    <path opacity="0.6" d="M121.084 267.749L118.515 267.037V270.163L121.084 270.875V267.749Z"
        fill="black" />
    <path
        d="M119.382 239.673H144.062C144.812 239.675 145.531 239.974 146.061 240.505C146.591 241.037 146.889 241.757 146.889 242.507H119.382V239.673Z"
        fill="#219BBA" />
    <path opacity="0.5"
        d="M119.382 239.673H144.062C144.812 239.675 145.531 239.974 146.061 240.505C146.591 241.037 146.889 241.757 146.889 242.507H119.382V239.673Z"
        fill="black" />
    <path
        d="M101.87 203.4C93.198 203.4 87.0214 209.868 87.4757 218.479L88.4723 237.3C88.5449 238.692 89.1471 240.004 90.1554 240.967C91.1638 241.93 92.502 242.471 93.8963 242.48H128.746L121.545 218.479C118.996 209.895 110.548 203.4 101.87 203.4Z"
        fill="#219BBA" />
    <path opacity="0.1"
        d="M101.87 203.4C93.198 203.4 87.0214 209.868 87.4757 218.479L88.4723 237.3C88.5449 238.692 89.1471 240.004 90.1554 240.967C91.1638 241.93 92.502 242.471 93.8963 242.48H128.746L121.545 218.479C118.996 209.895 110.548 203.4 101.87 203.4Z"
        fill="black" />
    <path opacity="0.3"
        d="M100.121 203.522C92.3778 204.336 87.0555 210.485 87.4759 218.506L88.4725 237.3C88.5452 238.692 89.1473 240.004 90.1556 240.967C91.164 241.93 92.5023 242.471 93.8965 242.48H125.234L118.033 218.479C115.66 210.478 108.155 204.322 100.121 203.522Z"
        fill="black" />
    <path
        d="M132.705 241.693C132.453 241.439 132.311 241.096 132.311 240.737C132.311 240.379 132.453 240.036 132.705 239.781L140.089 232.398C140.196 232.291 140.269 232.154 140.299 232.005C140.329 231.857 140.313 231.702 140.255 231.562C140.197 231.422 140.099 231.302 139.973 231.218C139.846 231.134 139.698 231.089 139.546 231.09H123.722C123.362 231.09 123.017 230.947 122.763 230.692C122.509 230.438 122.366 230.093 122.366 229.734C122.366 229.374 122.509 229.029 122.763 228.775C123.017 228.52 123.362 228.378 123.722 228.378H139.397C140.046 228.365 140.687 228.528 141.251 228.849C141.815 229.17 142.283 229.637 142.604 230.201C142.961 230.86 143.096 231.618 142.987 232.359C142.878 233.101 142.532 233.788 142.001 234.317L134.617 241.693C134.363 241.946 134.019 242.088 133.661 242.088C133.303 242.088 132.959 241.946 132.705 241.693Z"
        fill="#263238" />
    <path opacity="0.2"
        d="M142.604 230.201C142.283 229.637 141.815 229.17 141.251 228.849C140.687 228.528 140.046 228.365 139.397 228.378H123.722C123.362 228.378 123.017 228.52 122.763 228.775C122.509 229.029 122.366 229.374 122.366 229.734C122.366 230.093 122.509 230.438 122.763 230.692C123.017 230.947 123.362 231.09 123.722 231.09H139.546C139.667 231.087 139.787 231.118 139.892 231.178H142.95C142.885 230.837 142.768 230.507 142.604 230.201Z"
        fill="white" />
</svg>
    