<svg width="354" height="319" viewBox="0 0 354 319" fill="none" xmlns="http://www.w3.org/2000/svg">
    <path d="M318.529 254.237H295.08V254.396H318.529V254.237Z" fill="#EBEBEB"/>
    <path d="M234.504 255.972H228.351V256.132H234.504V255.972Z" fill="#EBEBEB"/>
    <path d="M294.372 248.316H280.786V248.476H294.372V248.316Z" fill="#EBEBEB"/>
    <path d="M67.7201 249.388H37.1416V249.547H67.7201V249.388Z" fill="#EBEBEB"/>
    <path d="M78.51 249.388H74.0283V249.547H78.51V249.388Z" fill="#EBEBEB"/>
    <path d="M159.406 252.08H93.0806V252.24H159.406V252.08Z" fill="#EBEBEB"/>
    <path d="M167.796 215.516H31.0954C30.0232 215.516 28.995 215.133 28.2368 214.449C27.4787 213.766 27.0527 212.84 27.0527 211.873V38.7011C27.0621 37.7405 27.4921 36.822 28.2493 36.1457C29.0064 35.4694 30.0293 35.09 31.0954 35.09H167.796C168.868 35.09 169.897 35.4738 170.655 36.157C171.413 36.8402 171.839 37.7668 171.839 38.733V211.873C171.839 212.84 171.413 213.766 170.655 214.449C169.897 215.133 168.868 215.516 167.796 215.516ZM31.0954 35.2176C30.0707 35.2193 29.0886 35.5869 28.364 36.2398C27.6395 36.8927 27.2316 37.7777 27.2297 38.7011V211.873C27.2316 212.797 27.6395 213.682 28.364 214.335C29.0886 214.988 30.0707 215.355 31.0954 215.357H167.796C168.821 215.355 169.803 214.988 170.527 214.335C171.252 213.682 171.66 212.797 171.662 211.873V38.7011C171.66 37.7777 171.252 36.8927 170.527 36.2398C169.803 35.5869 168.821 35.2193 167.796 35.2176H31.0954Z" fill="#EBEBEB"/>
    <path d="M320.944 215.516H184.229C183.157 215.515 182.13 215.13 181.372 214.448C180.614 213.765 180.188 212.839 180.186 211.873V38.7011C180.197 37.741 180.628 36.8235 181.385 36.1476C182.141 35.4716 183.163 35.0917 184.229 35.09H320.944C322.007 35.0933 323.026 35.4743 323.781 36.1502C324.535 36.8262 324.963 37.7427 324.972 38.7011V211.873C324.972 212.837 324.548 213.762 323.793 214.445C323.038 215.128 322.013 215.513 320.944 215.516ZM184.229 35.2176C183.204 35.2193 182.222 35.5869 181.497 36.2398C180.773 36.8927 180.365 37.7777 180.363 38.7011V211.873C180.365 212.797 180.773 213.682 181.497 214.335C182.222 214.988 183.204 215.355 184.229 215.357H320.944C321.968 215.355 322.95 214.988 323.675 214.335C324.399 213.682 324.807 212.797 324.809 211.873V38.7011C324.807 37.7777 324.399 36.8927 323.675 36.2398C322.95 35.5869 321.968 35.2193 320.944 35.2176H184.229Z" fill="#EBEBEB"/>
    <path d="M354 243.971H0V244.131H354V243.971Z" fill="#EBEBEB"/>
    <path d="M75.6992 244.277H57.5885C56.9209 244.277 56.2782 244.048 55.7906 243.637C55.3029 243.226 55.0067 242.664 54.9619 242.064L52.4768 207.88C52.4484 207.553 52.4953 207.226 52.6146 206.917C52.7338 206.608 52.9228 206.325 53.1696 206.085C53.4164 205.845 53.7156 205.654 54.0485 205.524C54.3813 205.393 54.7405 205.327 55.1035 205.328H78.1913C78.5537 205.327 78.9121 205.395 79.2441 205.526C79.5761 205.656 79.8745 205.848 80.1206 206.087C80.3666 206.327 80.5549 206.61 80.6737 206.918C80.7926 207.227 80.8393 207.554 80.8109 207.88L78.3259 242.064C78.281 242.664 77.9848 243.226 77.4972 243.637C77.0095 244.048 76.3669 244.277 75.6992 244.277Z" fill="#F5F5F5"/>
    <path d="M80.7118 207.139C80.5701 206.63 80.2439 206.178 79.7848 205.854C79.3257 205.531 78.76 205.354 78.1772 205.353H55.1035C54.5207 205.354 53.955 205.531 53.4959 205.854C53.0368 206.178 52.7106 206.63 52.5688 207.139L52.498 208.122L52.5688 209.105C52.7117 209.613 53.0382 210.065 53.4971 210.388C53.9559 210.712 54.521 210.889 55.1035 210.891H78.1914C78.7739 210.889 79.339 210.712 79.7978 210.388C80.2566 210.065 80.5831 209.613 80.726 209.105L80.7968 208.122L80.7118 207.139Z" fill="#EBEBEB"/>
    <path d="M54.1056 174.053C51.1532 170.767 45.4467 168.579 39.1809 167.526C39.6694 169.14 39.3013 170.633 38.2393 170.997C37.0569 171.405 35.471 170.263 34.6993 168.445C34.4933 167.961 34.3623 167.455 34.3099 166.939C27.9945 166.48 21.6721 167.131 17.4595 168.955C17.4595 168.955 21.5871 172.311 26.2599 181.128H26.6989C29.722 181.128 32.1646 182.474 32.1434 184.069C32.1434 185.237 30.8053 186.226 28.9149 186.666C29.1627 187.234 29.4105 187.808 29.6229 188.401C34.0833 199.247 45.9636 191.413 45.8574 183.974C45.8857 183.967 60.7254 181.403 54.1056 174.053Z" fill="#F0F0F0"/>
    <path d="M40.9507 179.674C40.8516 178.321 40.9507 174.723 44.6394 172.656C44.6394 172.656 40.5755 173.204 39.9878 178.991C34.691 175.342 28.7991 172.453 22.5215 170.429C24.4048 171.067 33.9911 174.589 43.8535 182.966C42.2359 183.058 40.6787 183.553 39.3558 184.397C38.033 185.241 36.9967 186.4 36.3629 187.744C36.3629 187.744 39.5206 183.648 44.9155 183.878C52.7368 190.802 58.7324 199.22 62.4598 208.511C62.5056 208.625 62.5759 208.729 62.6665 208.818C62.7572 208.907 62.8666 208.98 62.9882 209.031C63.1099 209.082 63.2416 209.11 63.3757 209.115C63.5097 209.12 63.6436 209.102 63.7696 209.06C63.8952 209.018 64.0101 208.953 64.1076 208.87C64.2051 208.787 64.2832 208.687 64.3373 208.577C64.3914 208.466 64.4204 208.347 64.4226 208.226C64.4248 208.105 64.4002 207.985 64.3501 207.873C62.7713 204.313 55.932 190.322 40.9507 179.674Z" fill="#E0E0E0"/>
    <path d="M71.2603 174.123C73.2569 170.295 78.2129 166.939 84.0043 164.553C83.9618 166.231 84.7123 167.596 85.838 167.743C87.0983 167.883 88.3302 166.429 88.5922 164.496C88.6706 163.983 88.6706 163.464 88.5922 162.952C94.6031 161.133 100.911 160.4 105.492 161.255C105.492 161.255 102.377 165.402 100.196 174.978L99.7715 175.061C96.8404 175.744 94.8155 177.555 95.2686 179.099C95.5943 180.229 97.1448 180.905 99.0918 180.918C99.0068 181.524 98.9219 182.13 98.844 182.762C97.428 194.277 83.7919 189.231 81.9086 181.99C81.8945 181.97 66.7999 182.698 71.2603 174.123Z" fill="#E0E0E0"/>
    <path d="M70.3538 209.181C70.3369 209.301 70.3465 209.423 70.3818 209.539C70.4172 209.656 70.4777 209.765 70.5599 209.86C70.6421 209.955 70.7444 210.035 70.8609 210.095C70.9774 210.155 71.1058 210.193 71.2388 210.208C71.3723 210.222 71.5073 210.211 71.6363 210.177C71.7652 210.143 71.8854 210.087 71.99 210.011C72.0946 209.935 72.1815 209.841 72.2458 209.735C72.3101 209.629 72.3504 209.512 72.3645 209.392C73.5053 199.561 77.084 190.087 82.8358 181.671C88.0042 180.28 92.1673 183.585 92.1673 183.585C91.1942 182.409 89.8755 181.502 88.3604 180.966C86.8452 180.431 85.194 180.288 83.5934 180.554C90.9283 170.282 99.2968 164.783 100.954 163.755C95.4009 167.09 90.4547 171.179 86.2909 175.877C84.1669 170.391 80.0817 170.773 80.0817 170.773C84.1952 171.973 85.2714 175.444 85.5333 176.777C73.8655 190.303 70.9344 205.379 70.3538 209.181Z" fill="#F5F5F5"/>
    <path d="M75.5009 172.975C74.5663 168.834 70.6157 164.521 65.5889 160.98C65.1995 162.62 64.1092 163.787 62.9834 163.673C61.7232 163.539 60.9019 161.867 61.1497 159.934C61.2139 159.419 61.3568 158.914 61.5745 158.435C56.2079 155.398 50.2465 153.331 45.5879 153.216C45.5879 153.216 47.5349 157.911 47.1667 167.679C47.2999 167.73 47.4299 167.788 47.5561 167.851C50.2253 169.127 51.7192 171.316 50.8837 172.726C50.2749 173.753 48.5969 174.085 46.6924 173.689C46.6216 174.289 46.5437 174.901 46.4587 175.533C44.8445 187.017 59.4081 185.001 63.1251 178.359C63.1321 178.359 77.6107 182.245 75.5009 172.975Z" fill="#F5F5F5"/>
    <path d="M60.9518 172.496C61.5536 171.258 63.5006 168.107 67.8194 167.807C67.8194 167.807 63.9254 166.601 60.442 171.494C57.6132 166.054 53.8659 161.042 49.3335 156.635C50.6787 157.982 57.3835 165.095 61.8439 176.63C60.3617 176.036 58.7248 175.826 57.1175 176.024C55.5102 176.223 53.9963 176.822 52.7461 177.753C52.7461 177.753 57.6454 175.45 62.3041 177.874C65.7028 187.271 66.7142 197.235 65.2635 207.031C65.2446 207.151 65.2525 207.272 65.2867 207.389C65.3208 207.506 65.3806 207.616 65.4624 207.711C65.5442 207.807 65.6464 207.887 65.763 207.947C65.8796 208.006 66.0083 208.044 66.1414 208.058C66.274 208.071 66.4081 208.061 66.5362 208.027C66.6642 207.994 66.7836 207.938 66.8876 207.863C66.9915 207.787 67.0779 207.694 67.1419 207.589C67.2058 207.483 67.246 207.367 67.2601 207.248C67.699 203.426 68.7681 188.153 60.9518 172.496Z" fill="#E0E0E0"/>
    <path d="M55.125 145.305H52.647L70.5452 73.5295H73.0232L55.125 145.305Z" fill="#F5F5F5"/>
    <path d="M50.6999 145.305H43.4429L61.3411 73.5295H68.5981L50.6999 145.305Z" fill="#F5F5F5"/>
    <path d="M71.9401 145.305H61.8511L79.7493 73.5295H89.8383L71.9401 145.305Z" fill="#FAFAFA"/>
    <path d="M94.1073 147.85H38.1328V71.0923H94.1073V147.85ZM41.6728 144.66H90.5673V74.2823H41.6728V144.66Z" fill="#EBEBEB"/>
    <path d="M98.7092 144.66H33.5308V147.85H98.7092V144.66Z" fill="#E0E0E0"/>
    <path d="M67.1821 72.6874H65.0581V146.255H67.1821V72.6874Z" fill="#EBEBEB"/>
    <path d="M92.3373 108.511H39.9028V110.425H92.3373V108.511Z" fill="#E0E0E0"/>
    <path d="M173.588 270.327C249.402 270.327 310.862 267.094 310.862 263.105C310.862 259.116 249.402 255.883 173.588 255.883C97.7732 255.883 36.3135 259.116 36.3135 263.105C36.3135 267.094 97.7732 270.327 173.588 270.327Z" fill="#F5F5F5"/>
    <path d="M198.112 259.743L211.366 247.799L224.62 259.743C224.789 259.895 224.99 260.016 225.211 260.098C225.432 260.18 225.669 260.222 225.909 260.221C226.268 260.22 226.62 260.124 226.919 259.943C227.218 259.763 227.45 259.506 227.588 259.206C227.725 258.907 227.76 258.577 227.689 258.259C227.619 257.941 227.445 257.649 227.19 257.42L211.366 243.155L195.535 257.42C195.28 257.65 195.106 257.942 195.036 258.261C194.965 258.579 195.001 258.909 195.139 259.209C195.277 259.509 195.511 259.766 195.811 259.946C196.111 260.126 196.463 260.222 196.824 260.221C197.307 260.221 197.77 260.049 198.112 259.743Z" fill="#FFBD2B"/>
    <path opacity="0.2" d="M211.812 243.563H210.913L206.856 247.219V251.691H207.048L211.366 247.799L215.685 251.691H215.876V247.219L211.812 243.563Z" fill="black"/>
    <path d="M208.655 218.011H214.078V258.307C214.078 258.815 213.854 259.302 213.456 259.66C213.058 260.019 212.517 260.221 211.954 260.221H210.779C210.215 260.221 209.675 260.019 209.277 259.66C208.879 259.302 208.655 258.815 208.655 258.307V218.011Z" fill="#FFBD2B"/>
    <path opacity="0.2" d="M214.078 218.011H208.655V220.971H214.078V218.011Z" fill="black"/>
    <path d="M307.888 219.108H114.838C112.932 219.105 111.105 218.421 109.758 217.206C108.411 215.991 107.653 214.344 107.651 212.626V71.5006H315.06V212.626C315.058 214.342 314.303 215.986 312.959 217.201C311.615 218.416 309.791 219.102 307.888 219.108ZM110.073 73.689V212.626C110.075 213.764 110.577 214.856 111.47 215.66C112.364 216.465 113.574 216.918 114.838 216.92H307.888C309.151 216.918 310.362 216.465 311.255 215.66C312.148 214.856 312.651 213.764 312.653 212.626V73.689H110.073Z" fill="#FFBD2B"/>
    <g opacity="0.8">
    <path d="M307.888 219.108H114.838C112.932 219.105 111.105 218.421 109.758 217.206C108.411 215.991 107.653 214.344 107.651 212.626V71.5006H315.06V212.626C315.058 214.342 314.303 215.986 312.959 217.201C311.615 218.416 309.791 219.102 307.888 219.108ZM110.073 73.689V212.626C110.075 213.764 110.577 214.856 111.47 215.66C112.364 216.465 113.574 216.918 114.838 216.92H307.888C309.151 216.918 310.362 216.465 311.255 215.66C312.148 214.856 312.651 213.764 312.653 212.626V73.689H110.073Z" fill="white"/>
    </g>
    <g opacity="0.8">
    <path d="M110.073 73.689V212.626C110.075 213.764 110.577 214.856 111.47 215.66C112.364 216.465 113.574 216.918 114.838 216.92H307.888C309.151 216.918 310.362 216.465 311.255 215.66C312.148 214.856 312.651 213.764 312.653 212.626V73.689H110.073Z" fill="white"/>
    </g>
    <path d="M319.768 70.1353H102.964V75.0607H319.768V70.1353Z" fill="#FFBD2B"/>
    <path opacity="0.5" d="M319.768 70.1353H102.964V75.0607H319.768V70.1353Z" fill="white"/>
    <path opacity="0.5" d="M319.768 70.1353H102.964V72.598H319.768V70.1353Z" fill="white"/>
    <path d="M245.818 187.948V187.017H237.888V179.795H236.861V187.017H229.208V179.795H228.174V187.017H220.676V179.795H219.643V187.017H212.209V179.795H211.182V187.017H203.55V179.795H202.488V187.017H194.636V187.948H202.488V194.705H194.636V195.636H202.488V202.393H194.636V203.324H202.488V210.54H203.522V203.324H211.154V210.54H212.18V203.324H219.614V210.54H220.648V203.324H228.146V210.54H229.18V203.324H236.812V210.54H237.888V203.324H245.818V202.393H237.888V195.636H245.818V194.705H237.888V187.948H245.818ZM228.174 187.948V194.705H220.676V187.948H228.174ZM219.678 187.948V194.705H212.244V187.948H219.678ZM203.585 187.948H211.218V194.705H203.55L203.585 187.948ZM203.585 202.393V195.636H211.218V202.393H203.585ZM212.244 202.393V195.636H219.678V202.393H212.244ZM220.74 202.393V195.636H228.238V202.393H220.74ZM236.904 202.393H229.208V195.636H236.84L236.904 202.393ZM236.904 194.705H229.208V187.948H236.84L236.904 194.705Z" fill="#FFBD2B"/>
    <path opacity="0.7" d="M245.818 187.948V187.017H237.888V179.795H236.861V187.017H229.208V179.795H228.174V187.017H220.676V179.795H219.643V187.017H212.209V179.795H211.182V187.017H203.55V179.795H202.488V187.017H194.636V187.948H202.488V194.705H194.636V195.636H202.488V202.393H194.636V203.324H202.488V210.54H203.522V203.324H211.154V210.54H212.18V203.324H219.614V210.54H220.648V203.324H228.146V210.54H229.18V203.324H236.812V210.54H237.888V203.324H245.818V202.393H237.888V195.636H245.818V194.705H237.888V187.948H245.818ZM228.174 187.948V194.705H220.676V187.948H228.174ZM219.678 187.948V194.705H212.244V187.948H219.678ZM203.585 187.948H211.218V194.705H203.55L203.585 187.948ZM203.585 202.393V195.636H211.218V202.393H203.585ZM212.244 202.393V195.636H219.678V202.393H212.244ZM220.74 202.393V195.636H228.238V202.393H220.74ZM236.904 202.393H229.208V195.636H236.84L236.904 202.393ZM236.904 194.705H229.208V187.948H236.84L236.904 194.705Z" fill="white"/>
    <path d="M243.219 211.471H197.199C196.241 211.47 195.322 211.127 194.643 210.517C193.964 209.908 193.58 209.081 193.574 208.218L193.461 182.149C193.458 181.718 193.55 181.292 193.731 180.893C193.912 180.495 194.178 180.132 194.515 179.827C194.852 179.521 195.253 179.279 195.694 179.114C196.135 178.948 196.608 178.863 197.086 178.863H243.198C244.161 178.863 245.085 179.208 245.766 179.822C246.447 180.436 246.83 181.268 246.83 182.136V208.205C246.828 209.069 246.448 209.896 245.771 210.508C245.095 211.12 244.178 211.466 243.219 211.471ZM197.107 180.726C196.692 180.728 196.294 180.878 196 181.143C195.707 181.409 195.543 181.768 195.543 182.143L195.656 208.211C195.66 208.584 195.826 208.94 196.119 209.202C196.411 209.465 196.807 209.613 197.22 209.615H243.24C243.656 209.615 244.055 209.467 244.349 209.202C244.644 208.938 244.81 208.579 244.812 208.205V182.136C244.81 181.762 244.644 181.403 244.349 181.139C244.055 180.875 243.656 180.726 243.24 180.726H197.107Z" fill="#FFBD2B"/>
    <g opacity="0.8">
    <path d="M243.219 211.471H197.199C196.241 211.47 195.322 211.127 194.643 210.517C193.964 209.908 193.58 209.081 193.574 208.218L193.461 182.149C193.458 181.718 193.55 181.292 193.731 180.893C193.912 180.495 194.178 180.132 194.515 179.827C194.852 179.521 195.253 179.279 195.694 179.114C196.135 178.948 196.608 178.863 197.086 178.863H243.198C244.161 178.863 245.085 179.208 245.766 179.822C246.447 180.436 246.83 181.268 246.83 182.136V208.205C246.828 209.069 246.448 209.896 245.771 210.508C245.095 211.12 244.178 211.466 243.219 211.471ZM197.107 180.726C196.692 180.728 196.294 180.878 196 181.143C195.707 181.409 195.543 181.768 195.543 182.143L195.656 208.211C195.66 208.584 195.826 208.94 196.119 209.202C196.411 209.465 196.807 209.613 197.22 209.615H243.24C243.656 209.615 244.055 209.467 244.349 209.202C244.644 208.938 244.81 208.579 244.812 208.205V182.136C244.81 181.762 244.644 181.403 244.349 181.139C244.055 180.875 243.656 180.726 243.24 180.726H197.107Z" fill="white"/>
    </g>
    <path d="M237.357 193.052V189.212H195.578L195.592 193.052H237.357Z" fill="#FFBD2B"/>
    <path opacity="0.6" d="M237.357 193.052V189.212H195.578L195.592 193.052H237.357Z" fill="white"/>
    <path d="M228.684 181.715H195.62C195.573 181.854 195.546 181.998 195.542 182.143V185.562H228.684V181.715Z" fill="#FFBD2B"/>
    <path opacity="0.3" d="M228.684 181.715H195.62C195.573 181.854 195.546 181.998 195.542 182.143V185.562H228.684V181.715Z" fill="white"/>
    <path d="M241.697 204.798H195.642V208.23C195.646 208.369 195.672 208.507 195.719 208.639H241.683L241.697 204.798Z" fill="#FFBD2B"/>
    <path opacity="0.2" d="M241.697 204.798H195.642V208.23C195.646 208.369 195.672 208.507 195.719 208.639H241.683L241.697 204.798Z" fill="black"/>
    <path d="M220.159 200.932V197.091H195.606L195.627 200.932H220.159Z" fill="#FFBD2B"/>
    <path d="M304.879 95.432V94.5069H288.333V79.5969H287.306V94.5069H271.27V79.5969H270.243V94.5069H254.214V79.5969H253.181V94.5069H237.18V79.5969H236.118V94.5069H220.089V79.5969H219.055V94.5069H203.026V79.5969H201.992V94.5069H185.963V79.5969H184.929V94.5069H168.9V79.5969H167.874V94.5069H151.845V79.5969H150.804V94.5069H134.782V79.5969H133.748V94.5069H117.202V95.432H133.748V109.876H117.202V110.808H133.748V125.252H117.202V126.184H133.748V140.628H117.202V141.559H133.748V156.004H117.202V156.948H133.748V171.858H134.782V156.948H150.804V171.858H151.838V156.948H167.867V171.858H168.893V156.948H184.929V171.858H185.963V156.948H201.992V171.858H203.026V156.948H219.055V171.858H220.089V156.948H236.118V171.858H237.18V156.948H253.181V171.858H254.214V156.948H270.243V171.858H271.27V156.948H287.306V171.858H288.333V156.948H304.879V156.016H288.333V141.559H304.879V140.628H288.333V126.184H304.879V125.252H288.333V110.808H304.879V109.876H288.333V95.432H304.879ZM270.243 95.432V109.876H254.214V95.432H270.243ZM236.118 125.252H220.089V110.808H236.118V125.252ZM237.18 110.808H253.181V125.252H237.18V110.808ZM219.055 125.252H203.026V110.808H219.055V125.252ZM201.992 125.252H185.963V110.808H201.992V125.252ZM184.929 125.252H168.9V110.808H184.929V125.252ZM167.874 125.252H151.845V110.808H167.874V125.252ZM167.874 126.184V140.628H151.845V126.184H167.874ZM168.9 126.184H184.929V140.628H168.9V126.184ZM185.963 126.184H201.992V140.628H185.963V126.184ZM203.026 126.184H219.055V140.628H203.026V126.184ZM220.089 126.184H236.118V140.628H220.089V126.184ZM237.152 126.184H253.181V140.628H237.18L237.152 126.184ZM254.214 126.184H270.243V140.628H254.214V126.184ZM254.214 125.252V110.808H270.243V125.252H254.214ZM253.181 95.432V109.876H237.18V95.432H253.181ZM236.118 95.432V109.876H220.089V95.432H236.118ZM219.055 95.432V109.876H203.026V95.432H219.055ZM201.992 95.432V109.876H185.963V95.432H201.992ZM184.929 95.432V109.876H168.9V95.432H184.929ZM167.874 95.432V109.876H151.845V95.432H167.874ZM134.782 95.432H150.804V109.876H134.782V95.432ZM134.782 110.808H150.804V125.252H134.782V110.808ZM134.782 126.184H150.804V140.628H134.782V126.184ZM134.782 156.004V141.559H150.804V156.004H134.782ZM151.845 156.004V141.559H167.874V156.004H151.845ZM168.9 156.004V141.559H184.929V156.004H168.9ZM185.963 156.004V141.559H201.992V156.004H185.963ZM203.026 156.004V141.559H219.055V156.004H203.026ZM220.089 156.004V141.559H236.118V156.004H220.089ZM237.152 156.004V141.559H253.181V156.004H237.152ZM254.214 156.004V141.559H270.243V156.004H254.214ZM287.306 156.004H271.27V141.559H287.306V156.004ZM287.306 140.628H271.27V126.184H287.306V140.628ZM287.306 125.252H271.27V110.808H287.306V125.252ZM287.306 109.876H271.27V95.432H287.306V109.876Z" fill="#FFBD2B"/>
    <path opacity="0.7" d="M304.879 95.432V94.5069H288.333V79.5969H287.306V94.5069H271.27V79.5969H270.243V94.5069H254.214V79.5969H253.181V94.5069H237.18V79.5969H236.118V94.5069H220.089V79.5969H219.055V94.5069H203.026V79.5969H201.992V94.5069H185.963V79.5969H184.929V94.5069H168.9V79.5969H167.874V94.5069H151.845V79.5969H150.804V94.5069H134.782V79.5969H133.748V94.5069H117.202V95.432H133.748V109.876H117.202V110.808H133.748V125.252H117.202V126.184H133.748V140.628H117.202V141.559H133.748V156.004H117.202V156.948H133.748V171.858H134.782V156.948H150.804V171.858H151.838V156.948H167.867V171.858H168.893V156.948H184.929V171.858H185.963V156.948H201.992V171.858H203.026V156.948H219.055V171.858H220.089V156.948H236.118V171.858H237.18V156.948H253.181V171.858H254.214V156.948H270.243V171.858H271.27V156.948H287.306V171.858H288.333V156.948H304.879V156.016H288.333V141.559H304.879V140.628H288.333V126.184H304.879V125.252H288.333V110.808H304.879V109.876H288.333V95.432H304.879ZM270.243 95.432V109.876H254.214V95.432H270.243ZM236.118 125.252H220.089V110.808H236.118V125.252ZM237.18 110.808H253.181V125.252H237.18V110.808ZM219.055 125.252H203.026V110.808H219.055V125.252ZM201.992 125.252H185.963V110.808H201.992V125.252ZM184.929 125.252H168.9V110.808H184.929V125.252ZM167.874 125.252H151.845V110.808H167.874V125.252ZM167.874 126.184V140.628H151.845V126.184H167.874ZM168.9 126.184H184.929V140.628H168.9V126.184ZM185.963 126.184H201.992V140.628H185.963V126.184ZM203.026 126.184H219.055V140.628H203.026V126.184ZM220.089 126.184H236.118V140.628H220.089V126.184ZM237.152 126.184H253.181V140.628H237.18L237.152 126.184ZM254.214 126.184H270.243V140.628H254.214V126.184ZM254.214 125.252V110.808H270.243V125.252H254.214ZM253.181 95.432V109.876H237.18V95.432H253.181ZM236.118 95.432V109.876H220.089V95.432H236.118ZM219.055 95.432V109.876H203.026V95.432H219.055ZM201.992 95.432V109.876H185.963V95.432H201.992ZM184.929 95.432V109.876H168.9V95.432H184.929ZM167.874 95.432V109.876H151.845V95.432H167.874ZM134.782 95.432H150.804V109.876H134.782V95.432ZM134.782 110.808H150.804V125.252H134.782V110.808ZM134.782 126.184H150.804V140.628H134.782V126.184ZM134.782 156.004V141.559H150.804V156.004H134.782ZM151.845 156.004V141.559H167.874V156.004H151.845ZM168.9 156.004V141.559H184.929V156.004H168.9ZM185.963 156.004V141.559H201.992V156.004H185.963ZM203.026 156.004V141.559H219.055V156.004H203.026ZM220.089 156.004V141.559H236.118V156.004H220.089ZM237.152 156.004V141.559H253.181V156.004H237.152ZM254.214 156.004V141.559H270.243V156.004H254.214ZM287.306 156.004H271.27V141.559H287.306V156.004ZM287.306 140.628H271.27V126.184H287.306V140.628ZM287.306 125.252H271.27V110.808H287.306V125.252ZM287.306 109.876H271.27V95.432H287.306V109.876Z" fill="white"/>
    <path d="M302.188 172.77H119.893C118.906 172.77 117.96 172.418 117.262 171.79C116.564 171.162 116.17 170.31 116.168 169.421V82.0149C116.17 81.1254 116.563 80.2728 117.261 79.6438C117.959 79.0148 118.905 78.6607 119.893 78.659H302.188C303.175 78.6607 304.122 79.0148 304.82 79.6438C305.518 80.2728 305.911 81.1254 305.912 82.0149V169.421C305.911 170.31 305.517 171.162 304.819 171.79C304.121 172.418 303.175 172.77 302.188 172.77ZM119.893 80.522C119.452 80.5236 119.031 80.6823 118.721 80.9633C118.41 81.2443 118.236 81.6247 118.236 82.0213V169.427C118.235 169.623 118.277 169.816 118.36 169.997C118.442 170.178 118.564 170.342 118.717 170.48C119.029 170.761 119.452 170.919 119.893 170.92H302.188C302.628 170.92 303.049 170.763 303.36 170.483C303.671 170.203 303.845 169.823 303.845 169.427V82.0213C303.845 81.6247 303.671 81.2443 303.36 80.9633C303.05 80.6823 302.628 80.5236 302.188 80.522H119.893Z" fill="#FFBD2B"/>
    <g opacity="0.8">
    <path d="M302.188 172.77H119.893C118.906 172.77 117.96 172.418 117.262 171.79C116.564 171.162 116.17 170.31 116.168 169.421V82.0149C116.17 81.1254 116.563 80.2728 117.261 79.6438C117.959 79.0148 118.905 78.6607 119.893 78.659H302.188C303.175 78.6607 304.122 79.0148 304.82 79.6438C305.518 80.2728 305.911 81.1254 305.912 82.0149V169.421C305.911 170.31 305.517 171.162 304.819 171.79C304.121 172.418 303.175 172.77 302.188 172.77ZM119.893 80.522C119.452 80.5236 119.031 80.6823 118.721 80.9633C118.41 81.2443 118.236 81.6247 118.236 82.0213V169.427C118.235 169.623 118.277 169.816 118.36 169.997C118.442 170.178 118.564 170.342 118.717 170.48C119.029 170.761 119.452 170.919 119.893 170.92H302.188C302.628 170.92 303.049 170.763 303.36 170.483C303.671 170.203 303.845 169.823 303.845 169.427V82.0213C303.845 81.6247 303.671 81.2443 303.36 80.9633C303.05 80.6823 302.628 80.5236 302.188 80.522H119.893Z" fill="white"/>
    </g>
    <path d="M164.978 130.331H154.74V170.914H164.978V130.331Z" fill="#FFBD2B"/>
    <path d="M182.034 116.492H171.796V170.914H182.034V116.492Z" fill="#FFBD2B"/>
    <path opacity="0.6" d="M182.034 116.492H171.796V170.914H182.034V116.492Z" fill="white"/>
    <path d="M199.097 130.331H188.859V170.914H199.097V130.331Z" fill="#FFBD2B"/>
    <path opacity="0.3" d="M199.097 130.331H188.859V170.914H199.097V130.331Z" fill="white"/>
    <path d="M130.852 144.169H120.615V170.914H130.852V144.169Z" fill="#FFBD2B"/>
    <path opacity="0.6" d="M130.852 144.169H120.615V170.914H130.852V144.169Z" fill="white"/>
    <path d="M147.915 137.489H137.678V170.914H147.915V137.489Z" fill="#FFBD2B"/>
    <path opacity="0.3" d="M147.915 137.489H137.678V170.914H147.915V137.489Z" fill="white"/>
    <path d="M216.16 144.169H205.922V170.914H216.16V144.169Z" fill="#FFBD2B"/>
    <path d="M301.466 102.654H291.229V170.914H301.466V102.654Z" fill="#FFBD2B"/>
    <path opacity="0.3" d="M301.466 102.654H291.229V170.914H301.466V102.654Z" fill="white"/>
    <path d="M233.222 130.331H222.984V170.914H233.222V130.331Z" fill="#FFBD2B"/>
    <path opacity="0.6" d="M233.222 130.331H222.984V170.914H233.222V130.331Z" fill="white"/>
    <path d="M284.411 116.492H274.173V170.914H284.411V116.492Z" fill="#FFBD2B"/>
    <path opacity="0.6" d="M284.411 116.492H274.173V170.914H284.411V116.492Z" fill="white"/>
    <path d="M267.348 123.651H257.11V170.914H267.348V123.651Z" fill="#FFBD2B"/>
    <path d="M250.285 137.489H240.047V170.914H250.285V137.489Z" fill="#FFBD2B"/>
    <path opacity="0.3" d="M250.285 137.489H240.047V170.914H250.285V137.489Z" fill="white"/>
    <path d="M280.892 179.827V183.655C283.572 183.851 286.115 184.807 288.156 186.385L291.179 183.661C288.325 181.378 284.701 180.028 280.892 179.827Z" fill="#FFBD2B"/>
    <path opacity="0.3" d="M280.892 179.827V183.655C283.572 183.851 286.115 184.807 288.156 186.385L291.179 183.661C288.325 181.378 284.701 180.028 280.892 179.827Z" fill="white"/>
    <path d="M278.831 206.661C275.804 206.439 272.963 205.254 270.816 203.319C268.668 201.383 267.354 198.823 267.107 196.096H262.859C263.112 199.845 264.879 203.381 267.827 206.038C270.775 208.694 274.699 210.286 278.86 210.514L278.831 206.661Z" fill="#FFBD2B"/>
    <path opacity="0.7" d="M278.831 206.661C275.804 206.439 272.963 205.254 270.816 203.319C268.668 201.383 267.354 198.823 267.107 196.096H262.859C263.112 199.845 264.879 203.381 267.827 206.038C270.775 208.694 274.699 210.286 278.86 210.514L278.831 206.661Z" fill="white"/>
    <path d="M267.107 194.239C267.353 191.512 268.667 188.952 270.815 187.017C272.963 185.083 275.804 183.9 278.831 183.68V179.852C274.671 180.078 270.746 181.668 267.798 184.324C264.849 186.979 263.083 190.515 262.831 194.265L267.107 194.239Z" fill="#FFBD2B"/>
    <path opacity="0.2" d="M267.107 194.239C267.353 191.512 268.667 188.952 270.815 187.017C272.963 185.083 275.804 183.9 278.831 183.68V179.852C274.671 180.078 270.746 181.668 267.798 184.324C264.849 186.979 263.083 190.515 262.831 194.265L267.107 194.239Z" fill="black"/>
    <path d="M292.63 184.975L289.607 187.7C291.133 189.316 292.134 191.281 292.501 193.377C292.867 195.474 292.584 197.621 291.682 199.581C290.781 201.542 289.297 203.241 287.393 204.49C285.489 205.739 283.239 206.49 280.892 206.661V210.489C284.08 210.311 287.149 209.33 289.749 207.658C292.349 205.986 294.376 203.689 295.599 201.03C296.822 198.371 297.192 195.456 296.667 192.616C296.143 189.777 294.744 187.127 292.63 184.969V184.975Z" fill="#FFBD2B"/>
    <path d="M177.51 187.948V187.017H169.559V179.795H168.504V187.017H160.893V179.795H159.866V187.017H152.369V179.795H151.335V187.017H143.901V179.795H142.867V187.017H135.228V179.795H134.194V187.017H126.321V187.948H134.208V194.705H126.321V195.636H134.208V202.393H126.321V203.324H134.208V210.54H135.228V203.324H142.853V210.54H143.887V203.324H151.321V210.54H152.354V203.324H159.866V210.54H160.893V203.324H168.504V210.54H169.538V203.324H177.488V202.393H169.559V195.636H177.51V194.705H169.559V187.948H177.51ZM159.866 187.948V194.705H152.369V187.948H159.866ZM151.335 187.948V194.705H143.901V187.948H151.335ZM135.242 187.948H142.867V194.705H135.228L135.242 187.948ZM135.242 202.393V195.636H142.867V202.393H135.242ZM143.901 202.393V195.636H151.335V202.393H143.901ZM152.397 202.393V195.636H159.866V202.393H152.397ZM168.553 202.393H160.893V195.636H168.504L168.553 202.393ZM168.553 194.705H160.893V187.948H168.504L168.553 194.705Z" fill="#FFBD2B"/>
    <path opacity="0.7" d="M177.51 187.948V187.017H169.559V179.795H168.504V187.017H160.893V179.795H159.866V187.017H152.369V179.795H151.335V187.017H143.901V179.795H142.867V187.017H135.228V179.795H134.194V187.017H126.321V187.948H134.208V194.705H126.321V195.636H134.208V202.393H126.321V203.324H134.208V210.54H135.228V203.324H142.853V210.54H143.887V203.324H151.321V210.54H152.354V203.324H159.866V210.54H160.893V203.324H168.504V210.54H169.538V203.324H177.488V202.393H169.559V195.636H177.51V194.705H169.559V187.948H177.51ZM159.866 187.948V194.705H152.369V187.948H159.866ZM151.335 187.948V194.705H143.901V187.948H151.335ZM135.242 187.948H142.867V194.705H135.228L135.242 187.948ZM135.242 202.393V195.636H142.867V202.393H135.242ZM143.901 202.393V195.636H151.335V202.393H143.901ZM152.397 202.393V195.636H159.866V202.393H152.397ZM168.553 202.393H160.893V195.636H168.504L168.553 202.393ZM168.553 194.705H160.893V187.948H168.504L168.553 194.705Z" fill="white"/>
    <path d="M174.876 211.471H128.792C127.829 211.471 126.905 211.127 126.224 210.513C125.543 209.899 125.16 209.067 125.16 208.199V182.136C125.16 181.268 125.543 180.436 126.224 179.822C126.905 179.208 127.829 178.863 128.792 178.863H174.876C175.839 178.863 176.763 179.208 177.444 179.822C178.125 180.436 178.508 181.268 178.508 182.136V208.199C178.508 209.067 178.125 209.899 177.444 210.513C176.763 211.127 175.839 211.471 174.876 211.471ZM128.764 180.726C128.348 180.726 127.95 180.875 127.655 181.139C127.36 181.403 127.194 181.762 127.192 182.136V208.199C127.194 208.574 127.36 208.933 127.655 209.198C127.949 209.463 128.348 209.613 128.764 209.615H174.876C175.292 209.613 175.691 209.463 175.985 209.198C176.28 208.933 176.446 208.574 176.448 208.199V182.136C176.446 181.762 176.279 181.403 175.985 181.139C175.69 180.875 175.292 180.726 174.876 180.726H128.764Z" fill="#FFBD2B"/>
    <g opacity="0.8">
    <path d="M174.876 211.471H128.792C127.829 211.471 126.905 211.127 126.224 210.513C125.543 209.899 125.16 209.067 125.16 208.199V182.136C125.16 181.268 125.543 180.436 126.224 179.822C126.905 179.208 127.829 178.863 128.792 178.863H174.876C175.839 178.863 176.763 179.208 177.444 179.822C178.125 180.436 178.508 181.268 178.508 182.136V208.199C178.508 209.067 178.125 209.899 177.444 210.513C176.763 211.127 175.839 211.471 174.876 211.471ZM128.764 180.726C128.348 180.726 127.95 180.875 127.655 181.139C127.36 181.403 127.194 181.762 127.192 182.136V208.199C127.194 208.574 127.36 208.933 127.655 209.198C127.949 209.463 128.348 209.613 128.764 209.615H174.876C175.292 209.613 175.691 209.463 175.985 209.198C176.28 208.933 176.446 208.574 176.448 208.199V182.136C176.446 181.762 176.279 181.403 175.985 181.139C175.69 180.875 175.292 180.726 174.876 180.726H128.764Z" fill="white"/>
    </g>
    <path d="M169.644 185.932H165.027L160.411 190.092L151.731 194.009H142.633L133.677 202.08H127.22V203.471H134.321L143.278 195.4H152.099L161.332 191.241L165.672 187.33H170.012L176.476 184.42V182.857L169.644 185.932Z" fill="#FFBD2B"/>
    <g opacity="0.6">
    <path d="M169.644 185.932H165.027L160.411 190.092L151.731 194.009H142.633L133.677 202.08H127.22V203.471H134.321L143.278 195.4H152.099L161.332 191.241L165.672 187.33H170.012L176.476 184.42V182.857L169.644 185.932Z" fill="white"/>
    </g>
    <path d="M169.367 194.131L151.731 202.08H142.775L133.819 206.112H127.22V207.51H134.18L143.143 203.471H152.099L170.288 195.279L176.476 189.703V187.732L169.367 194.131Z" fill="#FFBD2B"/>
    <path d="M169.644 189.971L160.687 194.009H151.731L142.775 198.042H127.22V199.439H143.143L152.099 195.4H161.056L170.012 191.368H176.476V189.971H169.644Z" fill="#FFBD2B"/>
    <g opacity="0.3">
    <path d="M169.644 189.971L160.687 194.009H151.731L142.775 198.042H127.22V199.439H143.143L152.099 195.4H161.056L170.012 191.368H176.476V189.971H169.644Z" fill="white"/>
    </g>
    <path d="M191.054 217.59H107.241C106.134 217.59 105.237 218.398 105.237 219.395V221.258C105.237 222.256 106.134 223.064 107.241 223.064H191.054C192.161 223.064 193.058 222.256 193.058 221.258V219.395C193.058 218.398 192.161 217.59 191.054 217.59Z" fill="#FFBD2B"/>
    <path opacity="0.6" d="M191.054 217.59H107.241C106.134 217.59 105.237 218.398 105.237 219.395V221.258C105.237 222.256 106.134 223.064 107.241 223.064H191.054C192.161 223.064 193.058 222.256 193.058 221.258V219.395C193.058 218.398 192.161 217.59 191.054 217.59Z" fill="white"/>
    <path d="M179.868 223.064H118.435V232.034H179.868V223.064Z" fill="#FFBD2B"/>
    <path opacity="0.3" d="M179.868 223.064H118.435V232.034H179.868V223.064Z" fill="white"/>
    <path d="M179.868 259.443H118.435V263.928H179.868V259.443Z" fill="#FFBD2B"/>
    <path opacity="0.3" d="M179.868 259.443H118.435V263.928H179.868V259.443Z" fill="white"/>
    <path d="M145.997 223.064H152.305V275.616C152.305 276.029 152.123 276.425 151.799 276.717C151.475 277.009 151.036 277.173 150.578 277.173H148.454C148.135 277.173 147.819 277.116 147.525 277.006C147.23 276.896 146.962 276.735 146.737 276.532C146.511 276.329 146.332 276.087 146.21 275.822C146.088 275.556 146.025 275.272 146.025 274.984V223.064H145.997Z" fill="#263238"/>
    <path d="M115.284 223.064H121.592V275.616C121.592 276.029 121.41 276.425 121.086 276.717C120.762 277.009 120.323 277.173 119.864 277.173H117.74C117.422 277.173 117.106 277.116 116.811 277.006C116.516 276.896 116.249 276.735 116.023 276.532C115.798 276.329 115.619 276.087 115.497 275.822C115.375 275.556 115.312 275.272 115.312 274.984V223.064H115.284Z" fill="#263238"/>
    <path d="M176.717 223.064H183.025V275.616C183.025 276.029 182.843 276.425 182.519 276.717C182.195 277.009 181.756 277.173 181.298 277.173H179.174C178.852 277.176 178.532 277.122 178.234 277.013C177.936 276.904 177.664 276.743 177.436 276.539C177.207 276.334 177.026 276.091 176.902 275.823C176.779 275.555 176.716 275.268 176.717 274.978V223.064Z" fill="#263238"/>
    <path d="M125.068 215.14H128.396V216.518C128.396 216.823 128.262 217.115 128.023 217.33C127.784 217.545 127.46 217.666 127.122 217.666H126.343C126.005 217.666 125.681 217.545 125.442 217.33C125.203 217.115 125.068 216.823 125.068 216.518V215.14Z" fill="#263238"/>
    <path d="M148.071 215.14H151.399V216.518C151.399 216.823 151.265 217.115 151.026 217.33C150.787 217.545 150.462 217.666 150.124 217.666H149.346C149.178 217.666 149.013 217.637 148.858 217.579C148.703 217.521 148.563 217.437 148.445 217.33C148.326 217.223 148.232 217.097 148.168 216.958C148.104 216.818 148.071 216.669 148.071 216.518V215.14Z" fill="#263238"/>
    <path d="M164.016 211.975H167.343V216.518C167.343 216.823 167.209 217.115 166.97 217.33C166.731 217.545 166.407 217.666 166.069 217.666H165.29C164.952 217.666 164.628 217.545 164.389 217.33C164.15 217.115 164.016 216.823 164.016 216.518V211.975Z" fill="#263238"/>
    <path d="M136.587 211.975H139.915V216.518C139.915 216.823 139.781 217.115 139.542 217.33C139.303 217.545 138.979 217.666 138.641 217.666H137.862C137.524 217.666 137.2 217.545 136.961 217.33C136.722 217.115 136.587 216.823 136.587 216.518V211.975Z" fill="#263238"/>
    <path d="M156.907 211.752C160.27 211.752 162.996 209.296 162.996 206.265C162.996 203.235 160.27 200.779 156.907 200.779C153.544 200.779 150.818 203.235 150.818 206.265C150.818 209.296 153.544 211.752 156.907 211.752Z" fill="#FFBD2B"/>
    <path opacity="0.5" d="M156.907 211.752C160.27 211.752 162.996 209.296 162.996 206.265C162.996 203.235 160.27 200.779 156.907 200.779C153.544 200.779 150.818 203.235 150.818 206.265C150.818 209.296 153.544 211.752 156.907 211.752Z" fill="white"/>
    <path d="M159.408 210.903C161.517 209.002 161.517 205.919 159.408 204.018C157.298 202.117 153.878 202.117 151.768 204.018C149.658 205.919 149.658 209.002 151.768 210.903C153.878 212.804 157.298 212.804 159.408 210.903Z" fill="#FFBD2B"/>
    <path opacity="0.2" d="M159.408 210.903C161.517 209.002 161.517 205.919 159.408 204.018C157.298 202.117 153.878 202.117 151.768 204.018C149.658 205.919 149.658 209.002 151.768 210.903C153.878 212.804 157.298 212.804 159.408 210.903Z" fill="white"/>
    <path d="M167.088 205.143H138.216C138.04 205.142 137.864 205.162 137.692 205.2L123.9 208.46C123.459 208.565 123.069 208.799 122.79 209.124C122.511 209.449 122.359 209.848 122.357 210.259V214.33C122.357 214.824 122.575 215.298 122.962 215.647C123.35 215.996 123.876 216.193 124.424 216.193H153.275C153.452 216.193 153.629 216.172 153.799 216.129L167.584 212.875C168.027 212.771 168.419 212.537 168.698 212.21C168.977 211.883 169.128 211.482 169.127 211.07V206.999C169.127 206.51 168.913 206.041 168.531 205.693C168.15 205.345 167.631 205.148 167.088 205.143Z" fill="#FFBD2B"/>
    <path opacity="0.7" d="M167.088 205.143H138.216C138.04 205.142 137.864 205.162 137.692 205.2L123.9 208.46C123.459 208.565 123.069 208.799 122.79 209.124C122.511 209.449 122.359 209.848 122.357 210.259V214.33C122.357 214.824 122.575 215.298 122.962 215.647C123.35 215.996 123.876 216.193 124.424 216.193H153.275C153.452 216.193 153.629 216.172 153.799 216.129L167.584 212.875C168.027 212.771 168.419 212.537 168.698 212.21C168.977 211.883 169.128 211.482 169.127 211.07V206.999C169.127 206.51 168.913 206.041 168.531 205.693C168.15 205.345 167.631 205.148 167.088 205.143Z" fill="white"/>
    <path d="M152.73 216.193C153.001 216.208 153.272 216.172 153.526 216.088C153.781 216.004 154.013 215.873 154.208 215.704C154.404 215.535 154.559 215.331 154.662 215.106C154.766 214.88 154.817 214.638 154.812 214.393V210.323C154.812 209.829 154.594 209.355 154.206 209.006C153.818 208.656 153.293 208.46 152.744 208.46H124.424C124.067 208.45 123.714 208.525 123.398 208.676C123.083 208.827 122.817 209.049 122.626 209.321C122.44 209.605 122.342 209.929 122.343 210.259V214.33C122.343 214.824 122.561 215.298 122.948 215.647C123.336 215.996 123.862 216.193 124.41 216.193H152.73Z" fill="#263238"/>
    <path opacity="0.5" d="M152.73 216.193C153.001 216.208 153.272 216.172 153.526 216.088C153.781 216.004 154.013 215.873 154.208 215.704C154.404 215.535 154.559 215.331 154.662 215.106C154.766 214.88 154.817 214.638 154.812 214.393V210.323C154.812 209.829 154.594 209.355 154.206 209.006C153.818 208.656 153.293 208.46 152.744 208.46H124.424C124.067 208.45 123.714 208.525 123.398 208.676C123.083 208.827 122.817 209.049 122.626 209.321C122.44 209.605 122.342 209.929 122.343 210.259V214.33C122.343 214.824 122.561 215.298 122.948 215.647C123.336 215.996 123.862 216.193 124.41 216.193H152.73Z" fill="white"/>
    <path d="M129.196 211.038H124.608C124.461 211.038 124.32 210.985 124.215 210.892C124.11 210.799 124.051 210.673 124.049 210.54C124.049 210.406 124.108 210.278 124.213 210.184C124.318 210.089 124.46 210.036 124.608 210.036H129.21C129.358 210.036 129.501 210.089 129.606 210.184C129.711 210.278 129.769 210.406 129.769 210.54C129.77 210.607 129.755 210.673 129.725 210.735C129.696 210.797 129.654 210.852 129.6 210.899C129.547 210.945 129.483 210.982 129.414 211.005C129.344 211.029 129.27 211.04 129.196 211.038Z" fill="white"/>
    <path d="M129.196 212.862H124.608C124.461 212.862 124.32 212.81 124.215 212.717C124.11 212.624 124.051 212.497 124.049 212.365C124.049 212.231 124.108 212.103 124.213 212.008C124.318 211.914 124.46 211.861 124.608 211.861H129.21C129.358 211.861 129.501 211.914 129.606 212.008C129.711 212.103 129.769 212.231 129.769 212.365C129.77 212.432 129.755 212.498 129.725 212.56C129.696 212.621 129.654 212.677 129.6 212.723C129.547 212.77 129.483 212.806 129.414 212.83C129.344 212.854 129.27 212.865 129.196 212.862Z" fill="white"/>
    <path d="M129.196 214.687H124.608C124.461 214.687 124.32 214.635 124.215 214.542C124.11 214.448 124.051 214.322 124.049 214.189C124.049 214.123 124.063 214.058 124.091 213.996C124.12 213.935 124.161 213.88 124.213 213.833C124.265 213.786 124.326 213.749 124.394 213.724C124.462 213.698 124.535 213.685 124.608 213.685H129.21C129.284 213.685 129.356 213.698 129.424 213.724C129.492 213.749 129.554 213.786 129.606 213.833C129.658 213.88 129.699 213.935 129.727 213.996C129.755 214.058 129.769 214.123 129.769 214.189C129.77 214.256 129.755 214.323 129.725 214.384C129.696 214.446 129.654 214.502 129.6 214.548C129.547 214.595 129.483 214.631 129.414 214.655C129.344 214.679 129.27 214.69 129.196 214.687Z" fill="white"/>
    <path d="M149.53 213.73C149.36 213.577 149.13 213.491 148.889 213.491C148.649 213.491 148.418 213.577 148.249 213.73L147.611 213.149C147.779 212.998 147.978 212.878 148.198 212.796C148.417 212.714 148.652 212.672 148.889 212.672C149.127 212.672 149.362 212.714 149.581 212.796C149.8 212.878 150 212.998 150.167 213.149L149.53 213.73Z" fill="#FFBD2B"/>
    <path d="M147.073 212.664L146.429 212.084C146.752 211.788 147.138 211.552 147.563 211.392C147.989 211.231 148.445 211.148 148.907 211.148C149.368 211.148 149.825 211.231 150.25 211.392C150.675 211.552 151.061 211.788 151.385 212.084L150.74 212.664C150.249 212.235 149.591 211.995 148.907 211.995C148.222 211.995 147.564 212.235 147.073 212.664Z" fill="#FFBD2B"/>
    <path d="M146.068 211.752L145.423 211.172C146.343 210.344 147.59 209.88 148.889 209.88C150.188 209.88 151.435 210.344 152.355 211.172L151.71 211.752C150.962 211.079 149.947 210.7 148.889 210.7C147.831 210.7 146.816 211.079 146.068 211.752Z" fill="#FFBD2B"/>
    <g opacity="0.3">
    <path d="M149.53 213.73C149.36 213.577 149.129 213.491 148.889 213.491C148.648 213.491 148.418 213.577 148.248 213.73L147.611 213.149C147.779 212.998 147.978 212.878 148.197 212.796C148.416 212.714 148.651 212.672 148.889 212.672C149.126 212.672 149.361 212.714 149.581 212.796C149.8 212.878 149.999 212.998 150.167 213.149L149.53 213.73Z" fill="black"/>
    <path d="M147.073 212.664L146.429 212.084C146.752 211.788 147.138 211.552 147.563 211.392C147.989 211.231 148.445 211.148 148.907 211.148C149.368 211.148 149.825 211.231 150.25 211.392C150.675 211.552 151.061 211.788 151.385 212.084L150.74 212.664C150.249 212.235 149.591 211.995 148.907 211.995C148.222 211.995 147.564 212.235 147.073 212.664Z" fill="black"/>
    <path d="M146.068 211.752L145.423 211.172C146.343 210.344 147.59 209.88 148.889 209.88C150.188 209.88 151.435 210.344 152.355 211.172L151.71 211.752C150.962 211.079 149.947 210.7 148.889 210.7C147.831 210.7 146.816 211.079 146.068 211.752Z" fill="black"/>
    </g>
    <path d="M300.858 116.543C300.39 119.172 299.98 123.019 302.075 124.697C302.075 124.697 302.075 127.37 293.976 130.516C290.868 126.783 293.027 124.991 293.027 124.991C296.241 124.193 296.107 123.006 295.47 120.99L300.858 116.543Z" fill="#FF8B7B"/>
    <path opacity="0.2" d="M298.67 118.336L295.505 120.99C295.662 121.457 295.773 121.935 295.838 122.419C297.077 122.222 298.981 121.214 299.201 119.989C299.178 119.407 298.996 118.839 298.67 118.336Z" fill="black"/>
    <path d="M304.44 111.937C303.307 116.269 302.932 118.113 300.05 119.976C295.718 122.777 290.068 120.569 289.742 116.027C289.459 111.937 291.37 105.525 296.454 104.543C297.574 104.316 298.741 104.352 299.842 104.646C300.942 104.941 301.941 105.486 302.742 106.227C303.543 106.969 304.12 107.883 304.417 108.883C304.714 109.882 304.722 110.934 304.44 111.937Z" fill="#FF8B7B"/>
    <path d="M296.517 111.88C296.447 112.237 296.185 112.518 295.93 112.454C295.675 112.39 295.512 112.09 295.576 111.733C295.64 111.376 295.916 111.095 296.171 111.159C296.425 111.223 296.567 111.535 296.517 111.88Z" fill="#263238"/>
    <path d="M292.057 111.191C291.986 111.554 291.717 111.829 291.462 111.765C291.207 111.701 291.052 111.401 291.115 111.05C291.179 110.699 291.455 110.412 291.71 110.476C291.965 110.54 292.121 110.84 292.057 111.191Z" fill="#263238"/>
    <path d="M293.31 112.052C292.801 112.809 292.179 113.5 291.462 114.106C291.641 114.266 291.855 114.389 292.091 114.467C292.327 114.545 292.578 114.577 292.829 114.559L293.31 112.052Z" fill="#F84A35"/>
    <path d="M294.712 116.288C294.512 116.287 294.313 116.27 294.117 116.237C294.087 116.233 294.059 116.217 294.041 116.195C294.022 116.172 294.014 116.144 294.018 116.116C294.025 116.088 294.044 116.064 294.07 116.048C294.097 116.033 294.129 116.027 294.16 116.033C294.649 116.118 295.154 116.098 295.634 115.975C296.113 115.852 296.554 115.629 296.921 115.325C296.944 115.305 296.974 115.293 297.006 115.293C297.038 115.293 297.068 115.305 297.091 115.325C297.112 115.346 297.123 115.373 297.123 115.401C297.123 115.43 297.112 115.457 297.091 115.478C296.774 115.749 296.4 115.96 295.992 116.099C295.583 116.238 295.148 116.302 294.712 116.288Z" fill="#263238"/>
    <path d="M298.443 110.808C298.403 110.834 298.355 110.849 298.305 110.849C298.255 110.849 298.207 110.834 298.167 110.808C297.854 110.609 297.499 110.47 297.123 110.401C296.748 110.332 296.361 110.334 295.986 110.406C295.955 110.412 295.923 110.413 295.891 110.409C295.86 110.404 295.829 110.393 295.802 110.378C295.775 110.362 295.752 110.342 295.734 110.319C295.716 110.295 295.703 110.268 295.696 110.24C295.683 110.186 295.695 110.129 295.728 110.083C295.761 110.036 295.813 110.003 295.873 109.991C296.322 109.902 296.787 109.9 297.237 109.987C297.686 110.074 298.11 110.247 298.478 110.495C298.5 110.514 298.518 110.537 298.529 110.562C298.541 110.587 298.547 110.615 298.547 110.642C298.547 110.669 298.541 110.696 298.529 110.722C298.518 110.747 298.5 110.77 298.478 110.789C298.467 110.796 298.456 110.803 298.443 110.808Z" fill="#263238"/>
    <path d="M290.747 109.57C290.707 109.559 290.671 109.539 290.641 109.513C290.611 109.486 290.59 109.453 290.577 109.417C290.562 109.363 290.57 109.305 290.601 109.257C290.631 109.208 290.681 109.172 290.74 109.155C291.101 109.058 291.483 109.04 291.853 109.105C292.223 109.169 292.57 109.314 292.864 109.525C292.905 109.564 292.927 109.616 292.927 109.669C292.927 109.722 292.905 109.774 292.864 109.813C292.821 109.851 292.762 109.872 292.701 109.872C292.641 109.872 292.582 109.851 292.539 109.813C292.304 109.651 292.03 109.543 291.739 109.496C291.449 109.45 291.15 109.466 290.868 109.545C290.831 109.562 290.789 109.571 290.747 109.57Z" fill="#263238"/>
    <path d="M269.967 139.684L264.006 134.478L263.638 131.926C263.603 131.675 263.496 131.437 263.327 131.235C263.158 131.034 262.933 130.876 262.675 130.777L261.486 130.324C261.155 130.195 260.881 129.971 260.707 129.686L260.289 128.997C260.175 128.812 260.017 128.651 259.827 128.527C259.637 128.402 259.418 128.317 259.188 128.277C258.957 128.237 258.719 128.243 258.491 128.294C258.263 128.346 258.05 128.442 257.868 128.576C257.682 128.711 257.532 128.882 257.429 129.077C257.326 129.271 257.273 129.484 257.273 129.699V133.342C257.272 133.586 257.341 133.826 257.472 134.039C257.604 134.253 257.793 134.432 258.023 134.561L261.67 136.64L267.624 143.091L269.967 139.684Z" fill="#FF8B7B"/>
    <path d="M288.864 125.278C288.864 125.278 284.878 125.916 277.373 138.88L276.12 140.998C275.961 141.26 275.74 141.487 275.472 141.662C275.203 141.836 274.895 141.955 274.569 142.009C274.244 142.063 273.909 142.05 273.589 141.973C273.269 141.895 272.973 141.754 272.722 141.559L268.332 138.172L265.557 141.872C265.557 141.872 272.75 150.211 276.885 149.56C281.019 148.909 286.032 137.974 286.032 137.974C286.032 137.974 292.156 123.632 288.864 125.278Z" fill="#FFBD2B"/>
    <path opacity="0.1" d="M280.099 147.378C283.228 144.029 286.032 137.955 286.032 137.955C286.032 137.955 287.094 135.473 288.092 132.691L284.488 130.471C284.488 130.471 280.601 141.636 280.099 147.378Z" fill="black"/>
    <path d="M293.792 249.522L292.999 258.007L287.717 257.714L287.639 249.554L293.792 249.522Z" fill="#FF8B7B"/>
    <path d="M285.38 257.892C284.806 257.95 284.228 257.814 283.759 257.51C283.699 257.435 283.667 257.346 283.667 257.254C283.667 257.163 283.699 257.073 283.759 256.999C283.853 256.865 284 256.767 284.17 256.725C285.09 256.502 287.002 257.497 287.094 257.542C287.116 257.554 287.135 257.572 287.146 257.593C287.157 257.615 287.161 257.639 287.157 257.663C287.152 257.686 287.14 257.708 287.121 257.725C287.102 257.742 287.078 257.754 287.051 257.758C286.5 257.847 285.941 257.891 285.38 257.892ZM284.502 256.923C284.419 256.924 284.336 256.935 284.255 256.955C284.201 256.962 284.149 256.98 284.105 257.009C284.06 257.038 284.024 257.076 284 257.12C283.901 257.261 283.936 257.337 284 257.376C284.255 257.701 285.642 257.714 286.669 257.599C286.002 257.251 285.266 257.021 284.502 256.923Z" fill="#FFBD2B"/>
    <path d="M287.044 257.752C287.036 257.757 287.026 257.759 287.016 257.759C287.006 257.759 286.996 257.757 286.988 257.752C286.329 257.49 285.012 256.406 285.133 255.838C285.133 255.698 285.26 255.538 285.621 255.506C285.748 255.496 285.877 255.509 285.998 255.544C286.12 255.579 286.232 255.636 286.329 255.71C287.037 256.234 287.172 257.573 287.179 257.624C287.181 257.641 287.178 257.659 287.171 257.675C287.164 257.691 287.152 257.705 287.138 257.715C287.123 257.726 287.105 257.734 287.086 257.737C287.068 257.74 287.048 257.738 287.03 257.733L287.044 257.752ZM285.706 255.736H285.628C285.395 255.736 285.381 255.838 285.373 255.87C285.338 256.208 286.202 257.05 286.881 257.42C286.821 256.858 286.574 256.324 286.173 255.889C286.046 255.794 285.886 255.742 285.72 255.742L285.706 255.736Z" fill="#FFBD2B"/>
    <path d="M287.632 257.069H293.65C293.76 257.07 293.866 257.105 293.951 257.167C294.036 257.23 294.095 257.317 294.117 257.414L295.186 261.829C295.233 262.017 295.195 262.213 295.081 262.376C294.967 262.539 294.786 262.654 294.577 262.697C294.521 262.703 294.464 262.703 294.408 262.697C292.241 262.652 290.308 262.537 287.611 262.531C284.425 262.531 285.232 262.869 281.487 262.901C279.228 262.901 278.824 260.604 279.78 260.495C284.163 260.017 284.623 258.824 286.322 257.42C286.696 257.162 287.162 257.037 287.632 257.069Z" fill="#263238"/>
    <path opacity="0.2" d="M293.317 254.588L287.682 254.479L287.639 249.554L293.792 249.522L293.317 254.588Z" fill="#263238"/>
    <path d="M285.72 164.91C285.72 164.91 284.467 195.126 284.489 205.2C284.524 217.054 286.804 252.584 286.804 252.584H294.202C295.841 242.629 296.669 232.579 296.68 222.515C296.631 217.156 295.328 211.784 295.902 206.872C297.119 196.332 301.757 192.421 301.912 164.91H285.72Z" fill="#263238"/>
    <path opacity="0.2" d="M298.33 179.074L296.1 176.554C295.059 186.882 294.969 197.27 295.831 207.612C295.831 207.363 295.873 207.114 295.901 206.872C296.709 199.854 299.024 195.802 300.532 185.818L298.33 179.074Z" fill="black"/>
    <path d="M310.054 249.343L309.835 257.86H304.539L303.916 249.72L310.054 249.343Z" fill="#FF8B7B"/>
    <path d="M301.997 257.892C301.425 257.949 300.85 257.813 300.383 257.51C300.323 257.435 300.291 257.346 300.291 257.254C300.291 257.163 300.323 257.073 300.383 256.999C300.477 256.865 300.624 256.767 300.794 256.725C301.714 256.502 303.626 257.497 303.718 257.542C303.74 257.554 303.759 257.572 303.77 257.593C303.781 257.615 303.785 257.639 303.782 257.663C303.776 257.686 303.764 257.708 303.745 257.725C303.726 257.742 303.702 257.754 303.675 257.758C303.121 257.847 302.56 257.892 301.997 257.892ZM301.127 256.923C301.043 256.923 300.959 256.934 300.879 256.955C300.825 256.962 300.773 256.98 300.729 257.009C300.684 257.038 300.648 257.076 300.624 257.12C300.525 257.261 300.56 257.337 300.624 257.376C300.879 257.701 302.266 257.714 303.293 257.599C302.626 257.251 301.89 257.021 301.127 256.923Z" fill="#FFBD2B"/>
    <path d="M303.668 257.752C303.66 257.757 303.65 257.759 303.64 257.759C303.63 257.759 303.62 257.757 303.612 257.752C302.953 257.49 301.636 256.406 301.757 255.838C301.757 255.698 301.884 255.538 302.245 255.506C302.372 255.496 302.501 255.509 302.622 255.544C302.744 255.579 302.856 255.636 302.953 255.71C303.661 256.234 303.796 257.573 303.803 257.624C303.803 257.645 303.798 257.665 303.787 257.683C303.775 257.701 303.759 257.716 303.739 257.727C303.72 257.742 303.695 257.751 303.668 257.752ZM302.316 255.742H302.238C302.005 255.742 301.99 255.844 301.976 255.876C301.941 256.214 302.812 257.057 303.491 257.427C303.434 256.863 303.187 256.329 302.783 255.895C302.658 255.802 302.5 255.75 302.337 255.749L302.316 255.742Z" fill="#FFBD2B"/>
    <path d="M304.256 257.069H310.267C310.378 257.07 310.485 257.104 310.571 257.167C310.657 257.229 310.717 257.317 310.741 257.414L311.81 261.829C311.857 262.017 311.819 262.213 311.705 262.376C311.591 262.539 311.41 262.654 311.201 262.697C311.145 262.703 311.088 262.703 311.032 262.697C308.865 262.652 306.932 262.537 304.235 262.531C301.049 262.531 301.856 262.869 298.111 262.901C295.852 262.901 295.448 260.604 296.404 260.495C300.787 260.017 301.247 258.824 302.946 257.42C303.32 257.162 303.786 257.037 304.256 257.069Z" fill="#263238"/>
    <path opacity="0.2" d="M309.92 254.428L304.291 254.626L303.916 249.72L310.054 249.343L309.92 254.428Z" fill="#263238"/>
    <path d="M295.286 164.91C295.286 164.91 297.452 195.821 298.16 206.125C298.96 217.743 303.116 252.584 303.116 252.584H310.678C310.678 252.584 311.98 236.991 311.775 222.7C311.69 216.639 309.566 210.929 309.439 206.501C309.276 200.759 312.979 180.088 310.713 163.341L295.286 164.91Z" fill="#263238"/>
    <path d="M291.172 124.889C286.782 125.386 283.568 126.279 283.773 139.62C283.979 152.961 284.616 166.295 284.616 166.295H311.52C311.52 166.295 310.281 145.917 311.52 137.585C312.759 129.252 311.931 125.169 306.175 124.889C300.419 124.608 295.045 124.455 291.172 124.889Z" fill="#FFBD2B"/>
    <path d="M292.814 123.453V125.15C292.814 125.15 293.402 126.834 298.478 126.745C303.555 126.656 303.994 124.621 303.994 124.621V123.389C303.994 123.181 303.943 122.975 303.844 122.787C303.746 122.598 303.601 122.432 303.423 122.3C303.244 122.168 303.034 122.074 302.81 122.024C302.585 121.974 302.351 121.969 302.125 122.011C299.608 122.382 297.043 122.397 294.521 122.056C294.305 122.037 294.087 122.059 293.881 122.121C293.675 122.183 293.485 122.283 293.325 122.414C293.164 122.546 293.036 122.706 292.948 122.885C292.86 123.064 292.814 123.257 292.814 123.453Z" fill="#FFBD2B"/>
    <path opacity="0.1" d="M267.213 143.595L269.854 139.301L268.559 138.299L265.996 142.312C266.279 142.625 266.697 143.071 267.213 143.595Z" fill="black"/>
    <path d="M267.737 136.979L264.495 141.706L265.578 143.697L269.486 137.999L267.737 136.979Z" fill="#FFBD2B"/>
    <path opacity="0.1" d="M298.507 126.745C293.402 126.834 292.843 125.15 292.843 125.15V124.748C292.843 124.748 291.342 127.37 295.774 127.791C300.206 128.213 303.137 126.292 303.753 125.15C303.236 125.75 301.927 126.681 298.507 126.745Z" fill="black"/>
    <path opacity="0.1" d="M311.3 132.411H307.378C307.378 132.411 309.544 140.105 311.024 144.635C311.059 142.289 311.227 139.947 311.527 137.617C311.732 136.207 311.874 134.931 311.952 133.789L311.3 132.411Z" fill="black"/>
    <path d="M315.017 154.071L311.52 162.824L308.773 164.604C308.583 164.726 308.429 164.887 308.322 165.073C308.215 165.259 308.158 165.466 308.157 165.676V167.156C308.157 167.29 308.136 167.423 308.093 167.552C308.033 167.722 308.012 167.903 308.032 168.081C308.052 168.259 308.113 168.432 308.209 168.588C308.306 168.745 308.438 168.882 308.595 168.991C308.753 169.1 308.934 169.179 309.127 169.223L311.088 169.651C311.364 169.716 311.656 169.705 311.925 169.619C312.194 169.532 312.428 169.374 312.596 169.166L314.012 167.43C314.203 167.205 314.305 166.929 314.302 166.646V164.094L318.699 155.251L315.017 154.071Z" fill="#FF8B7B"/>
    <path d="M306.181 124.888C308.018 125.137 309.767 125.758 311.298 126.705C312.829 127.652 314.101 128.901 315.017 130.356C318.409 135.46 321.495 146.657 320.568 151.104C320.148 153.455 319.435 155.755 318.444 157.962L313.488 156.202C314.49 153.918 314.918 151.462 314.741 149.011C314.33 145.362 306.415 131.192 306.21 129.52C306.004 127.849 304.326 125.265 306.181 124.888Z" fill="#FFBD2B"/>
    <path opacity="0.1" d="M314.146 154.3C313.955 154.951 313.719 155.59 313.438 156.214L318.394 157.975C318.726 157.284 319.014 156.577 319.258 155.857L314.146 154.3Z" fill="black"/>
    <path d="M312.603 156.999L318.451 158.766L320.356 157.363L313.311 155.232L312.603 156.999Z" fill="#FFBD2B"/>
    <path d="M296.043 107.273C294.33 106.865 289.989 105.468 292.043 101.997C294.096 98.5263 294.634 102.922 296.425 103.197C298.216 103.471 304.482 103.248 304.921 108.109C304.921 108.109 306.981 111.076 304.001 115.178C304.001 115.178 301.707 114.821 302.054 113.111C302.401 111.401 301.544 111.069 300.843 110.514C300.142 109.959 300.659 108.109 300.659 108.109C300.659 108.109 297.19 107.548 296.043 107.273Z" fill="#263238"/>
    <path d="M305.148 115.51C304.69 116.248 303.926 116.791 303.024 117.022C301.82 117.315 301.226 116.384 301.558 115.325C301.87 114.413 302.861 113.149 304.065 113.283C304.482 113.344 304.855 113.552 305.103 113.86C305.351 114.169 305.454 114.553 305.389 114.929C305.353 115.136 305.272 115.333 305.148 115.51Z" fill="#FF8B7B"/>
    <path d="M302.118 111.995L298.847 111.529C298.564 110.776 297.388 110.61 296.886 110.534C296.383 110.457 295.116 110.285 294.62 111.012L293.48 110.846C293.261 110.017 292.008 109.838 291.491 109.762C290.974 109.685 289.261 109.443 289.041 110.693C289.008 111.199 289.184 111.698 289.537 112.093C289.889 112.488 290.392 112.751 290.947 112.83C291.502 112.91 292.071 112.8 292.541 112.523C293.012 112.246 293.352 111.821 293.494 111.331C293.494 111.261 293.494 111.197 293.494 111.133L294.471 111.274C294.448 111.339 294.429 111.405 294.415 111.471C294.382 111.977 294.558 112.476 294.91 112.871C295.263 113.266 295.765 113.529 296.321 113.608C296.876 113.688 297.444 113.579 297.915 113.302C298.386 113.024 298.726 112.6 298.868 112.109C298.882 112.012 298.882 111.913 298.868 111.816L302.033 112.275C302.466 112.334 302.861 112.529 303.152 112.824L303.385 112.645C303.055 112.307 302.609 112.078 302.118 111.995ZM290.995 112.537C290.513 112.493 290.069 112.28 289.76 111.943C289.451 111.606 289.302 111.173 289.346 110.738C289.466 110.055 290.096 109.844 291.47 110.036C292.843 110.227 293.339 110.604 293.218 111.312C293.103 111.741 292.803 112.111 292.384 112.34C291.966 112.57 291.464 112.641 290.988 112.537H290.995ZM296.397 113.315C295.913 113.272 295.467 113.057 295.157 112.719C294.847 112.381 294.697 111.947 294.74 111.51C294.861 110.827 295.491 110.616 296.864 110.808C298.238 110.999 298.734 111.376 298.613 112.084C298.558 112.296 298.457 112.497 298.316 112.674C298.175 112.851 297.996 113.001 297.79 113.115C297.584 113.23 297.355 113.306 297.116 113.341C296.877 113.375 296.632 113.366 296.397 113.315Z" fill="#263238"/>
    <g opacity="0.2">
    <path d="M292.999 181.326L289.756 184.248C291.162 185.734 292.156 187.5 292.657 189.4C293.158 191.299 293.152 193.279 292.638 195.176C292.125 197.074 291.119 198.834 289.703 200.312C288.288 201.791 286.503 202.946 284.496 203.682C284.496 204.224 284.496 204.741 284.496 205.2C284.496 206.036 284.496 206.999 284.538 208.052C287.487 207.264 290.168 205.82 292.333 203.851C294.498 201.883 296.076 199.454 296.923 196.789C297.77 194.125 297.858 191.311 297.178 188.609C296.498 185.906 295.073 183.401 293.034 181.326H292.999Z" fill="black"/>
    <path d="M305.028 113.436C305.437 112.62 305.649 111.735 305.649 110.84C305.649 109.944 305.437 109.059 305.028 108.243V113.436Z" fill="black"/>
    <path d="M305.403 114.929C305.437 114.724 305.422 114.514 305.357 114.315C305.292 114.115 305.18 113.931 305.028 113.775V115.689C305.063 115.637 305.113 115.593 305.148 115.535C305.281 115.352 305.368 115.146 305.403 114.929Z" fill="black"/>
    <path d="M291.434 179.916C289.633 178.483 287.535 177.386 285.26 176.688C285.211 178.085 285.161 179.552 285.104 181.058C286.218 181.524 287.256 182.122 288.191 182.838L291.434 179.916Z" fill="black"/>
    </g>
    <path d="M63.0757 260.419L62.5093 269.504L68.145 269.912L69.5822 261.293L63.0757 260.419Z" fill="#FF8B7B"/>
    <path d="M69.4692 269.638C69.4418 269.632 69.4168 269.619 69.3969 269.601C69.3769 269.583 69.3628 269.561 69.3559 269.536C69.349 269.51 69.3514 269.483 69.3629 269.459C69.3744 269.435 69.3943 269.415 69.4196 269.402C69.5117 269.357 71.5436 268.292 72.549 268.528C72.6401 268.548 72.7258 268.585 72.8012 268.635C72.8765 268.685 72.94 268.749 72.9879 268.821C73.0504 268.902 73.0839 268.998 73.0839 269.096C73.0839 269.194 73.0504 269.29 72.9879 269.37C72.487 269.692 71.8723 269.837 71.2604 269.778C70.6599 269.779 70.0606 269.732 69.4692 269.638ZM69.9223 269.466C71.0197 269.587 72.4994 269.568 72.7543 269.223C72.7543 269.179 72.8251 269.102 72.7543 268.949C72.7267 268.903 72.6873 268.863 72.6393 268.833C72.5913 268.803 72.5361 268.784 72.4782 268.777C72.3891 268.764 72.2983 268.764 72.2092 268.777C71.4052 268.873 70.629 269.107 69.9223 269.466Z" fill="#FFBD2B"/>
    <path d="M69.384 269.632C69.3632 269.619 69.3467 269.602 69.3367 269.582C69.3266 269.561 69.3234 269.539 69.3273 269.517C69.3273 269.446 69.4831 268.017 70.2265 267.456C70.4441 267.294 70.7241 267.216 71.0053 267.239C71.3876 267.271 71.508 267.45 71.5292 267.59C71.6566 268.19 70.2406 269.344 69.5397 269.632H69.4831C69.4675 269.638 69.4506 269.641 69.4335 269.641C69.4164 269.641 69.3995 269.638 69.384 269.632ZM70.9132 267.481C70.7363 267.479 70.5645 267.535 70.4318 267.641C69.9942 268.098 69.7246 268.667 69.6601 269.268C70.3681 268.879 71.3097 267.992 71.2743 267.615C71.2743 267.615 71.2743 267.494 70.9911 267.475L70.9132 267.481Z" fill="#FFBD2B"/>
    <path d="M68.8602 268.898H62.4316C62.3142 268.901 62.2012 268.939 62.1102 269.006C62.0192 269.073 61.9555 269.165 61.9289 269.268L60.789 273.983C60.7639 274.082 60.7608 274.186 60.78 274.286C60.7991 274.387 60.8401 274.484 60.9006 274.57C60.9611 274.657 61.0399 274.731 61.1325 274.791C61.2251 274.85 61.3297 274.892 61.4404 274.914C61.5015 274.921 61.5633 274.921 61.6245 274.914C63.9396 274.87 65.9999 274.742 68.8885 274.736C72.294 274.736 71.4303 275.093 75.4305 275.131C77.8447 275.131 78.2625 272.681 77.25 272.579C72.5701 272.069 72.0745 270.793 70.2621 269.293C69.8646 269.011 69.3656 268.87 68.8602 268.898Z" fill="#263238"/>
    <path opacity="0.2" d="M62.7358 265.848L68.7184 266.493L69.5822 261.293L63.0757 260.419L62.7358 265.848Z" fill="#263238"/>
    <path d="M73.632 159.449C73.632 159.449 67.7909 162.932 67.4299 174.659C67.1679 183.132 67.7768 201.315 68.1379 210.776C68.2672 214.157 67.8522 217.538 66.906 220.812C65.2492 226.554 62.658 239.237 61.9004 264.451H69.6034C69.6034 264.451 77.9366 231.951 80.2942 217.092C82.6519 202.233 86.4538 159.449 86.4538 159.449H73.632Z" fill="#263238"/>
    <path opacity="0.4" d="M84.6064 179.182L78.4043 177.67C78.4043 177.67 78.9919 196.855 81.385 209.162C82.4611 200.517 83.6506 188.969 84.6064 179.182Z" fill="black"/>
    <path d="M86.3193 262.384L86.553 271.482H92.2099L92.8825 262.779L86.3193 262.384Z" fill="#FF8B7B"/>
    <path d="M93.1235 271.38C93.0961 271.374 93.0711 271.361 93.0512 271.343C93.0312 271.325 93.0171 271.302 93.0102 271.278C93.0033 271.252 93.0057 271.225 93.0172 271.201C93.0287 271.177 93.0486 271.157 93.0739 271.144C93.166 271.099 95.1979 270.034 96.2033 270.27C96.2944 270.29 96.3801 270.326 96.4555 270.377C96.5308 270.427 96.5943 270.49 96.6423 270.563C96.7047 270.643 96.7382 270.739 96.7382 270.837C96.7382 270.936 96.7047 271.031 96.6423 271.112C96.1413 271.434 95.5266 271.579 94.9147 271.52C94.3142 271.521 93.7149 271.474 93.1235 271.38ZM93.5766 271.207C94.674 271.322 96.1537 271.31 96.4086 270.965C96.444 270.92 96.4794 270.844 96.4086 270.691C96.3802 270.644 96.3406 270.604 96.2929 270.573C96.2451 270.542 96.1903 270.521 96.1325 270.512C96.0434 270.499 95.9526 270.499 95.8634 270.512C95.059 270.61 94.2828 270.846 93.5766 271.207Z" fill="#FFBD2B"/>
    <path d="M93.0456 271.373C93.0248 271.361 93.0084 271.344 92.9983 271.323C92.9882 271.303 92.985 271.28 92.9889 271.258C92.9889 271.188 93.1447 269.759 93.8881 269.198C93.995 269.116 94.1191 269.055 94.253 269.018C94.3868 268.98 94.5276 268.968 94.6669 268.981C95.0492 268.981 95.1696 269.191 95.1908 269.332C95.3183 269.931 93.9023 271.086 93.2013 271.373H93.1447C93.1291 271.38 93.1122 271.383 93.0952 271.383C93.0781 271.383 93.0612 271.38 93.0456 271.373ZM94.5749 269.223C94.3979 269.22 94.2261 269.277 94.0934 269.383C93.6558 269.84 93.3862 270.408 93.3217 271.01C94.0297 270.62 94.9713 269.734 94.9359 269.357C94.9359 269.325 94.936 269.23 94.6528 269.217L94.5749 269.223Z" fill="#FFBD2B"/>
    <path d="M92.5145 270.64H86.0859C85.9685 270.642 85.8555 270.68 85.7645 270.747C85.6735 270.814 85.6098 270.907 85.5832 271.01L84.4433 275.724C84.4182 275.824 84.4151 275.927 84.4343 276.028C84.4534 276.129 84.4944 276.225 84.5549 276.312C84.6153 276.398 84.6942 276.473 84.7868 276.532C84.8794 276.591 84.984 276.633 85.0947 276.656H85.2788C87.5939 276.611 89.6542 276.484 92.5428 276.477C95.9483 276.477 95.0846 276.835 99.0848 276.873C101.499 276.873 101.917 274.423 100.904 274.321C96.2244 273.81 95.7288 272.534 93.9164 271.035C93.5189 270.753 93.0199 270.612 92.5145 270.64Z" fill="#263238"/>
    <path opacity="0.2" d="M86.4609 267.82L92.4789 268.03L92.8825 262.779L86.3193 262.384L86.4609 267.82Z" fill="#263238"/>
    <path d="M79.204 162.492C79.204 162.492 75.5365 171.067 79.912 186.009C81.7457 192.268 84.9459 211.491 84.9459 211.491C85.5989 214.864 85.6491 218.311 85.0945 221.699C84.4365 225.998 84.1548 230.337 84.252 234.676C84.4361 245.943 85.3423 266.193 85.3423 266.193H93.4914C93.4914 266.193 98.0226 228.506 98.0226 215.893C98.0226 202.176 93.1303 161.191 93.1303 161.191L79.204 162.492Z" fill="#263238"/>
    <path d="M78.9775 129.087C78.9775 129.087 82.4113 128.589 81.9795 122.866C81.9795 122.866 85.0805 121.386 87.2541 122.968C89.4276 124.55 85.7602 128.71 88.4364 130.229C88.4364 130.229 86.2699 131.715 78.9775 129.087Z" fill="#FF8B7B"/>
    <path d="M93.1657 114.202C93.1657 113.819 93.4064 113.507 93.6825 113.513C93.9587 113.519 94.1852 113.832 94.1781 114.215C94.1711 114.598 93.9374 114.91 93.6613 114.904C93.3852 114.897 93.1586 114.604 93.1657 114.202Z" fill="#263238"/>
    <path d="M92.9819 114.897L95.3962 117.449C95.0623 117.702 94.6682 117.882 94.2445 117.975C93.8208 118.068 93.3791 118.071 92.9536 117.985L92.9819 114.897Z" fill="#FF5652"/>
    <path d="M91.4098 113.13C91.4499 113.137 91.4912 113.135 91.5304 113.125C91.5697 113.115 91.6059 113.097 91.6364 113.073C91.8533 112.868 92.1214 112.713 92.4182 112.621C92.715 112.529 93.032 112.502 93.3426 112.543C93.4073 112.555 93.4744 112.543 93.5299 112.511C93.5853 112.479 93.6248 112.429 93.64 112.371C93.651 112.313 93.6375 112.253 93.6021 112.203C93.5668 112.154 93.5121 112.118 93.4489 112.103C93.0585 112.046 92.6587 112.074 92.2829 112.185C91.9072 112.296 91.5665 112.487 91.2894 112.741C91.2445 112.782 91.2192 112.837 91.2192 112.894C91.2192 112.951 91.2445 113.007 91.2894 113.047C91.319 113.085 91.3611 113.114 91.4098 113.13Z" fill="#263238"/>
    <path d="M93.7604 120.659C93.5783 121.645 93.0786 122.561 92.3233 123.294C91.5681 124.027 90.5907 124.544 89.5124 124.78C88.9979 124.902 88.4716 124.979 87.9407 125.01C85.8435 125.117 83.7596 124.647 81.9652 123.664C79.1332 121.284 78.9916 119.198 78.4252 114.393C78.2875 113.372 78.421 112.335 78.8146 111.369C79.1409 110.549 79.6433 109.795 80.2931 109.149C80.943 108.504 81.7275 107.981 82.6019 107.608C83.4763 107.236 84.4234 107.023 85.3893 106.981C86.3551 106.939 87.3207 107.069 88.231 107.363C93.5976 109.098 94.695 116.25 93.7604 120.659Z" fill="#FF8B7B"/>
    <path opacity="0.2" d="M89.5478 124.767C89.0333 124.889 88.507 124.966 87.9761 124.997L88.2097 123.523C88.2097 123.523 88.7549 124.576 89.5478 124.767Z" fill="black"/>
    <path d="M93.5835 113.564L94.7446 113.347C94.7446 113.347 94.0862 114.1 93.5835 113.564Z" fill="#263238"/>
    <path d="M86.971 105.908C86.971 105.908 92.904 105.142 94.5324 109.551C96.1608 113.96 91.8137 108.275 90.7517 108.135C89.6897 107.994 93.52 112.154 88.4366 117.271L84.316 123.925C84.316 123.925 82.723 123.485 82.0079 124.193C82.0079 124.193 78.6945 123.306 77.9086 117.271C77.1227 111.235 78.5883 105.659 86.971 105.908Z" fill="#263238"/>
    <path d="M88.4365 116.473C88.4365 116.473 90.6596 115.784 90.957 117.035C91.2544 118.285 90.2561 116.754 88.4365 116.473Z" fill="#263238"/>
    <path d="M82.4894 123.817C82.4894 123.817 79.5087 123.995 80.0539 125.188C80.5991 126.381 80.6345 124.353 82.4894 123.817Z" fill="#263238"/>
    <path d="M78.8502 109.404C78.8502 109.404 68.8461 104.702 67.4372 111.637C66.0283 118.572 71.7418 120.882 69.009 125.501C66.2761 130.12 73.0658 126.917 74.3048 122.368C75.5438 117.819 76.7687 114.413 78.8502 114.362C79.2231 114.042 79.5201 113.658 79.723 113.231C79.9259 112.805 80.0306 112.347 80.0306 111.883C80.0306 111.419 79.9259 110.96 79.723 110.534C79.5201 110.108 79.2231 109.724 78.8502 109.404Z" fill="#263238"/>
    <path d="M78.8503 109.404C78.8503 109.404 78.4043 109.194 77.6963 108.932C78.5543 110.758 78.6175 112.808 77.8733 114.674C78.1605 114.491 78.4992 114.385 78.8503 114.368C79.2244 114.048 79.5223 113.664 79.7259 113.237C79.9295 112.81 80.0345 112.351 80.0345 111.886C80.0345 111.422 79.9295 110.962 79.7259 110.535C79.5223 110.109 79.2244 109.724 78.8503 109.404Z" fill="#FFBD2B"/>
    <path d="M88.1039 115.535C88.9608 116.159 89.5082 117.063 89.6261 118.049C89.7677 119.363 88.4012 119.804 87.1622 119.255C86.0365 118.764 84.6205 117.488 85.0382 116.256C85.1363 115.986 85.308 115.743 85.5376 115.548C85.7673 115.353 86.0475 115.214 86.3527 115.142C86.6578 115.07 86.978 115.068 87.284 115.137C87.59 115.206 87.8719 115.343 88.1039 115.535Z" fill="#FF8B7B"/>
    <path d="M89.4275 120.735C89.9788 120.735 90.4258 120.332 90.4258 119.836C90.4258 119.339 89.9788 118.936 89.4275 118.936C88.8761 118.936 88.4292 119.339 88.4292 119.836C88.4292 120.332 88.8761 120.735 89.4275 120.735Z" fill="#FFBD2B"/>
    <path opacity="0.7" d="M89.4275 120.735C89.9788 120.735 90.4258 120.332 90.4258 119.836C90.4258 119.339 89.9788 118.936 89.4275 118.936C88.8761 118.936 88.4292 119.339 88.4292 119.836C88.4292 120.332 88.8761 120.735 89.4275 120.735Z" fill="white"/>
    <path d="M74.8357 129.744C74.8357 129.744 68.5133 130.165 65.0724 136.691C61.6315 143.218 59.2739 155.474 67.4301 155.8C75.5862 156.125 74.8357 154.332 74.8357 154.332V151.066L69.6107 149.649C69.35 149.579 69.1079 149.462 68.899 149.306C68.6901 149.149 68.5188 148.955 68.3956 148.737C68.2724 148.518 68.1999 148.279 68.1824 148.035C68.1649 147.79 68.2028 147.545 68.2938 147.314L71.0409 140.296L74.8357 129.744Z" fill="#FFBD2B"/>
    <path opacity="0.1" d="M74.8357 129.744C74.8357 129.744 68.5133 130.165 65.0724 136.691C61.6315 143.218 59.2739 155.474 67.4301 155.8C75.5862 156.125 74.8357 154.332 74.8357 154.332V151.066L69.6107 149.649C69.35 149.579 69.1079 149.462 68.899 149.306C68.6901 149.149 68.5188 148.955 68.3956 148.737C68.2724 148.518 68.1999 148.279 68.1824 148.035C68.1649 147.79 68.2028 147.545 68.2938 147.314L71.0409 140.296L74.8357 129.744Z" fill="black"/>
    <path d="M78.9423 131.179C78.9423 131.179 76.9528 126.668 78.9423 126.751C80.9318 126.834 88.8543 127.976 90.7234 127.645C92.5926 127.313 87.5516 131.728 87.5516 131.728L78.9423 131.179Z" fill="#FFBD2B"/>
    <path d="M78.9423 131.179C78.9423 131.179 76.9528 126.668 78.9423 126.751C80.9318 126.834 88.8543 127.976 90.7234 127.645C92.5926 127.313 87.5516 131.728 87.5516 131.728L78.9423 131.179Z" fill="#263238"/>
    <path d="M69.7806 163.966C70.6411 161.82 71.0563 159.549 71.0055 157.267C70.7294 150.396 69.4904 139.562 68.8815 135.237C68.131 129.929 76.1314 128.857 84.4575 129.348C92.7836 129.839 97.4988 129.673 96.5926 138.491C95.6864 147.308 93.888 163.966 93.888 163.966H69.7806Z" fill="#FFBD2B"/>
    <path opacity="0.1" d="M96.4721 139.722C95.9867 139.109 95.4544 138.527 94.8791 137.98L91.7002 138.618C91.7002 138.618 92.6914 149.388 95.1765 151.946C95.6225 147.805 96.1039 143.301 96.4721 139.722Z" fill="black"/>
    <path d="M91.332 129.948C92.8197 129.875 94.2935 130.239 95.5328 130.984C96.7721 131.729 97.7102 132.816 98.2067 134.082C99.6227 137.393 102.525 144.743 103.991 148.533C104.07 148.733 104.212 148.909 104.4 149.038C104.588 149.167 104.814 149.244 105.049 149.26C105.285 149.275 105.521 149.229 105.728 149.126C105.934 149.023 106.103 148.868 106.214 148.679L108.175 145.349C108.175 145.349 111.071 145.84 112.161 148.124C113.252 150.408 106.724 156.629 103.276 156.616C99.4598 156.616 94.4826 148.188 93.1303 144.316C91.4863 139.68 90.8751 134.797 91.332 129.948Z" fill="#FFBD2B"/>
    <path d="M108.204 146.427L110.441 142.995C110.441 142.995 109.174 140.858 110.009 139.48C110.844 138.101 111.659 139.212 112.459 138.791C113.259 138.369 115.064 135.377 115.935 136.877C116.806 138.376 117.882 140.966 113.414 144.028L111 149.49L108.204 146.427Z" fill="#FF8B7B"/>
    <path d="M108.536 144.986C109.518 145.168 110.425 145.593 111.155 146.212C111.885 146.832 112.41 147.622 112.671 148.495V148.571C112.735 148.884 113.174 151.232 112.671 151.27C112.168 151.308 111.453 149.069 107.34 147.116C107.277 147.089 107.221 147.051 107.177 147.003C107.132 146.954 107.099 146.898 107.08 146.838C107.061 146.778 107.057 146.714 107.068 146.652C107.078 146.59 107.104 146.531 107.142 146.478L108.02 145.171C108.074 145.095 108.153 145.037 108.245 145.004C108.338 144.971 108.44 144.964 108.536 144.986Z" fill="#FFBD2B"/>
    <path d="M108.536 144.986C109.518 145.168 110.425 145.593 111.155 146.212C111.885 146.832 112.41 147.622 112.671 148.495V148.571C112.735 148.884 113.174 151.232 112.671 151.27C112.168 151.308 111.453 149.069 107.34 147.116C107.277 147.089 107.221 147.051 107.177 147.003C107.132 146.954 107.099 146.898 107.08 146.838C107.061 146.778 107.057 146.714 107.068 146.652C107.078 146.59 107.104 146.531 107.142 146.478L108.02 145.171C108.074 145.095 108.153 145.037 108.245 145.004C108.338 144.971 108.44 144.964 108.536 144.986Z" fill="#263238"/>
    <path opacity="0.1" d="M84.4645 129.348C81.4967 129.127 78.5104 129.214 75.5649 129.61C76.1738 130.299 77.6889 130.981 81.2289 131.135C86.4398 131.358 87.1478 130.28 89.1515 129.654C87.7921 129.514 86.192 129.45 84.4645 129.348Z" fill="black"/>
    </svg>
    