<svg width="500" height="500" viewBox="0 0 500 500" fill="none" xmlns="http://www.w3.org/2000/svg">
    <path d="M250 467.97C372.861 467.97 472.46 410.465 472.46 339.53C472.46 268.595 372.861 211.09 250 211.09C127.139 211.09 27.54 268.595 27.54 339.53C27.54 410.465 127.139 467.97 250 467.97Z" fill="#F5F5F5"/>
    <path d="M64.61 386.28L79.43 394.78C80.2039 395.176 81.0608 395.382 81.93 395.382C82.7993 395.382 83.6561 395.176 84.43 394.78L201.29 327.28C202.66 326.49 202.66 325.21 201.29 324.43L186.29 316C185.515 315.608 184.659 315.404 183.79 315.404C182.921 315.404 182.065 315.608 181.29 316L64.61 383.42C63.24 384.21 63.24 385.49 64.61 386.28Z" fill="#E0E0E0"/>
    <path d="M434.09 386.28L419.27 394.78C418.496 395.174 417.639 395.38 416.77 395.38C415.901 395.38 415.044 395.174 414.27 394.78L297.41 327.28C296.04 326.49 296.05 325.21 297.41 324.43L312.41 316C313.185 315.608 314.041 315.404 314.91 315.404C315.779 315.404 316.635 315.608 317.41 316L434.09 383.4C435.46 384.21 435.46 385.49 434.09 386.28Z" fill="#E0E0E0"/>
    <path d="M422.37 344.24C422.37 344.24 423.09 329.09 429.81 316.92C436.53 304.75 446.32 296.8 455.86 295.41C465.4 294.02 473.73 302.33 463.86 309.07C453.99 315.81 436.17 323.18 429.28 346.4L422.37 344.24Z" fill="#219BBA"/>
    <g opacity="0.2">
    <path d="M422.37 344.24C422.37 344.24 423.09 329.09 429.81 316.92C436.53 304.75 446.32 296.8 455.86 295.41C465.4 294.02 473.73 302.33 463.86 309.07C453.99 315.81 436.17 323.18 429.28 346.4L422.37 344.24Z" fill="black"/>
    </g>
    <path d="M424.93 340.15H424.82C424.756 340.129 424.697 340.095 424.647 340.05C424.596 340.006 424.554 339.952 424.525 339.892C424.495 339.831 424.477 339.766 424.473 339.698C424.469 339.631 424.478 339.564 424.5 339.5C432.98 313.91 451.56 302.24 460.2 299.64C460.333 299.6 460.476 299.615 460.598 299.68C460.719 299.746 460.81 299.857 460.85 299.99C460.89 300.123 460.875 300.266 460.81 300.387C460.744 300.509 460.633 300.6 460.5 300.64C452.03 303.19 433.82 314.64 425.5 339.85C425.451 339.956 425.369 340.042 425.266 340.097C425.163 340.151 425.045 340.17 424.93 340.15Z" fill="white"/>
    <path d="M477.45 339.65C476.67 341.79 474.45 343.03 472.45 344.02C470.45 345.01 468.16 346.07 467.14 348.11C465.14 352.24 469.25 357.58 467.04 361.61C466.513 362.423 465.827 363.12 465.022 363.66C464.218 364.2 463.312 364.57 462.36 364.75C460.79 365.077 459.205 365.324 457.61 365.49C456.851 365.535 456.09 365.535 455.33 365.49C453.12 365.31 450.73 365.37 448.8 366.62C445.8 368.62 445.05 372.62 443.33 375.86C442.265 377.754 440.802 379.394 439.04 380.666C437.279 381.939 435.263 382.814 433.13 383.23C431.72 383.51 429.13 383.94 427.6 383.23C427.492 383.184 427.388 383.127 427.29 383.06C427.08 382.85 426.81 382.58 426.69 382.43C426.57 382.28 426.69 382.37 426.63 382.34C425.93 380.34 426.71 378.11 426.63 375.98C426.63 375.84 426.63 375.72 426.63 375.59C426.37 373.12 426.14 370.67 425.92 368.2C425.507 363.667 425.174 359.123 424.92 354.57C424.76 351.62 424.19 348.41 425.25 345.57C426.44 342.42 429.87 342.13 430.98 339.04C431.42 337.81 431.61 336.51 432.03 335.27C432.695 333.445 433.849 331.838 435.366 330.624C436.882 329.411 438.704 328.638 440.63 328.39C446.63 327.69 452.32 332.19 458.29 331.39C459.84 331.16 461.29 330.59 462.83 330.21C467.64 328.98 473.35 329.99 476.36 333.93C476.988 334.726 477.415 335.661 477.604 336.657C477.794 337.652 477.741 338.679 477.45 339.65Z" fill="#219BBA"/>
    <path d="M425.45 372.87H425.4C425.268 372.843 425.151 372.765 425.076 372.653C425.001 372.54 424.974 372.403 425 372.27C431.25 340.59 463.76 333.93 471.47 333.98C471.605 333.985 471.734 334.042 471.829 334.139C471.923 334.235 471.978 334.365 471.98 334.5C471.98 334.568 471.967 334.635 471.94 334.698C471.914 334.76 471.876 334.817 471.827 334.864C471.779 334.912 471.721 334.949 471.658 334.974C471.595 334.999 471.528 335.011 471.46 335.01C463.92 334.96 432.12 341.47 426.01 372.47C425.984 372.595 425.911 372.705 425.808 372.779C425.704 372.853 425.577 372.885 425.45 372.87Z" fill="white"/>
    <path d="M460.85 354.7C460.746 354.684 460.649 354.639 460.57 354.57C457.369 352.144 453.673 350.454 449.744 349.621C445.815 348.788 441.75 348.832 437.84 349.75C437.775 349.764 437.707 349.766 437.641 349.754C437.574 349.742 437.511 349.718 437.454 349.681C437.398 349.645 437.349 349.598 437.31 349.543C437.272 349.488 437.245 349.426 437.23 349.36C437.216 349.294 437.214 349.226 437.226 349.16C437.238 349.094 437.263 349.031 437.299 348.974C437.335 348.918 437.382 348.869 437.437 348.83C437.492 348.792 437.555 348.764 437.62 348.75C441.689 347.801 445.918 347.761 450.004 348.634C454.091 349.507 457.934 351.271 461.26 353.8C461.341 353.874 461.397 353.972 461.418 354.08C461.44 354.187 461.428 354.299 461.382 354.399C461.337 354.499 461.261 354.582 461.165 354.636C461.07 354.69 460.959 354.712 460.85 354.7Z" fill="white"/>
    <path d="M74.9103 340.86C74.3771 334.34 72.8739 327.936 70.4503 321.86C66.4503 312.08 58.8703 302.22 50.1003 300.36C41.3303 298.5 37.6003 304.41 39.4503 310.21C41.0503 315.21 47.5703 319.35 52.5203 323.71C57.4703 328.07 66.7203 338.6 69.2903 348.78L74.2403 349.32L74.9103 340.86Z" fill="#219BBA"/>
    <g opacity="0.15">
    <path d="M74.9103 340.86C74.3771 334.34 72.8739 327.936 70.4503 321.86C66.4503 312.08 58.8703 302.22 50.1003 300.36C41.3303 298.5 37.6003 304.41 39.4503 310.21C41.0503 315.21 47.5703 319.35 52.5203 323.71C57.4703 328.07 66.7203 338.6 69.2903 348.78L74.2403 349.32L74.9103 340.86Z" fill="black"/>
    </g>
    <path d="M71.5302 345.45C71.3884 345.448 71.2529 345.392 71.1508 345.293C71.0487 345.195 70.9878 345.062 70.9802 344.92C70.0602 319.33 45.0402 305.03 44.7802 304.92C44.6476 304.848 44.5488 304.727 44.5057 304.583C44.4626 304.438 44.4786 304.283 44.5502 304.15C44.6218 304.017 44.7431 303.919 44.8875 303.876C45.0319 303.832 45.1876 303.848 45.3202 303.92C45.5802 304.07 71.1402 318.68 72.0902 344.92C72.0929 345.067 72.0378 345.209 71.9368 345.315C71.8358 345.422 71.697 345.485 71.5502 345.49L71.5302 345.45Z" fill="white"/>
    <path d="M71.8201 380.42C71.8201 380.42 66.7001 383.65 58.7101 382.28C56.1275 381.942 53.7186 380.794 51.8301 379C49.7701 376.87 49.4401 374.73 48.8301 371.88C48.6718 370.691 48.2628 369.549 47.6301 368.53C45.9101 366.17 42.4901 366.21 39.6301 365.6C35.6301 364.73 31.8701 361.82 30.7001 357.86C29.5301 353.9 31.4301 349.06 35.2601 347.5L30.5601 344.5C29.1053 343.645 27.7618 342.614 26.5601 341.43C25.3551 340.22 24.6423 338.606 24.5601 336.9C24.636 335.65 25.064 334.446 25.7948 333.429C26.5256 332.411 27.5294 331.621 28.6901 331.15C31.0332 330.251 33.5737 329.992 36.0501 330.4C38.554 330.699 41.0163 331.279 43.3901 332.13C44.0375 332.424 44.739 332.581 45.4501 332.59C46.3921 332.431 47.2734 332.02 48.0001 331.4C53.3801 327.85 62.1401 328.12 65.0001 334.81C65.4301 335.81 65.6801 336.81 66.1301 337.81C67.8101 341.41 72.5101 340.33 75.5401 342.01C76.4993 342.611 77.314 343.417 77.9259 344.369C78.5379 345.322 78.932 346.398 79.0801 347.52C79.6801 351.09 78.6901 355.15 78.0801 358.68C77.4701 362.21 76.5901 365.48 75.6301 368.82C74.8501 371.58 73.9901 374.31 73.0701 377.02C72.8101 377.63 72.3801 380.06 71.8201 380.42Z" fill="#219BBA"/>
    <path d="M75 372.17C72.3142 364.794 67.9091 358.164 62.1501 352.83C62.0907 352.704 61.9876 352.605 61.8601 352.55C60.2004 350.991 58.4614 349.519 56.6501 348.14C55.9709 343.399 56.5823 338.563 58.42 334.14C58.4509 334.074 58.4685 334.003 58.4719 333.931C58.4753 333.858 58.4644 333.786 58.4398 333.718C58.4152 333.649 58.3774 333.587 58.3285 333.533C58.2796 333.479 58.2207 333.436 58.155 333.405C58.0894 333.374 58.0183 333.356 57.9458 333.353C57.8733 333.35 57.8009 333.361 57.7327 333.385C57.6644 333.41 57.6017 333.448 57.548 333.497C57.4944 333.545 57.4509 333.604 57.42 333.67C55.6153 337.944 54.9271 342.607 55.42 347.22C48.0538 341.911 39.8832 337.819 31.22 335.1C31.1504 335.08 31.0776 335.075 31.0059 335.084C30.9342 335.093 30.865 335.117 30.8025 335.153C30.74 335.19 30.6855 335.238 30.6421 335.296C30.5988 335.354 30.5674 335.42 30.55 335.49C30.5304 335.559 30.5246 335.631 30.5331 335.702C30.5416 335.773 30.5642 335.842 30.5996 335.905C30.635 335.967 30.6824 336.022 30.7391 336.066C30.7959 336.109 30.8608 336.142 30.93 336.16C31.16 336.23 46.7701 340.65 59.6501 352.01C51.7501 350.62 42.3101 354.44 41.8801 354.62C41.7613 354.668 41.6631 354.756 41.6021 354.868C41.5412 354.981 41.5215 355.111 41.5464 355.237C41.5713 355.362 41.6392 355.475 41.7384 355.556C41.8377 355.637 41.962 355.681 42.09 355.68C42.1593 355.694 42.2308 355.694 42.3 355.68C42.41 355.63 53.49 351.15 61.3 353.58C66.9745 358.813 71.3153 365.328 73.96 372.58C73.9987 372.687 74.0693 372.78 74.1622 372.846C74.2551 372.912 74.366 372.949 74.4801 372.95H74.6601C74.7374 372.926 74.8086 372.886 74.869 372.832C74.9293 372.779 74.9773 372.712 75.0096 372.638C75.0419 372.564 75.0578 372.484 75.0561 372.403C75.0545 372.322 75.0353 372.243 75 372.17Z" fill="white"/>
    <path d="M57.2804 181.15C55.9052 182.711 54.1269 183.863 52.1404 184.48L51.9304 184.53H51.7704L51.4204 184.59H51.0204H50.7604C50.721 184.6 50.6797 184.6 50.6404 184.59C49.8427 184.593 49.0623 184.358 48.3994 183.914C47.7366 183.47 47.2215 182.839 46.9204 182.1C46.6331 181.443 46.4509 180.744 46.3804 180.03C46.6904 179.89 47.0004 179.72 47.3204 179.54C49.6273 178.036 51.5468 176.008 52.9229 173.622C54.299 171.237 55.093 168.56 55.2404 165.81C55.2404 165.43 55.2404 165.07 55.2404 164.74C56.114 164.324 57.073 164.118 58.0404 164.14H58.2104H58.3504C58.3999 164.13 58.4508 164.13 58.5004 164.14C59.1868 164.243 59.8345 164.524 60.3797 164.953C60.925 165.383 61.3491 165.947 61.6104 166.59C63.2404 170.42 61.3204 176.89 57.2804 181.15Z" fill="#219BBA"/>
    <path d="M71.9299 169.13C71.8518 169.092 71.7666 169.072 71.6799 169.07L68.2999 168.88C68.226 168.883 68.1524 168.87 68.0833 168.844C68.0142 168.818 67.9512 168.777 67.898 168.726C67.8448 168.675 67.8025 168.613 67.7736 168.545C67.7447 168.477 67.7299 168.404 67.7299 168.33C67.7799 167.79 67.7999 167.26 67.8099 166.75C67.8142 166.189 67.7875 165.628 67.7299 165.07C67.7405 164.703 67.8744 164.351 68.1099 164.07L71.8799 159.49C71.9947 159.366 72.076 159.214 72.1162 159.05C72.1564 158.885 72.1543 158.713 72.1099 158.55L70.3199 154.55C70.297 154.499 70.2585 154.457 70.2099 154.43C70.1066 154.395 69.995 154.394 69.8909 154.427C69.7868 154.459 69.6955 154.523 69.6299 154.61L65.6299 158.29C65.5225 158.412 65.3766 158.493 65.2164 158.521C65.0563 158.548 64.8916 158.519 64.7499 158.44C64.2315 158.02 63.6513 157.683 63.0299 157.44C62.8912 157.389 62.7746 157.291 62.6998 157.163C62.6251 157.036 62.5969 156.886 62.6199 156.74L63.8599 151.09C63.879 151.014 63.8728 150.934 63.8421 150.861C63.8114 150.789 63.758 150.729 63.6899 150.69C63.5745 150.636 63.4464 150.615 63.3199 150.63L59.3199 151.02C59.1385 151.042 58.9653 151.109 58.8154 151.213C58.6655 151.318 58.5434 151.457 58.4599 151.62L56.3199 157.36C56.1342 157.725 55.8314 158.017 55.4599 158.19C54.6011 158.593 53.7781 159.068 52.9999 159.61C52.6599 159.83 52.2899 159.85 52.1499 159.61L50.1499 156.52C50.0099 156.3 49.6799 156.35 49.4199 156.62L45.0899 161.2C44.9654 161.323 44.8701 161.472 44.8112 161.636C44.7523 161.801 44.7314 161.976 44.7499 162.15L45.9599 166.23C46.0106 166.579 45.9324 166.935 45.7399 167.23C45.0066 168.34 44.3388 169.492 43.7399 170.68C43.5283 171.028 43.1921 171.281 42.7999 171.39L39.0899 172.28C38.9048 172.323 38.7323 172.408 38.5863 172.53C38.4404 172.651 38.3252 172.806 38.2499 172.98L36.3799 179.26C36.3602 179.329 36.3575 179.401 36.3719 179.471C36.3863 179.54 36.4175 179.606 36.4628 179.661C36.5081 179.716 36.566 179.759 36.6317 179.787C36.6974 179.815 36.7689 179.826 36.8399 179.82L40.2299 180.02C40.3042 180.016 40.3785 180.027 40.4482 180.053C40.5179 180.079 40.5815 180.119 40.635 180.171C40.6885 180.222 40.7308 180.284 40.7592 180.353C40.7875 180.422 40.8014 180.496 40.7999 180.57C40.705 181.655 40.705 182.745 40.7999 183.83C40.7974 184.195 40.6704 184.547 40.4399 184.83L36.6599 189.41C36.5452 189.534 36.4639 189.686 36.4236 189.85C36.3834 190.015 36.3856 190.187 36.4299 190.35L38.2199 194.35C38.2457 194.402 38.2834 194.446 38.3299 194.48C38.3755 194.495 38.4244 194.495 38.4699 194.48C38.6378 194.468 38.7948 194.393 38.9099 194.27L42.9099 190.58C43.0186 190.46 43.1651 190.38 43.3252 190.355C43.4853 190.329 43.6493 190.359 43.7899 190.44C44.3071 190.862 44.8875 191.199 45.5099 191.44C45.6506 191.492 45.7686 191.591 45.8435 191.721C45.9185 191.85 45.9455 192.002 45.9199 192.15L44.6699 197.8C44.6554 197.873 44.664 197.949 44.6944 198.017C44.7249 198.085 44.7757 198.142 44.8399 198.18C44.9525 198.242 45.0823 198.267 45.2099 198.25L49.2099 197.86C49.3913 197.838 49.5646 197.771 49.7145 197.667C49.8644 197.562 49.9864 197.423 50.0699 197.26L52.2099 191.52C52.3975 191.154 52.6995 190.859 53.0699 190.68C53.5019 190.484 53.9226 190.263 54.3299 190.02C54.7199 189.79 55.1199 189.54 55.5199 189.27C55.9199 189 56.2199 189.03 56.3599 189.27L58.3599 192.35C58.3854 192.388 58.4198 192.419 58.4599 192.44C58.6199 192.55 58.8799 192.44 59.0899 192.25L63.4199 187.68C63.5527 187.553 63.6522 187.396 63.7098 187.221C63.7673 187.047 63.7811 186.861 63.7499 186.68L62.5499 182.59C62.4902 182.241 62.5691 181.882 62.7699 181.59C63.5091 180.48 64.1771 179.324 64.7699 178.13C64.8814 177.952 65.0274 177.799 65.1991 177.679C65.3709 177.559 65.5649 177.474 65.7699 177.43L69.4699 176.54C69.6551 176.497 69.8276 176.412 69.9735 176.29C70.1194 176.169 70.2347 176.014 70.3099 175.84L72.1799 169.56C72.1879 169.471 72.1682 169.382 72.1234 169.305C72.0786 169.228 72.011 169.167 71.9299 169.13ZM52.1499 184.48L51.9299 184.53H51.7699L51.4199 184.59H51.0099H50.6399C49.8411 184.592 49.0599 184.356 48.3969 183.91C47.7339 183.464 47.2195 182.831 46.9199 182.09C46.6315 181.433 46.4492 180.734 46.3799 180.02C46.3395 179.638 46.3194 179.254 46.3199 178.87C46.5621 174.667 48.2961 170.689 51.2099 167.65C52.0903 166.705 53.1004 165.891 54.2099 165.23C54.5328 165.04 54.8668 164.87 55.2099 164.72C56.0858 164.312 57.0437 164.11 58.0099 164.13H58.1799H58.3199H58.4799C59.1645 164.235 59.8102 164.516 60.3536 164.946C60.897 165.375 61.3195 165.938 61.5799 166.58C63.2499 170.28 61.3299 176.74 57.2899 181.01C55.9348 182.625 54.154 183.827 52.1499 184.48Z" fill="#F5F5F5"/>
    <path d="M56.2803 157.39C56.0828 157.735 55.7868 158.014 55.4303 158.19C54.5806 158.592 53.7675 159.067 53.0003 159.61C52.6603 159.83 52.2903 159.85 52.1503 159.61L50.1503 156.53C50.1271 156.49 50.0922 156.459 50.0503 156.44L46.2603 154.25C46.6676 154.007 47.0883 153.786 47.5203 153.59L47.6603 153.51C47.8096 153.417 47.9473 153.306 48.0703 153.18L48.2203 153.02C48.2536 152.985 48.2807 152.944 48.3003 152.9L48.3603 152.79L56.2803 157.39Z" fill="#EBEBEB"/>
    <path d="M46.0003 166.38C46.007 166.684 45.9235 166.983 45.7603 167.24C45.0288 168.351 44.361 169.503 43.7603 170.69C43.7108 170.789 43.6468 170.88 43.5703 170.96L35.5703 166.35C35.6127 166.312 35.6497 166.268 35.6803 166.22C35.7201 166.178 35.7538 166.131 35.7803 166.08C36.3731 164.886 37.0411 163.73 37.7803 162.62C37.8197 162.564 37.8533 162.503 37.8803 162.44C37.8803 162.44 37.8803 162.36 37.8803 162.32C37.8846 162.297 37.8846 162.273 37.8803 162.25C37.8839 162.193 37.8839 162.137 37.8803 162.08C37.8949 161.994 37.8949 161.906 37.8803 161.82L46.0003 166.38Z" fill="#EBEBEB"/>
    <path d="M46.2 154.24L42.06 151.84C42.0057 151.807 41.9435 151.79 41.88 151.79C41.7924 151.796 41.7072 151.821 41.6297 151.862C41.5522 151.904 41.4842 151.961 41.43 152.03L38.84 154.77L37.1 156.6C36.9578 156.755 36.8518 156.939 36.79 157.14L42.88 160.64L44.77 161.72C44.8344 161.534 44.9365 161.364 45.07 161.22L45.13 161.16L49.4 156.64C49.4696 156.551 49.563 156.484 49.6693 156.447C49.7757 156.41 49.8904 156.404 50 156.43L46.2 154.24Z" fill="#F5F5F5"/>
    <path d="M63.5803 150.68C63.4757 150.626 63.3561 150.608 63.2403 150.63L59.2403 151.02C58.9973 151.048 58.7696 151.153 58.5903 151.32L50.5903 146.72C50.7661 146.547 50.995 146.437 51.2403 146.41L55.2403 146.02C55.3745 145.998 55.512 146.023 55.6303 146.09L56.6903 146.71L57.2203 147.01L60.6003 149.01L61.4303 149.49L62.0403 149.84L63.5803 150.68Z" fill="#F5F5F5"/>
    <path d="M43.5204 171C43.3139 171.206 43.0597 171.357 42.7804 171.44L39.0704 172.33C38.7998 172.395 38.5575 172.545 38.3804 172.76L30.3804 168.17C30.5621 167.945 30.8108 167.784 31.0904 167.71L34.8004 166.82C35.0775 166.751 35.328 166.601 35.5204 166.39L43.5204 171Z" fill="#E6E6E6"/>
    <path d="M40.7001 184.29C40.634 184.488 40.536 184.674 40.4101 184.84L36.6301 189.42C36.5211 189.556 36.4396 189.713 36.3901 189.88L28.3901 185.27C28.4312 185.096 28.5135 184.935 28.6301 184.8L32.4101 180.22C32.536 180.061 32.634 179.882 32.7001 179.69L40.7001 184.29Z" fill="#E6E6E6"/>
    <path d="M30.4702 176.24L30.5802 176.31L30.4402 176.22L30.1602 176.06L30.4702 176.24Z" fill="#E0E0E0"/>
    <path d="M57.2804 181.15C55.9052 182.711 54.1269 183.863 52.1404 184.48L51.9304 184.53H51.7704L51.4204 184.59H51.0204H50.7604C50.721 184.6 50.6797 184.6 50.6404 184.59C49.8427 184.593 49.0623 184.358 48.3994 183.914C47.7366 183.47 47.2215 182.839 46.9204 182.1C46.6331 181.443 46.4509 180.744 46.3804 180.03C46.6904 179.89 47.0004 179.72 47.3204 179.54C49.6273 178.036 51.5468 176.008 52.9229 173.622C54.299 171.237 55.093 168.56 55.2404 165.81C55.2404 165.43 55.2404 165.07 55.2404 164.74C56.114 164.324 57.073 164.118 58.0404 164.14H58.2104H58.3504C58.3999 164.13 58.4508 164.13 58.5004 164.14C59.1868 164.243 59.8345 164.524 60.3797 164.953C60.925 165.383 61.3491 165.947 61.6104 166.59C63.2404 170.42 61.3204 176.89 57.2804 181.15Z" fill="#E0E0E0"/>
    <path d="M46.0002 166.38L38.0002 161.78C38.0099 161.73 38.0099 161.68 38.0002 161.63L36.7902 157.55C36.7516 157.416 36.7516 157.274 36.7902 157.14L42.8802 160.64L44.7702 161.72C44.7277 161.867 44.7277 162.023 44.7702 162.17L45.9802 166.25C45.9924 166.292 45.9992 166.336 46.0002 166.38Z" fill="#E0E0E0"/>
    <path d="M58.64 151.32C58.5493 151.404 58.4777 151.506 58.43 151.62L56.29 157.36L48.29 152.75L50.46 147C50.502 146.886 50.5747 146.785 50.67 146.71L58.64 151.32Z" fill="#E0E0E0"/>
    <path d="M70.1404 154.42C70.0401 154.398 69.9358 154.404 69.8388 154.438C69.7418 154.471 69.6558 154.531 69.5904 154.61L65.5904 158.3C65.4803 158.421 65.3327 158.502 65.1713 158.529C65.0099 158.556 64.8441 158.528 64.7004 158.45C64.1819 158.03 63.6018 157.693 62.9804 157.45C62.8417 157.399 62.725 157.301 62.6503 157.173C62.5756 157.046 62.5473 156.896 62.5704 156.75L63.8104 151.1C63.8313 151.024 63.8258 150.943 63.795 150.87C63.7641 150.798 63.7096 150.738 63.6404 150.7L62.1304 149.82C62.1765 149.81 62.2243 149.81 62.2704 149.82L62.3604 149.88L70.1404 154.42Z" fill="#E0E0E0"/>
    <path d="M71.91 169.12C71.8318 169.082 71.7466 169.062 71.66 169.06L68.28 168.87C68.2061 168.873 68.1324 168.86 68.0633 168.834C67.9943 168.808 67.9313 168.767 67.8781 168.716C67.8248 168.665 67.7825 168.603 67.7537 168.535C67.7248 168.467 67.7099 168.394 67.71 168.32C67.76 167.78 67.79 167.25 67.79 166.73L71.91 169.12Z" fill="#E0E0E0"/>
    <path d="M30.3902 168.13C30.3354 168.203 30.2916 168.284 30.2602 168.37L30.0302 169.15L28.8102 173.25L28.4002 174.65C28.3757 174.725 28.3757 174.805 28.4002 174.88C28.4107 174.925 28.4275 174.969 28.4502 175.01C28.4809 175.046 28.5144 175.079 28.5502 175.11H28.6102L29.2402 175.48L29.4102 175.57L29.9102 175.85L30.1702 176.01L30.4802 176.19L30.5902 176.26L30.9202 176.44L32.7202 177.44L36.5202 179.64C36.444 179.591 36.386 179.519 36.3553 179.434C36.3245 179.349 36.3227 179.256 36.3502 179.17L38.0002 173.76L38.2302 172.98C38.2647 172.885 38.3155 172.797 38.3802 172.72L30.3902 168.13Z" fill="#E0E0E0"/>
    <path d="M58.4703 192.45L54.3203 190C54.7103 189.77 55.1103 189.52 55.5103 189.25C55.9103 188.98 56.2103 189.01 56.3503 189.25L58.3503 192.34C58.3785 192.388 58.4203 192.426 58.4703 192.45Z" fill="#E0E0E0"/>
    <path d="M46 192.15L44.75 197.81C44.7355 197.883 44.7441 197.959 44.7745 198.027C44.805 198.095 44.8558 198.152 44.92 198.19L38.52 194.49C38.6864 194.472 38.8418 194.398 38.96 194.28L42.96 190.6C43.0672 190.478 43.2124 190.396 43.3722 190.367C43.5319 190.338 43.6968 190.364 43.84 190.44C44.355 190.865 44.936 191.203 45.56 191.44C45.7074 191.484 45.8335 191.581 45.9146 191.712C45.9957 191.842 46.026 191.998 46 192.15Z" fill="#E0E0E0"/>
    <path d="M40.7702 183.84C40.7818 183.993 40.7578 184.147 40.7002 184.29L32.7002 179.69C32.7533 179.543 32.7771 179.386 32.7702 179.23C32.7702 178.68 32.7002 178.12 32.7002 177.54L36.5002 179.74C36.5834 179.784 36.6759 179.808 36.7702 179.81L40.1602 180C40.2349 179.997 40.3095 180.01 40.3792 180.037C40.4489 180.064 40.5124 180.105 40.5657 180.157C40.6191 180.21 40.6612 180.272 40.6895 180.342C40.7177 180.411 40.7316 180.485 40.7302 180.56C40.6474 181.652 40.6608 182.75 40.7702 183.84Z" fill="#E0E0E0"/>
    <path d="M38.2902 194.44L36.6702 193.5L36.3602 193.33L33.7502 191.81L33.0402 191.41L30.3602 189.85C30.3361 189.839 30.3154 189.822 30.3002 189.8C30.2767 189.778 30.2595 189.751 30.2502 189.72L28.4502 185.72C28.4144 185.613 28.4144 185.497 28.4502 185.39C28.4502 185.39 28.4502 185.3 28.4502 185.25L36.4502 189.86C36.3943 190.012 36.3943 190.178 36.4502 190.33L38.2402 194.33C38.2495 194.37 38.2665 194.407 38.2902 194.44Z" fill="#E0E0E0"/>
    <path d="M104.84 104.58C104.734 104.527 104.619 104.496 104.5 104.49L99.8502 104.23C99.7484 104.234 99.6468 104.217 99.5516 104.181C99.4565 104.144 99.3697 104.089 99.2967 104.018C99.2237 103.947 99.166 103.861 99.1271 103.767C99.0881 103.673 99.0688 103.572 99.0702 103.47C99.1302 102.74 99.1702 102.01 99.1802 101.3C99.1774 100.532 99.1341 99.7638 99.0502 99C99.0645 98.4996 99.2438 98.0179 99.5602 97.63L104.75 91.35C104.906 91.1759 105.016 90.9664 105.072 90.7398C105.128 90.5132 105.127 90.2764 105.07 90.05L102.6 84.6C102.573 84.5264 102.52 84.4657 102.45 84.43C102.308 84.3908 102.158 84.3935 102.018 84.4379C101.878 84.4822 101.754 84.5664 101.66 84.68L96.1102 89.74C95.9594 89.903 95.7586 90.0111 95.5395 90.0473C95.3204 90.0835 95.0955 90.0457 94.9002 89.94C94.1892 89.3586 93.3889 88.8959 92.5302 88.57C92.3352 88.4944 92.1727 88.3532 92.0705 88.1707C91.9683 87.9882 91.9328 87.7758 91.9702 87.57L93.6802 79.81C93.7114 79.7059 93.7055 79.5942 93.6636 79.4939C93.6216 79.3936 93.5462 79.3109 93.4502 79.26C93.2906 79.1762 93.1087 79.1448 92.9302 79.17L87.5102 79.71C87.2593 79.7371 87.0195 79.8275 86.8131 79.9727C86.6067 80.1178 86.4405 80.3131 86.3302 80.54L83.3602 88.4C83.1013 88.9017 82.6826 89.3028 82.1702 89.54C81.0023 90.0977 79.8819 90.7498 78.8202 91.49C78.3602 91.79 77.8202 91.81 77.6502 91.49L74.8802 87.26C74.6802 86.96 74.2402 87.02 73.8802 87.39L67.9302 93.7C67.7578 93.866 67.6264 94.07 67.5466 94.2956C67.4667 94.5213 67.4406 94.7625 67.4702 95L69.1202 100.62C69.1944 101.092 69.0872 101.574 68.8202 101.97C67.8116 103.496 66.8966 105.083 66.0802 106.72C65.7976 107.209 65.3345 107.568 64.7902 107.72L59.7002 108.94C59.4431 109.006 59.2047 109.131 59.0035 109.305C58.8024 109.478 58.6438 109.695 58.5402 109.94L56.0002 118.5C55.9749 118.594 55.9722 118.694 55.9924 118.789C56.0127 118.885 56.0553 118.974 56.1167 119.05C56.1781 119.126 56.2567 119.187 56.3459 119.227C56.4352 119.267 56.5326 119.285 56.6302 119.28L61.2902 119.54C61.3917 119.537 61.4927 119.555 61.5872 119.592C61.6817 119.629 61.7679 119.685 61.8406 119.755C61.9133 119.826 61.9711 119.911 62.0105 120.004C62.0499 120.098 62.0703 120.198 62.0702 120.3C61.9353 121.79 61.9353 123.29 62.0702 124.78C62.0666 125.281 61.8899 125.765 61.5702 126.15L56.3802 132.44C56.2226 132.611 56.1106 132.818 56.0547 133.044C55.9987 133.269 56.0006 133.505 56.0602 133.73L58.5302 139.18C58.542 139.217 58.5614 139.252 58.5872 139.281C58.6131 139.31 58.6447 139.334 58.6802 139.35C58.7421 139.369 58.8083 139.369 58.8702 139.35C59.0978 139.333 59.3113 139.234 59.4702 139.07L65.0002 134.06C65.1511 133.897 65.3519 133.789 65.571 133.753C65.79 133.717 66.0149 133.754 66.2102 133.86C66.9261 134.437 67.7252 134.902 68.5802 135.24C68.7789 135.311 68.9451 135.451 69.0482 135.635C69.1512 135.819 69.1839 136.034 69.1402 136.24L67.4402 144C67.4132 144.1 67.4201 144.207 67.4599 144.302C67.4997 144.398 67.5702 144.478 67.6602 144.53C67.816 144.614 67.995 144.646 68.1702 144.62L73.5902 144.09C73.8412 144.059 74.0809 143.968 74.2883 143.823C74.4957 143.678 74.6646 143.485 74.7802 143.26L77.7202 135.38C77.9773 134.878 78.3918 134.474 78.9002 134.23C79.4702 133.96 80.0502 133.66 80.6302 133.32C81.2102 132.98 81.7102 132.66 82.2602 132.32C82.8102 131.98 83.2602 131.99 83.4202 132.32L86.2002 136.56C86.2305 136.612 86.2758 136.654 86.3302 136.68C86.5602 136.82 86.9002 136.73 87.1902 136.42L93.1902 130.13C93.3614 129.963 93.4919 129.759 93.5717 129.534C93.6514 129.308 93.6783 129.067 93.6502 128.83L92.0002 123.14C91.928 122.667 92.0388 122.184 92.3102 121.79C93.303 120.249 94.2014 118.65 95.0002 117C95.1401 116.756 95.327 116.542 95.5501 116.37C95.7732 116.198 96.0282 116.073 96.3002 116L101.39 114.77C101.648 114.708 101.887 114.585 102.088 114.411C102.288 114.237 102.443 114.017 102.54 113.77L105.11 105.15C105.128 105.039 105.111 104.925 105.063 104.823C105.015 104.722 104.937 104.637 104.84 104.58ZM77.6602 125.66L77.3602 125.73C77.2905 125.739 77.2199 125.739 77.1502 125.73L76.6702 125.81L76.1102 125.87H75.6002C74.502 125.88 73.4266 125.557 72.5147 124.945C71.6029 124.333 70.8972 123.46 70.4902 122.44C70.0944 121.534 69.8414 120.573 69.7402 119.59C69.6779 119.069 69.6512 118.545 69.6602 118.02C69.6602 113.1 72.2202 107.02 76.3802 102.61C77.5874 101.313 78.971 100.192 80.4902 99.28C80.9312 99.0172 81.3889 98.7834 81.8602 98.58C83.0601 98.0149 84.3742 97.7343 85.7002 97.76H85.9402H86.1402H86.3502C87.2937 97.8982 88.1841 98.2825 88.9319 98.874C89.6797 99.4656 90.2585 100.244 90.6102 101.13C92.9102 106.21 90.2702 115.13 84.7202 120.95C82.8513 123.147 80.4061 124.778 77.6602 125.66Z" fill="#F5F5F5"/>
    <path d="M83.34 88.44C83.0781 88.9227 82.6679 89.3083 82.17 89.54C81.0042 90.0979 79.8841 90.7466 78.82 91.48C78.36 91.79 77.82 91.82 77.65 91.48L74.89 87.25C74.8556 87.1914 74.8029 87.1457 74.74 87.12L72 85.52C72.58 85.19 73.15 84.88 73.72 84.62L73.92 84.51C74.1255 84.385 74.3137 84.2338 74.48 84.06C74.5577 83.9908 74.6281 83.9137 74.69 83.83C74.733 83.785 74.77 83.7345 74.8 83.68L74.88 83.53L83.34 88.44Z" fill="#EBEBEB"/>
    <path d="M69.1503 100.79C69.1599 101.204 69.0449 101.612 68.8203 101.96C67.8153 103.489 66.9004 105.075 66.0803 106.71C66.0093 106.843 65.9182 106.965 65.8103 107.07L57.3003 102.16C57.3614 102.107 57.4153 102.047 57.4603 101.98C57.5081 101.92 57.5515 101.856 57.5903 101.79C58.3944 100.135 59.3064 98.5351 60.3203 97C60.3753 96.9269 60.4191 96.846 60.4503 96.76C60.4856 96.7054 60.5094 96.6441 60.5203 96.58C60.5257 96.5502 60.5257 96.5197 60.5203 96.49C60.5203 96.41 60.5203 96.33 60.5203 96.26C60.5445 96.1412 60.5445 96.0188 60.5203 95.9L69.1503 100.79Z" fill="#EBEBEB"/>
    <path d="M72.0001 85.52L66.3101 82.23C66.2376 82.1859 66.1548 82.1617 66.0701 82.16C65.9465 82.1686 65.8261 82.2023 65.716 82.259C65.606 82.3157 65.5087 82.3943 65.4301 82.49L61.8701 86.25L59.4801 88.77C59.2855 88.9852 59.1419 89.2416 59.0601 89.52L64.9701 92.9L67.5701 94.39C67.6534 94.1322 67.7935 93.8964 67.9801 93.7L68.0601 93.62L73.9301 87.41C74.0242 87.2877 74.1517 87.1953 74.2972 87.1438C74.4427 87.0924 74.6 87.0841 74.7501 87.12L72.0001 85.52Z" fill="#F5F5F5"/>
    <path d="M93.3801 79.22C93.2329 79.1535 93.0702 79.1293 92.9101 79.15L87.4801 79.69C87.1489 79.734 86.8387 79.8769 86.5901 80.1L78.0801 75.19C78.3291 74.9598 78.6437 74.813 78.9801 74.77L84.4101 74.23C84.593 74.2018 84.78 74.2371 84.9401 74.33L86.4001 75.18L87.1201 75.6L89.3101 76.87L90.4601 77.54C90.7501 77.69 91.0301 77.86 91.2901 78.01L93.3801 79.22Z" fill="#F5F5F5"/>
    <path d="M65.81 107.08C65.5373 107.367 65.1916 107.575 64.81 107.68L59.71 108.91C59.343 109.003 59.0164 109.214 58.78 109.51L50.25 104.61C50.5045 104.295 50.8562 104.074 51.25 103.98L56.34 102.76C56.7203 102.657 57.0658 102.453 57.34 102.17L65.81 107.08Z" fill="#E6E6E6"/>
    <path d="M61.94 125.4C61.8519 125.674 61.7127 125.928 61.53 126.15L56.35 132.44C56.1978 132.625 56.0855 132.84 56.02 133.07L47.52 128.16C47.5773 127.925 47.6867 127.707 47.84 127.52L53.04 121.23C53.2144 121.009 53.3466 120.759 53.43 120.49L61.94 125.4Z" fill="#E6E6E6"/>
    <path d="M50.3302 115.75L50.4902 115.85L50.2902 115.73L49.9102 115.51L50.3302 115.75Z" fill="#E0E0E0"/>
    <path d="M84.71 121.09C82.8386 123.225 80.4174 124.806 77.71 125.66L77.41 125.73C77.3403 125.739 77.2697 125.739 77.2 125.73L76.72 125.81C76.5346 125.84 76.3476 125.86 76.16 125.87H75.64C74.543 125.88 73.4684 125.558 72.558 124.946C71.6477 124.334 70.9441 123.46 70.54 122.44C70.143 121.535 69.8899 120.573 69.79 119.59C70.21 119.4 70.64 119.17 71.08 118.93C77.08 115.45 81.97 107.01 81.97 100.06C81.97 99.54 81.97 99.06 81.91 98.58C83.1105 98.0176 84.4247 97.7404 85.75 97.77H85.99H86.18C86.2497 97.7603 86.3204 97.7603 86.39 97.77C87.3335 97.9076 88.2243 98.2903 88.9736 98.8799C89.7229 99.4695 90.3044 100.245 90.66 101.13C92.91 106.34 90.27 115.23 84.71 121.09Z" fill="#E0E0E0"/>
    <path d="M69.15 100.79L60.64 95.89C60.6501 95.8237 60.6501 95.7563 60.64 95.69L59 90.08C58.9466 89.8971 58.9466 89.7028 59 89.52L64.91 92.9L67.51 94.39C67.4333 94.5872 67.4125 94.8017 67.45 95.01L69.11 100.61C69.1339 100.667 69.1475 100.728 69.15 100.79Z" fill="#E0E0E0"/>
    <path d="M86.5901 80.1C86.4629 80.2163 86.3638 80.3599 86.3001 80.52L83.3601 88.4L74.8501 83.49C74.8501 83.49 74.8501 83.49 74.8501 83.43L77.7901 75.55C77.8489 75.3956 77.9451 75.2581 78.0701 75.15L86.5901 80.1Z" fill="#E0E0E0"/>
    <path d="M102.39 84.36C102.249 84.3295 102.103 84.3386 101.967 84.3863C101.831 84.4339 101.711 84.5183 101.62 84.63L96.09 89.69C95.9385 89.8553 95.7359 89.9648 95.5146 90.0011C95.2934 90.0374 95.0664 89.9983 94.87 89.89C94.159 89.3086 93.3587 88.8459 92.5 88.52C92.305 88.4444 92.1425 88.3032 92.0403 88.1207C91.9381 87.9382 91.9026 87.7258 91.94 87.52L93.65 79.77C93.6785 79.6647 93.6702 79.5528 93.6266 79.4529C93.583 79.3529 93.5066 79.2708 93.41 79.22L91.29 78C91.3593 77.9857 91.4308 77.9857 91.5 78L91.62 78.07L102.39 84.36Z" fill="#E0E0E0"/>
    <path d="M104.82 104.56C104.715 104.505 104.599 104.478 104.48 104.48L99.8304 104.22C99.728 104.223 99.6262 104.205 99.531 104.167C99.4358 104.129 99.3492 104.073 99.2764 104.001C99.2035 103.929 99.146 103.843 99.1071 103.749C99.0683 103.654 99.049 103.552 99.0504 103.45C99.1104 102.72 99.1504 101.99 99.1504 101.28L104.82 104.56Z" fill="#E0E0E0"/>
    <path d="M57.4603 102C57.4153 102.067 57.3614 102.127 57.3003 102.18L57.4603 102Z" fill="#E0E0E0"/>
    <path d="M50.2302 104.61C50.126 104.722 50.0476 104.855 50.0002 105L49.7302 106L48.0602 111.63L47.4902 113.56C47.4551 113.66 47.4551 113.77 47.4902 113.87C47.4984 113.932 47.5225 113.99 47.5602 114.04C47.5953 114.094 47.6393 114.141 47.6902 114.18C47.7164 114.205 47.7469 114.225 47.7802 114.24L48.6302 114.74L48.8702 114.87L49.5502 115.26L49.9202 115.48L50.3402 115.72L50.5002 115.82L50.9502 116.07L53.4302 117.5L56.2002 119.1C56.0948 119.033 56.0149 118.932 55.9733 118.815C55.9316 118.697 55.9305 118.568 55.9702 118.45L58.2202 110.88L58.5402 109.82C58.5784 109.684 58.6507 109.56 58.7502 109.46L50.2302 104.61Z" fill="#E0E0E0"/>
    <path d="M86.3504 136.6L80.6504 133.29C81.1804 132.98 81.7404 132.63 82.2804 132.29C82.8204 131.95 83.2804 131.96 83.4404 132.29L86.2104 136.53C86.2531 136.561 86.3003 136.584 86.3504 136.6Z" fill="#E0E0E0"/>
    <path d="M69.1501 136.2L67.4401 144C67.414 144.101 67.4224 144.209 67.4641 144.305C67.5057 144.401 67.5782 144.48 67.6701 144.53C67.3201 144.34 61.9601 141.23 58.8701 139.44C59.0961 139.418 59.3077 139.319 59.4701 139.16L65.0001 134.06C65.1497 133.895 65.3499 133.785 65.5691 133.747C65.7882 133.709 66.0138 133.745 66.2101 133.85C66.9207 134.437 67.7209 134.906 68.5801 135.24C68.7726 135.308 68.9352 135.441 69.0394 135.617C69.1436 135.792 69.1828 135.999 69.1501 136.2Z" fill="#E0E0E0"/>
    <path d="M62.0001 124.78C62.0115 124.991 61.9774 125.203 61.9001 125.4L53.3901 120.49C53.4694 120.29 53.5068 120.075 53.5001 119.86C53.4263 119.092 53.393 118.321 53.4001 117.55L56.1701 119.15C56.2839 119.213 56.4102 119.251 56.5401 119.26L61.2001 119.52C61.3016 119.517 61.4026 119.535 61.4971 119.572C61.5917 119.609 61.6778 119.665 61.7505 119.735C61.8232 119.806 61.881 119.891 61.9204 119.984C61.9599 120.078 61.9802 120.178 61.9801 120.28C61.8506 121.777 61.8573 123.284 62.0001 124.78Z" fill="#E0E0E0"/>
    <path d="M58.6302 139.35L56.4002 138.06L55.9802 137.81L52.3902 135.74C52.0502 135.54 51.7302 135.35 51.3902 135.18L50.1602 134.45C50.1265 134.432 50.0961 134.408 50.0702 134.38C50.0399 134.348 50.0162 134.311 50.0002 134.27L47.5302 128.81C47.4834 128.664 47.4834 128.506 47.5302 128.36C47.5261 128.297 47.5261 128.233 47.5302 128.17L56.0302 133.08C55.9555 133.294 55.9555 133.526 56.0302 133.74L58.4902 139.19C58.524 139.253 58.5719 139.308 58.6302 139.35Z" fill="#E0E0E0"/>
    <path d="M410.76 109.36C412.127 110.926 413.904 112.079 415.89 112.69H416.11H416.26L416.61 112.75H417.02H417.27C417.309 112.76 417.351 112.76 417.39 112.75C418.188 112.753 418.968 112.518 419.631 112.074C420.294 111.63 420.809 110.999 421.11 110.26C421.399 109.603 421.581 108.904 421.65 108.19C421.35 108.05 421.03 107.88 420.72 107.7C418.41 106.198 416.488 104.171 415.11 101.785C413.732 99.3992 412.937 96.7214 412.79 93.97C412.79 93.59 412.79 93.24 412.79 92.9C411.917 92.4839 410.958 92.2784 409.99 92.3H409.82H409.68H409.53C408.844 92.4034 408.196 92.6837 407.651 93.1132C407.105 93.5428 406.681 94.1069 406.42 94.75C404.79 98.63 406.71 105.1 410.76 109.36Z" fill="#219BBA"/>
    <path d="M395.9 97.84L397.77 104.12C397.845 104.294 397.96 104.449 398.106 104.57C398.252 104.692 398.425 104.777 398.61 104.82L402.32 105.71C402.713 105.811 403.05 106.063 403.26 106.41C403.857 107.602 404.524 108.758 405.26 109.87C405.459 110.163 405.538 110.521 405.48 110.87L404.28 114.95C404.249 115.131 404.263 115.317 404.32 115.491C404.378 115.666 404.477 115.823 404.61 115.95L408.95 120.52C409.16 120.75 409.41 120.82 409.57 120.72C409.61 120.699 409.644 120.668 409.67 120.63L411.67 117.54C411.81 117.32 412.19 117.34 412.52 117.54C412.85 117.74 413.31 118.07 413.71 118.3C414.11 118.53 414.55 118.76 414.96 118.96C415.331 119.133 415.634 119.425 415.82 119.79L417.96 125.53C418.044 125.694 418.168 125.834 418.32 125.939C418.472 126.044 418.647 126.109 418.83 126.13L422.77 126.52C422.898 126.537 423.027 126.512 423.14 126.45C423.205 126.413 423.255 126.356 423.284 126.287C423.313 126.218 423.319 126.142 423.3 126.07L422.05 120.42C422.026 120.273 422.054 120.121 422.129 119.992C422.204 119.863 422.32 119.763 422.46 119.71C423.085 119.469 423.669 119.132 424.19 118.71C424.332 118.632 424.496 118.605 424.656 118.632C424.816 118.659 424.962 118.74 425.07 118.86L429.07 122.54C429.186 122.661 429.343 122.736 429.51 122.75C429.556 122.76 429.604 122.76 429.65 122.75C429.701 122.722 429.74 122.675 429.76 122.62L431.55 118.62C431.594 118.457 431.596 118.285 431.556 118.12C431.516 117.956 431.435 117.804 431.32 117.68L427.55 113.1C427.313 112.82 427.182 112.466 427.18 112.1C427.28 111.016 427.28 109.924 427.18 108.84C427.18 108.766 427.195 108.693 427.224 108.625C427.253 108.557 427.295 108.495 427.348 108.444C427.401 108.392 427.464 108.352 427.533 108.326C427.602 108.3 427.676 108.287 427.75 108.29L431.14 108.1C431.211 108.104 431.283 108.091 431.348 108.062C431.414 108.033 431.472 107.989 431.517 107.933C431.562 107.878 431.593 107.812 431.607 107.742C431.622 107.672 431.619 107.599 431.6 107.53L429.73 101.25C429.655 101.076 429.539 100.921 429.394 100.8C429.248 100.678 429.075 100.593 428.89 100.55L425.19 99.66C424.798 99.5577 424.46 99.3066 424.25 98.96C423.653 97.7677 422.985 96.6123 422.25 95.5C422.055 95.2056 421.976 94.8491 422.03 94.5L423.24 90.41C423.261 90.2361 423.241 90.0598 423.182 89.8949C423.123 89.7301 423.026 89.5812 422.9 89.46L418.57 84.88C418.31 84.61 417.99 84.57 417.84 84.79L415.84 87.87C415.7 88.09 415.33 88.07 415 87.87C414.222 87.3322 413.403 86.8573 412.55 86.45C412.178 86.2774 411.876 85.9851 411.69 85.62L409.55 79.88C409.468 79.7163 409.346 79.5757 409.196 79.4709C409.046 79.3661 408.872 79.3005 408.69 79.28L404.75 78.89C404.62 78.8761 404.489 78.8968 404.37 78.95C404.302 78.989 404.248 79.0492 404.218 79.1214C404.187 79.1936 404.181 79.2739 404.2 79.35L405.49 85C405.514 85.1462 405.488 85.2963 405.415 85.4255C405.342 85.5546 405.228 85.655 405.09 85.71C404.463 85.9482 403.879 86.2859 403.36 86.71C403.218 86.7876 403.054 86.815 402.894 86.7878C402.734 86.7606 402.588 86.6803 402.48 86.56L398.48 82.88C398.27 82.69 398.05 82.62 397.9 82.7C397.856 82.7301 397.822 82.7716 397.8 82.82L396 86.82C395.956 86.9833 395.953 87.1553 395.994 87.3197C396.034 87.4841 396.115 87.6356 396.23 87.76L400 92.27C400.229 92.5543 400.358 92.9053 400.37 93.27C400.313 93.8281 400.286 94.3889 400.29 94.95C400.29 95.46 400.29 95.95 400.37 96.53C400.37 96.6039 400.355 96.6771 400.326 96.7452C400.297 96.8133 400.255 96.8748 400.202 96.9261C400.149 96.9775 400.086 97.0176 400.017 97.044C399.948 97.0704 399.874 97.0827 399.8 97.08L396.42 97.27C396.334 97.2734 396.249 97.2938 396.17 97.33C396.07 97.3664 395.987 97.4387 395.937 97.533C395.887 97.6272 395.874 97.7366 395.9 97.84ZM410.75 109.36C406.75 105.1 404.75 98.63 406.47 94.93C406.725 94.2848 407.146 93.7185 407.691 93.2883C408.235 92.8581 408.883 92.5793 409.57 92.48H409.72H409.86H410C410.963 92.4605 411.917 92.6623 412.79 93.07C413.12 93.22 413.46 93.39 413.79 93.58C414.902 94.2412 415.912 95.0596 416.79 96.01C419.705 99.0435 421.44 103.02 421.68 107.22C421.691 107.604 421.671 107.989 421.62 108.37C421.551 109.084 421.368 109.783 421.08 110.44C420.78 111.181 420.266 111.814 419.603 112.26C418.94 112.706 418.159 112.942 417.36 112.94H417H416.59L416.24 112.88H416.09L415.87 112.82C413.875 112.165 412.102 110.967 410.75 109.36Z" fill="#F5F5F5"/>
    <path d="M411.76 85.6C411.942 85.9534 412.238 86.2353 412.6 86.4C413.453 86.8073 414.272 87.2822 415.05 87.82C415.38 88.04 415.75 88.06 415.89 87.82L417.89 84.74C417.912 84.6974 417.947 84.6625 417.99 84.64L421.78 82.45C421.36 82.21 420.94 81.98 420.53 81.79C420.477 81.7694 420.426 81.7426 420.38 81.71C420.23 81.6168 420.093 81.506 419.97 81.38L419.82 81.22C419.79 81.1824 419.763 81.1422 419.74 81.1L419.68 80.99L411.76 85.6Z" fill="#EBEBEB"/>
    <path d="M422.09 94.59C422.076 94.8904 422.156 95.1876 422.32 95.44C423.055 96.5523 423.723 97.7077 424.32 98.9C424.368 98.9997 424.436 99.0883 424.52 99.16L432.52 94.55C432.475 94.5141 432.438 94.4699 432.41 94.42C432.371 94.3817 432.337 94.3379 432.31 94.29C431.717 93.0923 431.049 91.9333 430.31 90.82C430.274 90.7667 430.244 90.7097 430.22 90.65C430.195 90.6104 430.178 90.5662 430.17 90.52C430.17 90.52 430.17 90.52 430.17 90.45C430.166 90.3934 430.166 90.3366 430.17 90.28C430.146 90.195 430.146 90.1049 430.17 90.02L422.09 94.59Z" fill="#EBEBEB"/>
    <path d="M421.83 82.45L425.97 80.05C426.029 80.0343 426.091 80.0343 426.15 80.05C426.239 80.0563 426.326 80.0808 426.405 80.1221C426.484 80.1634 426.554 80.2205 426.61 80.29L429.2 83L430.94 84.83C431.085 84.9867 431.191 85.175 431.25 85.38L425.16 88.87L423.27 89.95C423.211 89.7618 423.108 89.5904 422.97 89.45L422.92 89.39L418.64 84.87C418.571 84.7804 418.478 84.7128 418.371 84.6755C418.265 84.6381 418.15 84.6328 418.04 84.66L421.83 82.45Z" fill="#F5F5F5"/>
    <path d="M404.45 78.89C404.562 78.8628 404.678 78.8628 404.79 78.89L408.74 79.28C408.984 79.3062 409.212 79.4116 409.39 79.58L417.39 74.98C417.212 74.8046 416.979 74.6953 416.73 74.67L412.78 74.28C412.646 74.2585 412.509 74.2832 412.39 74.35L411.33 74.97L410.81 75.27L407.43 77.27L406.59 77.76L406 78L404.45 78.89Z" fill="#F5F5F5"/>
    <path d="M424.52 99.17C424.723 99.3796 424.979 99.5314 425.26 99.61L428.97 100.5C429.235 100.571 429.472 100.721 429.65 100.93L437.65 96.34C437.467 96.1161 437.219 95.9552 436.94 95.88L433.24 94.99C432.961 94.9182 432.708 94.7692 432.51 94.56L424.52 99.17Z" fill="#E6E6E6"/>
    <path d="M427.33 112.5C427.396 112.7 427.497 112.887 427.63 113.05L431.4 117.63C431.513 117.764 431.595 117.921 431.64 118.09L439.64 113.48C439.597 113.307 439.515 113.146 439.4 113.01L435.62 108.43C435.494 108.273 435.399 108.093 435.34 107.9L427.33 112.5Z" fill="#E6E6E6"/>
    <path d="M437.56 104.45L437.45 104.52L437.59 104.44L437.87 104.28L437.56 104.45Z" fill="#E0E0E0"/>
    <path d="M410.76 109.36C412.127 110.926 413.904 112.079 415.89 112.69H416.11H416.26L416.61 112.75H417.02H417.27C417.309 112.76 417.351 112.76 417.39 112.75C418.188 112.753 418.968 112.518 419.631 112.074C420.294 111.63 420.809 110.999 421.11 110.26C421.399 109.603 421.581 108.904 421.65 108.19C421.35 108.05 421.03 107.88 420.72 107.7C418.41 106.198 416.488 104.171 415.11 101.785C413.732 99.3992 412.937 96.7214 412.79 93.97C412.79 93.59 412.79 93.24 412.79 92.9C411.917 92.4839 410.958 92.2784 409.99 92.3H409.82H409.68H409.53C408.844 92.4034 408.196 92.6837 407.651 93.1132C407.105 93.5428 406.681 94.1069 406.42 94.75C404.79 98.63 406.71 105.1 410.76 109.36Z" fill="#E0E0E0"/>
    <path d="M422.09 94.59L430.09 89.99C430.08 89.9439 430.08 89.8961 430.09 89.85L431.3 85.76C431.339 85.6295 431.339 85.4905 431.3 85.36L425.21 88.85L423.32 89.93C423.362 90.077 423.362 90.233 423.32 90.38L422.12 94.46C422.099 94.5001 422.089 94.5448 422.09 94.59Z" fill="#E0E0E0"/>
    <path d="M409.39 79.53C409.482 79.6129 409.554 79.7154 409.6 79.83L411.74 85.57L419.74 80.96L417.6 75.22C417.559 75.1083 417.49 75.0086 417.4 74.93L409.39 79.53Z" fill="#E0E0E0"/>
    <path d="M397.89 82.63C397.992 82.6116 398.097 82.6194 398.195 82.6526C398.293 82.6858 398.381 82.7434 398.45 82.82L402.45 86.51C402.558 86.6319 402.703 86.7133 402.864 86.7406C403.024 86.7679 403.188 86.7394 403.33 86.66C403.849 86.2359 404.433 85.8982 405.06 85.66C405.199 85.6066 405.315 85.5064 405.388 85.3769C405.461 85.2473 405.486 85.0964 405.46 84.95L404.22 79.3C404.201 79.2239 404.207 79.1436 404.238 79.0714C404.269 78.9992 404.322 78.939 404.39 78.9L406 78C405.951 77.9897 405.9 77.9897 405.85 78C405.82 77.9948 405.79 77.9948 405.76 78L397.89 82.63Z" fill="#E0E0E0"/>
    <path d="M396.12 97.33C396.198 97.2925 396.283 97.272 396.37 97.27L399.76 97.08C399.834 97.0827 399.907 97.0704 399.975 97.0439C400.044 97.0174 400.106 96.9771 400.159 96.9256C400.211 96.8741 400.252 96.8125 400.28 96.7445C400.308 96.6764 400.322 96.6034 400.32 96.53C400.32 95.99 400.25 95.46 400.25 94.95L396.12 97.33Z" fill="#E0E0E0"/>
    <path d="M432.38 94.43C432.408 94.4799 432.445 94.5241 432.49 94.56L432.38 94.43Z" fill="#E0E0E0"/>
    <path d="M437.64 96.34C437.701 96.4132 437.745 96.4984 437.77 96.59L438 97.36L439.22 101.46L439.64 102.87C439.66 102.945 439.66 103.025 439.64 103.1C439.632 103.143 439.615 103.184 439.59 103.22C439.566 103.258 439.535 103.292 439.5 103.32H439.43L438.81 103.69L438.63 103.78L438.14 104.07L437.87 104.23L437.56 104.4L437.45 104.47L437.12 104.65L435.32 105.65L431.52 107.85C431.598 107.801 431.658 107.727 431.689 107.64C431.72 107.552 431.72 107.457 431.69 107.37L430 102L429.77 101.23C429.74 101.13 429.689 101.038 429.62 100.96L437.64 96.34Z" fill="#E0E0E0"/>
    <path d="M409.56 120.66L413.71 118.25C413.33 118.02 412.92 117.77 412.53 117.5C412.14 117.23 411.83 117.26 411.69 117.5L409.69 120.59C409.654 120.625 409.609 120.649 409.56 120.66Z" fill="#E0E0E0"/>
    <path d="M422.09 120.36L423.33 126.02C423.348 126.093 423.341 126.17 423.31 126.239C423.279 126.308 423.226 126.364 423.16 126.4C423.41 126.26 427.32 124.01 429.57 122.7C429.403 122.686 429.246 122.611 429.13 122.49L425.13 118.81C425.024 118.686 424.878 118.604 424.717 118.577C424.556 118.549 424.391 118.579 424.25 118.66C423.729 119.082 423.146 119.419 422.52 119.66C422.376 119.706 422.254 119.802 422.175 119.93C422.096 120.059 422.066 120.211 422.09 120.36Z" fill="#E0E0E0"/>
    <path d="M427.26 112.05C427.251 112.203 427.275 112.357 427.33 112.5L435.33 107.9C435.273 107.754 435.246 107.597 435.25 107.44C435.304 106.882 435.327 106.321 435.32 105.76L431.52 107.96C431.437 108.004 431.344 108.028 431.25 108.03L427.86 108.23C427.786 108.227 427.713 108.24 427.643 108.266C427.574 108.292 427.511 108.333 427.458 108.384C427.405 108.435 427.363 108.497 427.334 108.565C427.305 108.633 427.29 108.706 427.29 108.78C427.376 109.869 427.366 110.963 427.26 112.05Z" fill="#E0E0E0"/>
    <path d="M429.74 122.65L431.36 121.72L431.67 121.54L434.29 120.03L434.99 119.62L437.68 118.06C437.699 118.066 437.72 118.066 437.74 118.06L437.8 117.98L439.59 113.98C439.622 113.872 439.622 113.758 439.59 113.65V113.51L431.59 118.12C431.645 118.275 431.645 118.445 431.59 118.6L429.8 122.6C429.783 122.62 429.762 122.637 429.74 122.65Z" fill="#E0E0E0"/>
    <path d="M426.31 150.4L428.88 159.03C428.979 159.276 429.134 159.495 429.334 159.669C429.534 159.843 429.773 159.966 430.03 160.03L435.12 161.26C435.668 161.409 436.135 161.769 436.42 162.26C437.231 163.898 438.143 165.484 439.15 167.01C439.416 167.407 439.526 167.887 439.46 168.36L437.8 173.97C437.772 174.207 437.799 174.448 437.879 174.674C437.958 174.899 438.089 175.103 438.26 175.27L444.21 181.56C444.5 181.87 444.85 181.97 445.08 181.83C445.133 181.797 445.177 181.753 445.21 181.7L447.99 177.46C448.18 177.16 448.7 177.18 449.15 177.46C449.6 177.74 450.24 178.18 450.78 178.46C451.32 178.74 451.93 179.1 452.5 179.36C453.009 179.606 453.426 180.009 453.69 180.51L456.63 188.39C456.741 188.618 456.909 188.814 457.117 188.96C457.326 189.105 457.567 189.195 457.82 189.22L463.24 189.76C463.415 189.781 463.593 189.749 463.75 189.67C463.842 189.62 463.915 189.541 463.956 189.445C463.998 189.349 464.006 189.241 463.98 189.14L462.27 181.38C462.226 181.174 462.259 180.959 462.362 180.775C462.465 180.591 462.631 180.451 462.83 180.38C463.687 180.046 464.487 179.58 465.2 179C465.395 178.894 465.62 178.857 465.839 178.893C466.058 178.929 466.259 179.037 466.41 179.2L471.95 184.27C472.111 184.432 472.323 184.535 472.55 184.56C472.617 184.559 472.682 184.542 472.74 184.51C472.81 184.474 472.863 184.414 472.89 184.34L475.36 178.89C475.415 178.665 475.415 178.43 475.359 178.206C475.303 177.981 475.194 177.773 475.04 177.6L469.85 171.31C469.53 170.921 469.354 170.434 469.35 169.93C469.485 168.44 469.485 166.94 469.35 165.45C469.35 165.348 469.37 165.248 469.41 165.154C469.449 165.061 469.507 164.976 469.58 164.905C469.652 164.835 469.739 164.779 469.833 164.742C469.928 164.705 470.029 164.687 470.13 164.69L474.78 164.43C474.879 164.439 474.979 164.424 475.071 164.385C475.163 164.347 475.243 164.286 475.307 164.209C475.37 164.132 475.413 164.041 475.433 163.944C475.453 163.846 475.448 163.745 475.42 163.65L472.88 155C472.776 154.763 472.618 154.553 472.418 154.389C472.218 154.224 471.983 154.108 471.73 154.05L466.64 152.82C466.093 152.67 465.626 152.311 465.34 151.82C464.527 150.183 463.615 148.597 462.61 147.07C462.34 146.675 462.229 146.193 462.3 145.72L463.96 140.11C463.989 139.872 463.962 139.632 463.883 139.406C463.803 139.18 463.672 138.976 463.5 138.81L457.55 132.52C457.19 132.15 456.74 132.08 456.55 132.38L453.77 136.62C453.58 136.92 453.07 136.9 452.61 136.62C451.541 135.885 450.418 135.234 449.25 134.67C448.741 134.432 448.325 134.031 448.07 133.53L445.13 125.65C445.02 125.423 444.854 125.228 444.647 125.083C444.441 124.937 444.201 124.847 443.95 124.82L438.52 124.28C438.345 124.265 438.169 124.296 438.01 124.37C437.916 124.423 437.842 124.506 437.798 124.605C437.755 124.704 437.745 124.815 437.77 124.92L439.48 132.68C439.522 132.885 439.49 133.098 439.389 133.281C439.288 133.464 439.126 133.606 438.93 133.68C438.07 134.007 437.269 134.473 436.56 135.06C436.363 135.167 436.135 135.205 435.914 135.166C435.692 135.128 435.49 135.017 435.34 134.85L429.8 129.79C429.708 129.675 429.583 129.59 429.442 129.548C429.301 129.505 429.151 129.506 429.01 129.55C428.948 129.594 428.896 129.653 428.86 129.72L426.4 135.18C426.341 135.404 426.339 135.639 426.393 135.864C426.447 136.089 426.556 136.297 426.71 136.47L431.9 142.75C432.226 143.137 432.406 143.625 432.41 144.13C432.34 144.88 432.31 145.65 432.31 146.44C432.31 147.23 432.36 147.87 432.42 148.61C432.422 148.711 432.402 148.812 432.363 148.906C432.324 149 432.266 149.084 432.193 149.154C432.12 149.225 432.033 149.279 431.938 149.315C431.843 149.35 431.741 149.365 431.64 149.36L426.99 149.63C426.872 149.628 426.755 149.655 426.65 149.71C426.519 149.764 426.412 149.863 426.349 149.991C426.287 150.118 426.273 150.263 426.31 150.4ZM446.71 166.23C441.16 160.37 438.52 151.49 440.82 146.4C441.174 145.515 441.753 144.738 442.5 144.146C443.248 143.555 444.137 143.17 445.08 143.03H445.29H445.49H445.73C447.055 143 448.37 143.278 449.57 143.84C450.04 144.047 450.497 144.281 450.94 144.54C452.458 145.45 453.838 146.571 455.04 147.87C459.21 152.27 461.74 158.36 461.77 163.28C461.776 163.808 461.746 164.336 461.68 164.86C461.584 165.84 461.334 166.798 460.94 167.7C460.535 168.722 459.83 169.596 458.918 170.209C458.006 170.821 456.929 171.142 455.83 171.13H455.32L454.76 171.08L454.28 171L454.06 170.95L453.76 170.87C451.028 170.002 448.588 168.396 446.71 166.23Z" fill="#F5F5F5"/>
    <path d="M448.09 133.58C448.348 134.062 448.755 134.448 449.25 134.68C450.42 135.239 451.544 135.891 452.61 136.63C453.06 136.94 453.61 136.96 453.77 136.63L456.54 132.39C456.576 132.337 456.624 132.292 456.68 132.26H456.73L459.48 130.66C458.9 130.32 458.32 130.02 457.76 129.76L457.55 129.64C457.346 129.513 457.158 129.362 456.99 129.19C456.918 129.122 456.851 129.048 456.79 128.97C456.746 128.922 456.708 128.868 456.68 128.81L456.6 128.66L448.09 133.58Z" fill="#EBEBEB"/>
    <path d="M462.28 145.93C462.271 146.347 462.386 146.758 462.61 147.11C463.613 148.636 464.528 150.219 465.35 151.85C465.418 151.985 465.51 152.106 465.62 152.21L474.13 147.3C474.069 147.247 474.015 147.187 473.97 147.12C473.92 147.065 473.876 147.005 473.84 146.94C473.029 145.298 472.117 143.709 471.11 142.18C471.053 142.104 471.009 142.02 470.98 141.93C470.942 141.88 470.918 141.822 470.91 141.76C470.904 141.727 470.904 141.693 470.91 141.66C470.91 141.66 470.91 141.5 470.86 141.43C470.836 141.311 470.836 141.189 470.86 141.07L462.28 145.93Z" fill="#EBEBEB"/>
    <path d="M459.48 130.67L465.17 127.37C465.242 127.326 465.325 127.302 465.41 127.3C465.532 127.311 465.651 127.347 465.76 127.405C465.868 127.464 465.963 127.544 466.04 127.64L469.6 131.4L471.99 133.92C472.184 134.132 472.328 134.385 472.41 134.66L466.49 138.05L463.9 139.54C463.815 139.283 463.675 139.047 463.49 138.85L463.41 138.77L457.54 132.56C457.448 132.435 457.321 132.34 457.175 132.288C457.028 132.236 456.87 132.23 456.72 132.27L459.48 130.67Z" fill="#F5F5F5"/>
    <path d="M438.05 124.36C438.199 124.299 438.36 124.275 438.52 124.29L443.94 124.84C444.277 124.873 444.593 125.017 444.84 125.25L453.35 120.34C453.104 120.103 452.788 119.952 452.45 119.91L447.02 119.37C446.837 119.346 446.651 119.381 446.49 119.47L445.02 120.32L444.31 120.74L442.11 122.02L440.97 122.68C440.68 122.84 440.4 123.01 440.13 123.15L438.05 124.36Z" fill="#F5F5F5"/>
    <path d="M465.62 152.22C465.895 152.507 466.24 152.717 466.62 152.83L471.71 154.05C472.077 154.15 472.405 154.359 472.65 154.65L481.18 149.75C480.923 149.441 480.572 149.223 480.18 149.13L475.09 147.9C474.71 147.797 474.364 147.593 474.09 147.31L465.62 152.22Z" fill="#E6E6E6"/>
    <path d="M469.48 170.54C469.574 170.814 469.713 171.071 469.89 171.3L475.08 177.59C475.232 177.775 475.345 177.989 475.41 178.22L483.91 173.31C483.851 173.071 483.738 172.849 483.58 172.66L478.39 166.37C478.212 166.15 478.076 165.899 477.99 165.63L469.48 170.54Z" fill="#E6E6E6"/>
    <path d="M481.09 160.89L480.94 160.99L481.14 160.88L481.52 160.66L481.09 160.89Z" fill="#E0E0E0"/>
    <path d="M446.71 166.23C448.597 168.378 451.04 169.963 453.77 170.81L454.06 170.88L454.27 170.93L454.76 171.01L455.32 171.06H455.67C455.723 171.07 455.777 171.07 455.83 171.06C456.929 171.072 458.006 170.751 458.918 170.139C459.83 169.526 460.535 168.652 460.94 167.63C461.336 166.728 461.589 165.77 461.69 164.79C461.27 164.59 460.84 164.37 460.4 164.12C454.4 160.64 449.51 152.21 449.51 145.26C449.51 144.73 449.51 144.26 449.57 143.78C448.368 143.21 447.05 142.929 445.72 142.96H445.49H445.29H445.08C444.137 143.1 443.248 143.485 442.5 144.076C441.753 144.668 441.173 145.445 440.82 146.33C438.52 151.49 441.16 160.37 446.71 166.23Z" fill="#E0E0E0"/>
    <path d="M462.28 145.93L470.78 141.03C470.765 140.964 470.765 140.896 470.78 140.83L472.44 135.22C472.498 135.038 472.498 134.842 472.44 134.66L466.52 138.05L463.93 139.54C463.993 139.738 463.993 139.952 463.93 140.15L462.28 145.76C462.269 145.816 462.269 145.874 462.28 145.93Z" fill="#E0E0E0"/>
    <path d="M444.84 125.25C444.966 125.363 445.065 125.503 445.13 125.66L448.07 133.55L456.58 128.64L453.64 120.75C453.58 120.599 453.483 120.465 453.36 120.36L444.84 125.25Z" fill="#E0E0E0"/>
    <path d="M429 129.51C429.138 129.478 429.283 129.485 429.417 129.531C429.551 129.577 429.67 129.66 429.76 129.77L435.3 134.83C435.451 134.995 435.654 135.105 435.875 135.141C436.097 135.177 436.324 135.138 436.52 135.03C437.231 134.454 438.027 133.992 438.88 133.66C439.079 133.589 439.245 133.449 439.348 133.265C439.451 133.081 439.484 132.866 439.44 132.66L437.74 124.9C437.711 124.796 437.718 124.685 437.759 124.585C437.801 124.485 437.875 124.402 437.97 124.35L440.05 123.14C439.984 123.125 439.916 123.125 439.85 123.14L439.73 123.22L429 129.51Z" fill="#E0E0E0"/>
    <path d="M426.61 149.7C426.716 149.65 426.832 149.623 426.95 149.62L431.6 149.36C431.803 149.36 431.999 149.281 432.144 149.139C432.29 148.997 432.375 148.803 432.38 148.6C432.32 147.86 432.27 147.13 432.27 146.42L426.61 149.7Z" fill="#E0E0E0"/>
    <path d="M474 147.13C474.045 147.197 474.099 147.257 474.16 147.31L474 147.13Z" fill="#E0E0E0"/>
    <path d="M481.2 149.75C481.283 149.85 481.344 149.965 481.38 150.09L481.7 151.16L483.37 156.79L483.94 158.72C483.975 158.824 483.975 158.936 483.94 159.04C483.927 159.097 483.903 159.152 483.87 159.2C483.84 159.258 483.795 159.306 483.74 159.34L483.65 159.4L482.79 159.9L482.56 160.04L481.87 160.44L481.51 160.66L481.08 160.89L480.93 160.99L480.48 161.24L478 162.67L475.23 164.28C475.337 164.214 475.419 164.114 475.463 163.997C475.506 163.879 475.509 163.75 475.47 163.63L473.22 156.05L472.9 154.99C472.859 154.855 472.787 154.732 472.69 154.63L481.2 149.75Z" fill="#E0E0E0"/>
    <path d="M445.07 181.75L450.78 178.44C450.24 178.12 449.69 177.77 449.15 177.44C448.61 177.11 448.15 177.11 447.99 177.44L445.21 181.68C445.168 181.712 445.121 181.736 445.07 181.75Z" fill="#E0E0E0"/>
    <path d="M462.28 181.35L463.99 189.12C464.014 189.22 464.004 189.325 463.963 189.419C463.921 189.513 463.85 189.59 463.76 189.64C464.1 189.45 469.47 186.35 472.56 184.55C472.331 184.53 472.115 184.431 471.95 184.27L466.42 179.21C466.271 179.045 466.07 178.935 465.851 178.897C465.632 178.859 465.406 178.895 465.21 179C464.495 179.583 463.691 180.048 462.83 180.38C462.639 180.452 462.48 180.588 462.379 180.765C462.279 180.943 462.244 181.149 462.28 181.35Z" fill="#E0E0E0"/>
    <path d="M469.39 169.92C469.374 170.131 469.404 170.343 469.48 170.54L477.99 165.63C477.912 165.43 477.878 165.215 477.89 165C477.961 164.232 477.991 163.461 477.98 162.69L475.21 164.3C475.098 164.368 474.971 164.406 474.84 164.41L470.18 164.67C470.078 164.666 469.977 164.683 469.881 164.719C469.786 164.756 469.7 164.811 469.627 164.882C469.554 164.953 469.496 165.039 469.457 165.133C469.418 165.227 469.399 165.328 469.4 165.43C469.532 166.924 469.529 168.427 469.39 169.92Z" fill="#E0E0E0"/>
    <path d="M472.79 184.49C472.97 184.39 473.85 183.89 475.03 183.2L475.45 182.96L479.04 180.88L480.04 180.32L481.28 179.6C481.316 179.585 481.347 179.561 481.37 179.53C481.397 179.499 481.42 179.466 481.44 179.43L483.9 174C483.948 173.85 483.948 173.69 483.9 173.54V173.36L475.4 178.27C475.475 178.484 475.475 178.716 475.4 178.93L472.93 184.37C472.897 184.424 472.848 184.466 472.79 184.49Z" fill="#E0E0E0"/>
    <path d="M306.74 89.63V322.2C306.812 323.5 307.187 324.766 307.837 325.895C308.486 327.024 309.392 327.984 310.48 328.7L413.61 388.23C415.67 389.43 417.35 388.45 417.35 386.06V153.5C417.278 152.2 416.902 150.934 416.253 149.805C415.603 148.676 414.698 147.716 413.61 147L310.48 87.47C308.42 86.27 306.74 87.24 306.74 89.63ZM312.13 117.39C312.13 115.39 313.57 114.51 315.35 115.54L409.11 169.66C410.046 170.273 410.826 171.097 411.385 172.066C411.944 173.035 412.268 174.123 412.33 175.24V357.41C412.33 359.47 410.88 360.29 409.11 359.27L315.35 305.14C313.57 304.14 312.13 302.81 312.13 300.77V117.39Z" fill="#219BBA"/>
    <path opacity="0.5" d="M306.74 89.63V322.2C306.812 323.5 307.187 324.766 307.837 325.895C308.486 327.024 309.392 327.984 310.48 328.7L413.61 388.23C415.67 389.43 417.35 388.45 417.35 386.06V153.5C417.278 152.2 416.902 150.934 416.253 149.805C415.603 148.676 414.698 147.716 413.61 147L310.48 87.47C308.42 86.27 306.74 87.24 306.74 89.63ZM312.13 117.39C312.13 115.39 313.57 114.51 315.35 115.54L409.11 169.66C410.046 170.273 410.826 171.097 411.385 172.066C411.944 173.035 412.268 174.123 412.33 175.24V357.41C412.33 359.47 410.88 360.29 409.11 359.27L315.35 305.14C313.57 304.14 312.13 302.81 312.13 300.77V117.39Z" fill="black"/>
    <path d="M414.07 388.46C415.184 388.93 416.387 389.153 417.595 389.113C418.804 389.074 419.989 388.772 421.07 388.23L425.36 385.75C426.456 385.041 427.368 384.082 428.021 382.952C428.675 381.822 429.051 380.553 429.12 379.25V146.7C429.099 145.732 428.878 144.778 428.47 143.9C428.339 143.592 428.192 143.292 428.03 143L416.23 149.81C416.479 150.254 416.696 150.715 416.88 151.19C417.16 151.932 417.312 152.717 417.33 153.51V386.07C417.35 388.27 415.92 389.27 414.07 388.46Z" fill="#219BBA"/>
    <path opacity="0.7" d="M414.07 388.46C415.184 388.93 416.387 389.153 417.595 389.113C418.804 389.074 419.989 388.772 421.07 388.23L425.36 385.75C426.456 385.041 427.368 384.082 428.021 382.952C428.675 381.822 429.051 380.553 429.12 379.25V146.7C429.099 145.732 428.878 144.778 428.47 143.9C428.339 143.592 428.192 143.292 428.03 143L416.23 149.81C416.479 150.254 416.696 150.715 416.88 151.19C417.16 151.932 417.312 152.717 417.33 153.51V386.07C417.35 388.27 415.92 389.27 414.07 388.46Z" fill="black"/>
    <path d="M361.15 338C357.88 336.12 355.23 337.65 355.23 341.42C355.341 343.475 355.934 345.475 356.963 347.258C357.992 349.041 359.426 350.556 361.15 351.68C364.42 353.56 367.07 352.03 367.07 348.26C366.959 346.205 366.366 344.205 365.337 342.422C364.308 340.639 362.874 339.124 361.15 338Z" stroke="#E6E6E6" stroke-miterlimit="10"/>
    <path d="M362 122.25C360.62 121.45 359.49 122.1 359.49 123.7C359.539 124.572 359.792 125.421 360.228 126.178C360.663 126.935 361.27 127.579 362 128.06C363.39 128.86 364.52 128.21 364.52 126.6C364.472 125.728 364.218 124.879 363.781 124.123C363.343 123.367 362.733 122.726 362 122.25Z" fill="black"/>
    <path d="M371.75 137.54L352.34 126.33C351.18 125.67 350.24 126.14 350.24 127.39C350.291 128.096 350.507 128.78 350.872 129.386C351.237 129.993 351.74 130.504 352.34 130.88L371.75 142.08C372.91 142.75 373.85 142.28 373.85 141.02C373.797 140.316 373.58 139.634 373.215 139.029C372.85 138.425 372.348 137.915 371.75 137.54Z" fill="black"/>
    <path d="M312.13 300.77C312.13 302.77 313.57 304.12 315.35 305.14L409.11 359.27C410.88 360.27 412.33 359.47 412.33 357.41V175.24C412.268 174.123 411.944 173.035 411.385 172.066C410.826 171.097 410.046 170.273 409.11 169.66L315.35 115.54C313.57 114.54 312.13 115.34 312.13 117.39V300.77Z" fill="#219BBA"/>
    <path opacity="0.5" d="M312.13 300.77C312.13 302.77 313.57 304.12 315.35 305.14L409.11 359.27C410.88 360.27 412.33 359.47 412.33 357.41V175.24C412.268 174.123 411.944 173.035 411.385 172.066C410.826 171.097 410.046 170.273 409.11 169.66L315.35 115.54C313.57 114.54 312.13 115.34 312.13 117.39V300.77Z" fill="white"/>
    <path d="M318.4 131.17V129.46C318.4 129.09 318.55 128.87 318.73 128.97L318.82 129.03C318.934 129.139 319.023 129.271 319.08 129.418C319.137 129.565 319.161 129.723 319.15 129.88V131.59C319.15 131.96 319 132.18 318.82 132.07H318.73C318.61 131.955 318.518 131.814 318.461 131.658C318.403 131.502 318.383 131.335 318.4 131.17Z" fill="#455A64"/>
    <path d="M319.89 132V129C319.89 128.63 320.03 128.41 320.21 128.52H320.3C320.414 128.631 320.502 128.765 320.559 128.914C320.616 129.062 320.64 129.221 320.63 129.38V132.33C320.63 132.7 320.48 132.91 320.3 132.81L320.21 132.76C320.009 132.557 319.895 132.285 319.89 132Z" fill="#455A64"/>
    <path d="M321.37 132.88V128.68C321.37 128.31 321.52 128.1 321.7 128.2L321.79 128.25C321.903 128.361 321.991 128.496 322.048 128.644C322.105 128.793 322.129 128.951 322.12 129.11V133.31C322.12 133.68 321.97 133.89 321.79 133.79H321.7C321.58 133.673 321.487 133.53 321.43 133.373C321.373 133.215 321.352 133.047 321.37 132.88Z" fill="#455A64"/>
    <path d="M322.86 133.73V126.49C322.86 126.12 323 125.9 323.18 126.01H323.27C323.383 126.121 323.471 126.256 323.528 126.404C323.585 126.553 323.61 126.711 323.6 126.87V134.11C323.6 134.48 323.45 134.7 323.27 134.59H323.18C323.067 134.479 322.98 134.344 322.925 134.195C322.87 134.047 322.847 133.888 322.86 133.73Z" fill="#455A64"/>
    <path d="M326.88 136.55C326.845 136.464 326.828 136.372 326.83 136.28V135.22L325.17 134.22C325.128 134.197 325.091 134.166 325.061 134.128C325.032 134.09 325.011 134.047 325 134V133.62C324.992 133.557 324.992 133.493 325 133.43C325.014 133.382 325.03 133.336 325.05 133.29L326.82 130.5C326.82 130.5 326.88 130.42 326.91 130.41C326.94 130.4 326.97 130.41 327.02 130.41L327.25 130.55C327.322 130.585 327.379 130.646 327.41 130.72C327.428 130.812 327.428 130.907 327.41 131V134.72L327.78 134.93C327.845 134.967 327.897 135.023 327.93 135.09C327.947 135.186 327.947 135.284 327.93 135.38V135.63C327.951 135.702 327.951 135.778 327.93 135.85C327.93 135.85 327.85 135.85 327.78 135.85L327.41 135.64V136.7C327.431 136.772 327.431 136.848 327.41 136.92C327.41 136.92 327.33 136.92 327.25 136.92L326.97 136.76C326.918 136.702 326.886 136.628 326.88 136.55ZM326.94 134.38V131.73L325.73 133.73L326.94 134.38Z" fill="#455A64"/>
    <path d="M328.85 137.05C328.506 136.178 328.339 135.247 328.36 134.31C328.286 133.553 328.457 132.792 328.85 132.14C329.183 131.76 329.643 131.74 330.23 132.08C330.723 132.359 331.13 132.767 331.41 133.26C331.424 133.309 331.424 133.361 331.41 133.41C331.413 133.443 331.413 133.477 331.41 133.51L331.26 133.89C331.26 133.89 331.26 133.95 331.2 133.94C331.17 133.916 331.146 133.885 331.13 133.85C330.918 133.506 330.626 133.218 330.28 133.01C329.88 132.78 329.56 132.79 329.34 133.06C329.059 133.554 328.94 134.124 329 134.69C328.979 135.372 329.091 136.051 329.33 136.69C329.496 137.153 329.813 137.547 330.23 137.81C330.357 137.889 330.495 137.95 330.64 137.99C330.748 138.018 330.861 138.018 330.97 137.99V136.3L330.28 135.9C330.212 135.862 330.159 135.802 330.13 135.73C330.111 135.638 330.111 135.542 330.13 135.45V135.21C330.13 135.09 330.13 135.02 330.13 134.99C330.13 134.96 330.21 134.99 330.28 134.99L331.38 135.63C331.459 135.674 331.519 135.745 331.55 135.83C331.585 135.936 331.602 136.048 331.6 136.16V138.62C331.608 138.686 331.608 138.754 331.6 138.82C331.592 138.856 331.57 138.889 331.54 138.91C331.319 138.987 331.082 139.008 330.851 138.969C330.621 138.931 330.403 138.835 330.22 138.69C329.597 138.306 329.116 137.731 328.85 137.05Z" fill="#455A64"/>
    <path d="M404.74 174C404.635 173.603 404.404 173.252 404.08 173L399.08 170.12C398.65 169.87 398.32 170.36 398.32 171.24V175C398.325 175.519 398.42 176.033 398.6 176.52C398.672 176.715 398.762 176.902 398.87 177.08C398.968 177.246 399.101 177.39 399.26 177.5L404.26 180.38C404.69 180.62 405.03 180.13 405.03 179.25V175.52C405.021 175 404.923 174.486 404.74 174ZM398.8 176.25C398.724 176.038 398.686 175.815 398.69 175.59V171.86C398.69 171.21 398.96 170.81 399.27 171L404.27 173.88C404.356 173.931 404.429 174.003 404.48 174.09C404.512 174.147 404.539 174.208 404.56 174.27C404.636 174.485 404.673 174.712 404.67 174.94V178.66C404.67 179.31 404.4 179.71 404.09 179.52L399.09 176.64C398.942 176.543 398.838 176.392 398.8 176.22V176.25Z" fill="#455A64"/>
    <path d="M401.94 173.18V177.59L399.26 176L399.17 175.93C399.176 175.88 399.176 175.83 399.17 175.78V172.43C399.17 171.96 399.38 171.66 399.61 171.79L401.94 173.18Z" fill="#455A64"/>
    <path d="M405.27 175.66C405.46 175.76 405.61 176.47 405.61 177.23V177.92C405.61 178.69 405.46 179.24 405.27 179.15L404.93 178.99V175.47L405.27 175.66Z" fill="#455A64"/>
    <path d="M392.9 172.41C392.9 173.23 392.47 173.65 391.9 173.34C391.587 173.098 391.334 172.788 391.16 172.432C390.987 172.076 390.898 171.686 390.9 171.29C390.9 170.47 391.33 170.06 391.9 170.36C392.214 170.601 392.468 170.911 392.642 171.267C392.815 171.623 392.904 172.014 392.9 172.41Z" fill="#455A64"/>
    <path d="M391.93 167.93C391.741 167.794 391.522 167.706 391.292 167.673C391.062 167.64 390.827 167.662 390.607 167.739C390.388 167.815 390.19 167.943 390.03 168.112C389.87 168.281 389.754 168.486 389.69 168.71C389.652 168.842 389.641 168.979 389.658 169.115C389.675 169.251 389.72 169.382 389.79 169.5C389.97 169.82 390.24 169.9 390.35 169.64C390.39 169.479 390.47 169.33 390.582 169.208C390.694 169.085 390.834 168.993 390.991 168.938C391.148 168.884 391.316 168.869 391.48 168.895C391.644 168.922 391.798 168.989 391.93 169.09C392.732 169.662 393.294 170.509 393.51 171.47C393.62 171.85 393.89 172.09 394.08 171.97C394.159 171.878 394.211 171.765 394.229 171.645C394.247 171.524 394.23 171.401 394.18 171.29C393.857 169.936 393.059 168.744 391.93 167.93Z" fill="#455A64"/>
    <path d="M391.93 165.55C391.653 165.347 391.334 165.21 390.997 165.147C390.66 165.084 390.313 165.098 389.981 165.187C389.65 165.276 389.343 165.439 389.083 165.663C388.823 165.886 388.617 166.166 388.48 166.48C388.432 166.616 388.415 166.76 388.429 166.904C388.443 167.047 388.487 167.186 388.56 167.31C388.73 167.63 388.99 167.71 389.11 167.48C389.221 167.223 389.388 166.995 389.6 166.812C389.811 166.629 390.061 166.495 390.331 166.422C390.601 166.349 390.884 166.338 391.159 166.39C391.434 166.441 391.694 166.554 391.92 166.72C393.292 167.689 394.289 169.102 394.74 170.72C394.86 171.08 395.12 171.31 395.29 171.19C395.45 171.09 395.48 170.77 395.37 170.45C394.816 168.472 393.602 166.743 391.93 165.55Z" fill="#455A64"/>
    <path d="M306.77 89C307.04 87 308.6 86.34 310.48 87.43L413.61 147C414.718 147.691 415.631 148.655 416.26 149.8L428.06 142.99C427.424 141.849 426.509 140.889 425.4 140.2L322.29 80.66C321.126 80.0681 319.84 79.7596 318.535 79.7596C317.229 79.7596 315.943 80.0681 314.78 80.66L310.48 83.13C309.478 83.7874 308.629 84.6513 307.99 85.6637C307.35 86.6761 306.934 87.8136 306.77 89Z" fill="#219BBA"/>
    <path opacity="0.2" d="M306.77 89C307.04 87 308.6 86.34 310.48 87.43L413.61 147C414.718 147.691 415.631 148.655 416.26 149.8L428.06 142.99C427.424 141.849 426.509 140.889 425.4 140.2L322.29 80.66C321.126 80.0681 319.84 79.7596 318.535 79.7596C317.229 79.7596 315.943 80.0681 314.78 80.66L310.48 83.13C309.478 83.7874 308.629 84.6513 307.99 85.6637C307.35 86.6761 306.934 87.8136 306.77 89Z" fill="black"/>
    <path d="M189.52 87.47L86.3899 147C85.3018 147.716 84.3966 148.676 83.7471 149.805C83.0976 150.934 82.7218 152.2 82.6499 153.5V386.06C82.6499 388.45 84.3299 389.43 86.3899 388.23L189.52 328.7C190.608 327.984 191.513 327.024 192.163 325.895C192.812 324.766 193.188 323.5 193.26 322.2V89.63C193.26 87.24 191.58 86.27 189.52 87.47ZM187.87 300.77C187.87 302.77 186.43 304.12 184.65 305.14L90.8899 359.27C89.1199 360.27 87.6699 359.47 87.6699 357.41V175.24C87.7318 174.123 88.0554 173.035 88.6148 172.066C89.1741 171.097 89.9534 170.273 90.8899 169.66L184.65 115.54C186.43 114.54 187.87 115.34 187.87 117.39V300.77Z" fill="#219BBA"/>
    <path opacity="0.5" d="M189.52 87.47L86.3899 147C85.3018 147.716 84.3966 148.676 83.7471 149.805C83.0976 150.934 82.7218 152.2 82.6499 153.5V386.06C82.6499 388.45 84.3299 389.43 86.3899 388.23L189.52 328.7C190.608 327.984 191.513 327.024 192.163 325.895C192.812 324.766 193.188 323.5 193.26 322.2V89.63C193.26 87.24 191.58 86.27 189.52 87.47ZM187.87 300.77C187.87 302.77 186.43 304.12 184.65 305.14L90.8899 359.27C89.1199 360.27 87.6699 359.47 87.6699 357.41V175.24C87.7318 174.123 88.0554 173.035 88.6148 172.066C89.1741 171.097 89.9534 170.273 90.8899 169.66L184.65 115.54C186.43 114.54 187.87 115.34 187.87 117.39V300.77Z" fill="black"/>
    <path d="M85.9299 388.46C84.8159 388.93 83.6131 389.153 82.4046 389.113C81.1961 389.074 80.0106 388.772 78.9299 388.23L74.6399 385.75C73.5442 385.041 72.6321 384.082 71.9785 382.952C71.325 381.822 70.9485 380.553 70.8799 379.25V146.7C70.9005 145.732 71.1219 144.778 71.5299 143.9C71.6604 143.592 71.8073 143.292 71.9699 143L83.7699 149.81C83.521 150.254 83.3038 150.715 83.1199 151.19C82.8395 151.932 82.6873 152.717 82.6699 153.51V386.07C82.6499 388.27 84.0799 389.27 85.9299 388.46Z" fill="#219BBA"/>
    <path opacity="0.7" d="M85.9299 388.46C84.8159 388.93 83.6131 389.153 82.4046 389.113C81.1961 389.074 80.0106 388.772 78.9299 388.23L74.6399 385.75C73.5442 385.041 72.6321 384.082 71.9785 382.952C71.325 381.822 70.9485 380.553 70.8799 379.25V146.7C70.9005 145.732 71.1219 144.778 71.5299 143.9C71.6604 143.592 71.8073 143.292 71.9699 143L83.7699 149.81C83.521 150.254 83.3038 150.715 83.1199 151.19C82.8395 151.932 82.6873 152.717 82.6699 153.51V386.07C82.6499 388.27 84.0799 389.27 85.9299 388.46Z" fill="black"/>
    <path d="M138.85 338C142.12 336.12 144.77 337.65 144.77 341.42C144.659 343.475 144.065 345.475 143.037 347.258C142.008 349.041 140.574 350.556 138.85 351.68C135.58 353.56 132.93 352.03 132.93 348.26C133.04 346.205 133.634 344.205 134.663 342.422C135.691 340.639 137.126 339.124 138.85 338Z" stroke="#E6E6E6" stroke-miterlimit="10"/>
    <path d="M138 122.25C139.38 121.45 140.51 122.1 140.51 123.7C140.461 124.572 140.208 125.421 139.772 126.178C139.336 126.935 138.729 127.579 138 128.06C136.61 128.86 135.48 128.21 135.48 126.6C135.528 125.728 135.781 124.879 136.219 124.123C136.657 123.367 137.267 122.726 138 122.25Z" fill="black"/>
    <path d="M128.25 137.54L147.66 126.33C148.82 125.67 149.76 126.14 149.76 127.39C149.709 128.096 149.492 128.78 149.127 129.386C148.762 129.993 148.26 130.504 147.66 130.88L128.25 142.08C127.09 142.75 126.15 142.28 126.15 141.02C126.202 140.316 126.42 139.634 126.785 139.029C127.149 138.425 127.651 137.915 128.25 137.54Z" fill="black"/>
    <path d="M187.87 300.77C187.87 302.77 186.43 304.12 184.65 305.14L90.8899 359.27C89.1199 360.27 87.6699 359.47 87.6699 357.41V175.24C87.7318 174.123 88.0555 173.035 88.6148 172.066C89.1741 171.097 89.9535 170.273 90.8899 169.66L184.65 115.54C186.43 114.54 187.87 115.34 187.87 117.39V300.77Z" fill="#219BBA"/>
    <path opacity="0.9" d="M187.87 300.77C187.87 302.77 186.43 304.12 184.65 305.14L90.8899 359.27C89.1199 360.27 87.6699 359.47 87.6699 357.41V175.24C87.7318 174.123 88.0555 173.035 88.6148 172.066C89.1741 171.097 89.9535 170.273 90.8899 169.66L184.65 115.54C186.43 114.54 187.87 115.34 187.87 117.39V300.77Z" fill="white"/>
    <path d="M163.47 139.57C163.47 140.4 163.9 140.81 164.47 140.5C164.779 140.266 165.029 139.963 165.203 139.616C165.376 139.27 165.467 138.888 165.47 138.5C165.47 137.68 165.04 137.26 164.47 137.57C164.161 137.804 163.91 138.107 163.737 138.454C163.563 138.8 163.472 139.182 163.47 139.57Z" fill="#455A64"/>
    <path d="M162.19 138.47C162.14 138.581 162.123 138.704 162.141 138.825C162.159 138.945 162.21 139.058 162.29 139.15C162.48 139.26 162.75 139.02 162.86 138.64C163.081 137.681 163.643 136.836 164.44 136.26C164.572 136.159 164.728 136.092 164.892 136.066C165.057 136.04 165.225 136.056 165.382 136.112C165.539 136.167 165.679 136.261 165.791 136.385C165.902 136.509 165.981 136.658 166.02 136.82C166.13 137.07 166.4 137 166.58 136.67C166.651 136.551 166.697 136.418 166.714 136.281C166.732 136.143 166.72 136.003 166.68 135.87C166.615 135.647 166.498 135.443 166.337 135.275C166.177 135.107 165.979 134.98 165.76 134.905C165.54 134.829 165.306 134.808 165.076 134.842C164.846 134.876 164.628 134.964 164.44 135.1C163.309 135.916 162.511 137.113 162.19 138.47Z" fill="#455A64"/>
    <path d="M161 137.63C160.89 137.95 160.92 138.27 161.08 138.37C161.25 138.48 161.51 138.26 161.63 137.9C162.086 136.284 163.081 134.873 164.45 133.9C164.676 133.734 164.936 133.622 165.212 133.571C165.487 133.52 165.771 133.532 166.041 133.606C166.311 133.68 166.561 133.815 166.772 133.999C166.983 134.183 167.15 134.412 167.26 134.67C167.38 134.89 167.64 134.82 167.81 134.5C167.881 134.375 167.923 134.236 167.936 134.093C167.948 133.949 167.929 133.805 167.88 133.67C167.743 133.357 167.537 133.079 167.277 132.856C167.018 132.633 166.711 132.472 166.381 132.383C166.051 132.295 165.705 132.282 165.369 132.346C165.033 132.409 164.715 132.547 164.44 132.75C162.771 133.938 161.558 135.659 161 137.63Z" fill="#455A64"/>
    <path d="M93.5999 180.8V179.32C93.5963 179.167 93.6278 179.016 93.692 178.877C93.7561 178.738 93.8512 178.616 93.9699 178.52L94.0799 178.46C94.2799 178.34 94.4499 178.46 94.4499 178.82V180.3C94.4534 180.453 94.4219 180.604 94.3578 180.743C94.2936 180.882 94.1986 181.004 94.0799 181.1L93.9699 181.16C93.7599 181.28 93.5999 181.12 93.5999 180.8Z" fill="#455A64"/>
    <path d="M95.3098 179.81V177.25C95.3063 177.097 95.3378 176.946 95.4019 176.807C95.4661 176.668 95.5612 176.546 95.6798 176.45L95.7898 176.39C95.9998 176.27 96.1698 176.39 96.1698 176.75V179.31C96.1722 179.464 96.1391 179.616 96.0732 179.754C96.0073 179.893 95.9104 180.015 95.7898 180.11L95.6798 180.17C95.4798 180.29 95.3098 180.13 95.3098 179.81Z" fill="#455A64"/>
    <path d="M97 178.82V175.18C96.9992 175.028 97.033 174.878 97.0988 174.741C97.1647 174.604 97.2608 174.484 97.38 174.39L97.48 174.33C97.69 174.21 97.86 174.33 97.86 174.69V178.32C97.8624 178.474 97.8293 178.626 97.7634 178.764C97.6975 178.903 97.6005 179.025 97.48 179.12L97.38 179.18C97.19 179.3 97 179.14 97 178.82Z" fill="#455A64"/>
    <path d="M98.7398 177.83V171.55C98.7378 171.399 98.7701 171.249 98.8341 171.113C98.8982 170.976 98.9925 170.855 99.1098 170.76L99.2198 170.7C99.4298 170.58 99.5998 170.7 99.5998 171.06V177.33C99.6034 177.483 99.5719 177.634 99.5077 177.773C99.4436 177.912 99.3485 178.034 99.2298 178.13L99.1198 178.19C98.9098 178.31 98.7398 178.15 98.7398 177.83Z" fill="#455A64"/>
    <path d="M103.38 175.58C103.38 175.58 103.38 175.49 103.38 175.4V174.48L101.45 175.59C101.35 175.65 101.3 175.59 101.3 175.48V175.15C101.294 175.09 101.294 175.03 101.3 174.97L101.37 174.78L103.37 170.3C103.398 170.237 103.432 170.177 103.47 170.12C103.509 170.079 103.553 170.042 103.6 170.01L103.87 169.86C103.95 169.807 104.01 169.807 104.05 169.86C104.074 169.924 104.074 169.996 104.05 170.06V173.27L104.48 173.03C104.56 172.98 104.61 172.97 104.65 173.03C104.69 173.09 104.65 173.12 104.65 173.22V173.44C104.667 173.519 104.667 173.601 104.65 173.68C104.609 173.748 104.55 173.803 104.48 173.84L104.05 174.09V175C104.058 175.084 104.041 175.168 103.999 175.241C103.958 175.315 103.896 175.374 103.82 175.41L103.5 175.59C103.47 175.59 103.41 175.6 103.38 175.58ZM103.45 173.58V171.28L102.06 174.38L103.45 173.58Z" fill="#455A64"/>
    <path d="M105.66 173.7C105.28 173.42 105.1 172.82 105.1 171.9C105.087 171.05 105.279 170.21 105.66 169.45C106.021 168.756 106.572 168.18 107.25 167.79C107.491 167.647 107.75 167.536 108.02 167.46C108.215 167.399 108.424 167.399 108.62 167.46C108.626 167.471 108.629 167.483 108.629 167.495C108.629 167.507 108.626 167.519 108.62 167.53C108.627 167.566 108.627 167.604 108.62 167.64L108.44 168.14C108.44 168.21 108.44 168.25 108.37 168.26H108.29C107.938 168.226 107.584 168.314 107.29 168.51C106.826 168.784 106.448 169.182 106.2 169.66C105.925 170.223 105.791 170.844 105.81 171.47C105.81 172.18 105.94 172.64 106.19 172.83C106.44 173.02 106.8 173 107.24 172.75C107.405 172.653 107.562 172.542 107.71 172.42C107.851 172.312 107.978 172.188 108.09 172.05V170.56L107.29 171.02C107.21 171.07 107.15 171.08 107.12 171.02C107.097 170.959 107.097 170.891 107.12 170.83V170.62C107.101 170.538 107.101 170.452 107.12 170.37C107.161 170.302 107.22 170.247 107.29 170.21L108.57 169.48C108.66 169.42 108.72 169.42 108.76 169.48C108.8 169.54 108.82 169.59 108.82 169.71V171.84C108.826 171.906 108.826 171.973 108.82 172.04C108.803 172.095 108.776 172.146 108.74 172.19C108.339 172.746 107.82 173.207 107.22 173.54C106.57 173.92 106 174 105.66 173.7Z" fill="#455A64"/>
    <path d="M178.91 125.77C178.813 125.669 178.684 125.605 178.544 125.59C178.405 125.576 178.265 125.611 178.15 125.69L172.39 129C172.108 129.224 171.882 129.51 171.729 129.837C171.576 130.163 171.501 130.52 171.51 130.88V134.1C171.494 134.28 171.516 134.462 171.572 134.634C171.629 134.806 171.72 134.964 171.84 135.1C171.924 135.187 172.032 135.246 172.15 135.27C172.306 135.298 172.466 135.266 172.6 135.18L178.36 131.86C178.642 131.636 178.868 131.35 179.021 131.023C179.173 130.697 179.248 130.34 179.24 129.98V126.76C179.254 126.581 179.232 126.402 179.175 126.232C179.118 126.062 179.028 125.905 178.91 125.77ZM172.05 134.65C171.955 134.516 171.912 134.353 171.93 134.19V131C171.927 130.727 171.986 130.456 172.102 130.209C172.218 129.961 172.388 129.743 172.6 129.57L178.36 126.25C178.431 126.205 178.515 126.183 178.6 126.19H178.7C178.795 126.324 178.837 126.487 178.82 126.65V129.87C178.823 130.143 178.764 130.414 178.648 130.661C178.532 130.909 178.362 131.127 178.15 131.3L172.39 134.62C172.25 134.72 172.13 134.73 172.05 134.65Z" fill="#455A64"/>
    <path d="M175.68 128.34V132.16L172.58 133.95H172.48C172.485 133.907 172.485 133.863 172.48 133.82V131C172.48 130.797 172.525 130.597 172.612 130.414C172.698 130.231 172.824 130.069 172.98 129.94L175.68 128.34Z" fill="#455A64"/>
    <path d="M179.53 126.6C179.74 126.48 179.91 126.92 179.91 127.6V128.2C179.96 128.715 179.821 129.23 179.52 129.65L179.14 129.9V126.9L179.53 126.6Z" fill="#455A64"/>
    <path d="M193.23 89C192.96 87 191.4 86.34 189.52 87.43L86.3899 147C85.2812 147.691 84.3687 148.655 83.7399 149.8L71.9399 143C72.5754 141.859 73.4908 140.899 74.5999 140.21L177.71 80.66C178.871 80.0682 180.156 79.7597 181.46 79.7597C182.763 79.7597 184.049 80.0682 185.21 80.66L189.52 83.13C190.521 83.7874 191.37 84.6513 192.01 85.6637C192.65 86.6761 193.066 87.8136 193.23 89Z" fill="#219BBA"/>
    <path opacity="0.2" d="M193.23 89C192.96 87 191.4 86.34 189.52 87.43L86.3899 147C85.2812 147.691 84.3687 148.655 83.7399 149.8L71.9399 143C72.5754 141.859 73.4908 140.899 74.5999 140.21L177.71 80.66C178.871 80.0682 180.156 79.7597 181.46 79.7597C182.763 79.7597 184.049 80.0682 185.21 80.66L189.52 83.13C190.521 83.7874 191.37 84.6513 192.01 85.6637C192.65 86.6761 193.066 87.8136 193.23 89Z" fill="black"/>
    <path d="M383.11 312.58C383.11 312.58 372.42 323.28 358.21 319.19C358.21 319.19 362.49 323.41 372.56 320.58C379.35 318.67 383.11 312.58 383.11 312.58Z" fill="#219BBA"/>
    <path d="M404.33 247C404.33 247 409.79 261.1 400.33 272.44C400.33 272.44 405.92 270.24 407.4 259.88C408.37 252.86 404.33 247 404.33 247Z" fill="#219BBA"/>
    <path d="M382 317.07C392 306.78 396.35 294.77 396.45 282.5C396.45 282.5 399.36 289.8 394.82 301.32C390.28 312.84 382 317.07 382 317.07Z" fill="#219BBA"/>
    <path d="M106.13 302.19C106.13 302.19 106 317.31 118.88 324.58C118.88 324.58 112.88 324.48 107.88 315.32C104.43 309.14 106.13 302.19 106.13 302.19Z" fill="#219BBA"/>
    <path d="M102.87 308.25C100.647 295.458 103.569 282.307 111 271.66C111 271.66 104.42 275.95 101.5 287.99C98.5799 300.03 102.87 308.25 102.87 308.25Z" fill="#219BBA"/>
    <path d="M326.86 224L331.09 211.35C319.95 213.35 316.92 214.87 313.63 224.08L311.45 231.42L298.11 272.48C294.95 273.31 255.61 284.15 254.24 284.32C254.24 284.32 254.18 284.42 254.14 284.47C241.29 285.29 237.14 285.86 237.14 285.86C240.75 295.3 247.52 300.62 256.87 302.54V302.32V302.39C273.42 299.57 300.57 293.17 309.4 290.24C313.12 289.05 314.71 284.86 316.24 281.36C322.49 267.07 329.02 247.81 331.24 236.22C332.68 229.24 330.57 225.75 326.86 224Z" fill="#FFBD2B"/>
    <path d="M331.09 211.3C331.09 211.3 320.02 209.6 315.22 219.76C312 226.62 302.15 256 302.15 256C302.15 256 309.15 265 324.48 265.55C324.48 265.55 338.96 232.3 338.15 231.24C337.34 230.18 331.09 211.3 331.09 211.3Z" fill="#37474F"/>
    <path d="M329.06 211.09C326.37 211.35 319.55 220.47 319.41 235.99C319.22 256.78 329.41 282.23 331.97 287.72C334.53 293.21 339.51 303.96 347.97 311.94C350.7 314.5 369.34 321.75 381.35 308.25C393.57 294.52 391.64 276.48 389.2 270.83C385.11 261.37 377.88 250.36 378.14 237.91C376.61 228.97 373.68 217.4 367 212.55C364.25 211.85 355.59 210.74 353.9 210.97L329.06 211.09Z" fill="#FAFAFA"/>
    <path d="M364.26 227.59L360.85 231.87C361.85 238.66 367 248.47 372.99 256.3C377.66 262.41 387.16 268.71 390.99 279.5C390.883 276.536 390.299 273.608 389.26 270.83C385.17 261.37 377.94 250.36 378.2 237.91C377.95 236.43 377.65 234.91 377.31 233.3L374.11 230.4L364.26 227.59Z" fill="#EBEBEB"/>
    <path d="M367 212.55C372.85 213.99 376 217.08 381.12 222.93C387 229.53 399 243.41 399 243.41C407.39 257.95 399.85 272.74 393.56 270.31C393.56 270.31 379.38 256.46 370.68 245.96C364.85 238.96 361.88 234.96 361.55 227.25C361.27 221.19 362.35 215 367 212.55Z" fill="#FFBD2B"/>
    <path d="M363.94 212C363.94 212 368.99 210.88 375.56 216.17C382.13 221.46 398.19 238.94 398.19 238.94C398.19 238.94 398.67 257.45 386.88 265.8C386.88 265.8 369.48 248.34 365.19 242.3C362.206 237.857 360.509 232.674 360.289 227.326C360.068 221.979 361.332 216.674 363.94 212Z" fill="#37474F"/>
    <path d="M360.85 177C360.85 177 358.31 192.51 357.12 195.09C356.321 196.69 354.934 197.919 353.25 198.52L353 187.75L360.85 177Z" fill="#263238"/>
    <path d="M352.6 154.49C352.6 154.49 356.79 152.38 359.66 155.05C362.53 157.72 362.72 166.9 360.56 178.79L353.34 178.41L352.6 154.49Z" fill="#263238"/>
    <path d="M330.445 188.963C341.383 186.799 348.497 176.178 346.333 165.239C344.169 154.3 333.547 147.187 322.608 149.351C311.67 151.515 304.556 162.137 306.72 173.075C308.884 184.014 319.506 191.127 330.445 188.963Z" fill="#263238"/>
    <path d="M353.2 156.06L359.45 150.32C359.093 149.892 358.653 149.54 358.157 149.287C357.66 149.033 357.117 148.883 356.561 148.846C356.005 148.809 355.446 148.885 354.92 149.069C354.394 149.254 353.911 149.543 353.5 149.92C352.67 150.708 352.175 151.786 352.12 152.93C352.064 154.073 352.451 155.194 353.2 156.06Z" fill="#263238"/>
    <path d="M315.81 157.35C314.54 159.54 308.19 168.74 310.51 186.02C312.69 202.29 317.92 206.11 320.7 206.97C323.48 207.83 329.06 207.34 333.94 205.97L334.82 212.88C334.82 212.88 331.97 217.46 335.82 219.99C339.67 222.52 348.14 220.66 350.1 219.1C354.71 215.41 354.01 212.3 354.01 212.3L353.01 189.86C353.01 189.86 356.48 192.72 360.95 189.35C365.17 186.18 365.36 177.8 361.8 174.92C358.24 172.04 352.53 173.76 351.75 178.39C351.75 178.39 351.6 161.19 341.83 156.62C329.32 150.76 315.81 157.35 315.81 157.35Z" fill="#FFBD2B"/>
    <path d="M350.63 180.63C351.18 180.34 352.12 175.74 354.83 174.18C357.32 172.74 352.62 152.18 352.6 152.08C352.32 150.57 350.77 148.8 349.76 147.7C348.234 146.08 346.321 144.876 344.2 144.2C341.285 143.31 338.201 143.125 335.2 143.66C330.54 144.38 326.07 146.32 321.36 146.34C316.89 146.34 312.62 144.61 308.24 143.74C307.402 143.477 306.496 143.537 305.7 143.91C305.293 144.192 304.973 144.584 304.78 145.04C304.23 146.364 304.18 147.842 304.64 149.2C305.12 150.544 305.794 151.811 306.64 152.96C305.08 152.23 302.88 152.17 301.98 153.63C301.27 154.78 301.71 156.28 302.36 157.46C305.1 162.38 309.97 164.54 315.09 165.71C317.242 166.075 319.418 166.275 321.6 166.31C327.12 166.62 332.42 164.41 337.51 162.25C338.91 161.65 341.64 160.63 343.17 161.87C345.07 163.41 344.98 168.39 345.55 172.48C346.42 178.89 348.55 181.75 350.63 180.63Z" fill="#263238"/>
    <path d="M333 193L327.43 195.49C327.578 195.866 327.8 196.209 328.083 196.497C328.367 196.785 328.705 197.013 329.079 197.167C329.452 197.321 329.853 197.398 330.257 197.394C330.661 197.389 331.06 197.303 331.43 197.14C332.173 196.783 332.751 196.155 333.043 195.384C333.335 194.613 333.32 193.76 333 193Z" fill="#9A4A4D"/>
    <path d="M313 179.71C313.04 180.114 313.198 180.498 313.455 180.813C313.711 181.128 314.055 181.36 314.443 181.482C314.83 181.603 315.245 181.607 315.635 181.494C316.026 181.381 316.374 181.156 316.637 180.847C316.9 180.537 317.067 180.157 317.115 179.754C317.164 179.351 317.093 178.942 316.911 178.579C316.729 178.215 316.444 177.914 316.092 177.711C315.74 177.509 315.336 177.414 314.93 177.44C314.374 177.486 313.858 177.751 313.496 178.176C313.134 178.602 312.956 179.153 313 179.71Z" fill="#263238"/>
    <path d="M329.06 178.72C329.1 179.124 329.258 179.508 329.515 179.823C329.771 180.138 330.115 180.37 330.503 180.492C330.89 180.613 331.305 180.617 331.695 180.504C332.086 180.391 332.434 180.166 332.697 179.857C332.96 179.547 333.127 179.167 333.175 178.764C333.224 178.361 333.153 177.952 332.971 177.589C332.789 177.225 332.504 176.924 332.152 176.721C331.8 176.519 331.396 176.425 330.99 176.45C330.714 176.471 330.445 176.547 330.198 176.673C329.952 176.799 329.732 176.972 329.553 177.183C329.373 177.394 329.238 177.639 329.153 177.903C329.068 178.166 329.037 178.444 329.06 178.72Z" fill="#263238"/>
    <path d="M323.62 179.16L323.25 191.57L316.72 189.53L323.62 179.16Z" fill="#9A4A4D"/>
    <path d="M333.94 206C338.04 205.06 346.06 201.61 347.58 198.61C347.58 198.61 347.73 200.52 345.3 203.42C342.87 206.32 334.35 209.22 334.35 209.22L333.94 206Z" fill="#9A4A4D"/>
    <path d="M311.37 175.4L316 173.4C315.714 172.78 315.199 172.295 314.564 172.046C313.929 171.796 313.222 171.801 312.59 172.06C312.287 172.194 312.013 172.389 311.787 172.631C311.56 172.873 311.384 173.159 311.271 173.471C311.157 173.783 311.107 174.114 311.124 174.446C311.141 174.777 311.225 175.102 311.37 175.4Z" fill="#263238"/>
    <path d="M330.31 172.41L334.73 174.81C335.045 174.205 335.112 173.5 334.916 172.847C334.72 172.193 334.276 171.642 333.68 171.31C333.388 171.152 333.068 171.054 332.737 171.024C332.407 170.994 332.074 171.032 331.758 171.135C331.443 171.238 331.152 171.404 330.903 171.623C330.654 171.842 330.452 172.11 330.31 172.41Z" fill="#263238"/>
    <path d="M197.21 209.22H162.75C154.522 209.217 146.63 205.953 140.804 200.142C134.978 194.331 131.694 186.448 131.67 178.22V172.81C131.654 164.871 134.792 157.251 140.393 151.625C145.995 145.999 153.601 142.829 161.54 142.81H167.16C171.091 142.798 174.986 143.561 178.622 145.056C182.258 146.551 185.564 148.748 188.35 151.521C191.136 154.294 193.349 157.59 194.86 161.218C196.372 164.847 197.153 168.739 197.16 172.67L197.21 209.22Z" fill="#263238"/>
    <path d="M168.69 211.16C181.05 210.23 188.84 215.96 189.1 227.45C189.24 233.24 184.22 256.29 184.22 256.29L168.69 211.16Z" fill="#FFBD2B"/>
    <path d="M168.69 211.16C174.98 211.79 181.92 222.53 187.96 236.34C190.33 241.78 194.66 249.1 189.2 259.28C185.82 265.57 178.86 268.11 178.86 268.11C176.34 276.001 172.703 283.49 168.06 290.35C165.16 299.585 159.883 307.896 152.76 314.45C149.96 316.93 132.85 332.08 119.06 320.39C110.86 313.44 108 302.39 108.84 291.96C109.33 285.83 110.69 279.77 115 275.38C117.485 272.852 119.781 270.144 121.87 267.28C124.06 256.85 121.55 249.77 121.29 237.28C122.82 228.34 126.61 220.76 133.29 215.92C138.237 213.962 143.441 212.726 148.74 212.25L168.69 211.16Z" fill="#219BBA"/>
    <path opacity="0.1" d="M168.48 289.73L167.64 283C167.64 283 138.64 237.54 137.41 236.26C136.69 235.49 129.73 230.85 124.29 227.26C122.866 230.451 121.857 233.812 121.29 237.26C121.55 249.71 124.06 256.79 121.87 267.26C121.87 267.26 120.38 269.37 117.97 272.14C122.27 273.26 129.28 267.85 129.28 267.85C129.28 267.85 143.28 287.64 149.44 294.67C155.19 301.26 158.63 302.24 162.88 301.95C165.067 298.299 166.806 294.397 168.06 290.33C168.21 290.14 168.34 289.93 168.48 289.73Z" fill="black"/>
    <path opacity="0.05" d="M189.2 259.28C189.49 258.73 189.76 258.19 190 257.65C184.37 261.97 180.45 258.93 175.73 258.02C170.85 257.08 167.23 264.02 158.1 263.16C146.1 262 141.75 254.45 141.75 254.45C141.75 254.45 141.43 267.52 156.3 270.39C166.24 272.31 169.89 266.94 172.64 266.94C173.84 266.94 174.91 267.87 178.86 268.11C178.86 268.11 185.82 265.57 189.2 259.28Z" fill="black"/>
    <path d="M185.83 159C187.07 161.14 193.23 170.07 190.98 186.84C188.86 202.63 183.78 205.2 181.08 206.04C178.38 206.88 172.97 206.39 168.23 205.04L167.16 214.54C167.16 214.54 171.76 221.08 170.85 225.38C169.94 229.68 160.75 229.13 154.99 224.18C151.523 221.137 149.301 216.92 148.75 212.34L149.75 190.54C149.75 190.54 146.38 193.32 142.04 190.05C137.95 186.97 137.76 178.84 141.22 176.05C144.68 173.26 150.22 174.92 150.97 179.41C150.97 179.41 161.69 181.89 171.18 177.41C183.29 171.73 185.06 163.5 185.83 159Z" fill="#FFBD2B"/>
    <path d="M151.17 185.4L150.88 175.48C152.228 175.476 153.525 175.995 154.498 176.928C155.471 177.86 156.046 179.133 156.1 180.48C156.111 181.13 155.991 181.775 155.747 182.378C155.502 182.98 155.14 183.528 154.679 183.987C154.219 184.446 153.671 184.808 153.068 185.051C152.466 185.293 151.82 185.412 151.17 185.4Z" fill="#263238"/>
    <path d="M172.85 194.38L178.25 196.8C178.105 197.163 177.89 197.493 177.615 197.771C177.341 198.048 177.014 198.268 176.653 198.418C176.292 198.567 175.905 198.642 175.515 198.639C175.124 198.636 174.738 198.555 174.38 198.4C173.654 198.058 173.09 197.448 172.804 196.699C172.519 195.949 172.535 195.118 172.85 194.38Z" fill="#F28F8F"/>
    <path d="M188.55 180.85C188.551 181.123 188.495 181.393 188.387 181.644C188.279 181.895 188.121 182.121 187.923 182.308C187.724 182.496 187.489 182.64 187.232 182.734C186.976 182.827 186.703 182.866 186.43 182.85C185.889 182.804 185.389 182.546 185.038 182.132C184.688 181.717 184.516 181.181 184.56 180.64C184.595 180.11 184.838 179.615 185.238 179.264C185.436 179.09 185.666 178.957 185.915 178.872C186.164 178.788 186.427 178.753 186.69 178.77C186.953 178.787 187.209 178.856 187.446 178.972C187.682 179.088 187.893 179.25 188.066 179.448C188.24 179.645 188.373 179.876 188.458 180.125C188.542 180.374 188.577 180.637 188.56 180.9L188.55 180.85Z" fill="#263238"/>
    <path d="M174.06 182C174.018 182.389 173.863 182.758 173.614 183.06C173.364 183.362 173.032 183.584 172.658 183.699C172.284 183.813 171.884 183.816 171.508 183.706C171.132 183.595 170.797 183.377 170.545 183.078C170.292 182.779 170.132 182.413 170.085 182.024C170.039 181.636 170.107 181.242 170.283 180.892C170.458 180.541 170.732 180.25 171.071 180.055C171.41 179.859 171.799 179.767 172.19 179.79C172.46 179.806 172.724 179.877 172.966 179.998C173.208 180.119 173.423 180.288 173.598 180.495C173.773 180.701 173.904 180.941 173.983 181.2C174.063 181.459 174.089 181.731 174.06 182Z" fill="#263238"/>
    <path d="M179.86 180.72L180.22 192.77L186.56 190.79L179.86 180.72Z" fill="#F28F8F"/>
    <path d="M168.23 205C164.23 204.09 156.47 200.74 154.99 197.83C154.99 197.83 154.85 199.69 157.21 202.5C159.57 205.31 167.88 208.08 167.88 208.08L168.23 205Z" fill="#F28F8F"/>
    <path d="M189.19 175.48L184.7 173.54C184.979 172.94 185.479 172.471 186.095 172.229C186.711 171.987 187.397 171.991 188.01 172.24C188.304 172.37 188.57 172.558 188.79 172.794C189.01 173.029 189.18 173.306 189.29 173.609C189.4 173.911 189.448 174.233 189.431 174.555C189.414 174.876 189.332 175.191 189.19 175.48Z" fill="#263238"/>
    <path d="M162.3 298.43L172.06 279.76C175.3 280.23 178.54 280.68 181.78 281.13C188.23 282.02 212.6 285.01 213.98 285.03C216.67 284.987 219.325 284.409 221.79 283.33C225.65 281.88 228.51 279.56 231.63 278.92C233.075 278.635 234.555 278.568 236.02 278.72C237.87 278.85 237.39 279.84 239.22 280.16C239.745 280.207 240.245 280.405 240.66 280.73C241.36 281.39 240.85 281.79 240.48 282.33C240.087 283.013 239.836 283.768 239.74 284.55C239.6 285.22 239.05 287.5 240 287.87C244.61 289.66 245.13 292.3 251.11 297.43C253.97 299.88 255.51 301.65 257.44 302.9C258.65 304.73 258.74 305.9 254.44 308.42C251.58 310.12 246.44 313.42 238.03 310.78C228.87 307.91 224.18 302.78 221.82 302.67C205.08 301.73 171.41 300.34 162.3 298.43Z" fill="#FFBD2B"/>
    <path d="M172.06 279.76L147.4 239.33C147.4 239.33 143.35 216.74 133.3 215.96C133.3 215.96 124.1 218.33 122 223.85C119.47 230.53 119.59 237.07 127.14 251.85C132.84 263.05 148.29 284.16 154.47 291.31C156.97 294.2 159.7 297.59 162.3 298.39" fill="#FFBD2B"/>
    <path d="M222.12 302.7C223.065 302.938 223.946 303.382 224.7 304C226.243 303.723 227.68 303.032 228.86 302C233.48 298.63 249.36 305.4 245.45 309.75C242.61 312.91 239.84 313.75 235.31 312.34C228.63 310.3 221.51 307.25 222.12 302.7Z" fill="#FFBD2B"/>
    <path d="M237.52 279.28C232.26 280.19 226.8 284.03 223.95 285.19C221.1 286.35 218.16 287.04 220.78 289.55C223.4 292.06 229.78 289.55 234.19 287.99C237.19 286.91 240.98 287.99 242.67 288.69C243.91 289.2 243.25 285.85 243.25 285.85C242.25 284.39 254.66 285.85 254.25 284.41C247.69 284.69 241.76 278.31 237.52 279.28Z" fill="#FFBD2B"/>
    </svg>
    